<?xml version="1.0" encoding="UTF-8"?>
<svg version="1.1" xmlns="http://www.w3.org/2000/svg" width="1024" height="1024">
<path d="M0 0 C337.92 0 675.84 0 1024 0 C1024 337.92 1024 675.84 1024 1024 C686.08 1024 348.16 1024 0 1024 C0 686.08 0 348.16 0 0 Z " fill="#D5E5E9" transform="translate(0,0)"/>
<path d="M0 0 C2.5536046 0.75952623 4.5280471 1.678427 6.81567383 3.03222656 C7.62327148 3.50337891 8.43086914 3.97453125 9.26293945 4.45996094 C10.56328125 5.23049805 10.56328125 5.23049805 11.88989258 6.01660156 C19.71417677 10.57481069 27.59775613 14.98621558 35.57739258 19.26660156 C43.97999927 23.78607359 52.30460587 28.41741746 60.57348633 33.17675781 C67.37939731 37.0922066 74.22157211 40.93928254 81.07739258 44.76660156 C91.32001809 50.4894134 101.52064222 56.28108899 111.69848633 62.11816406 C114.88490339 63.94267967 118.07465203 65.76128005 121.26489258 67.57910156 C133.37773436 74.48294652 145.46324442 81.42871802 157.49414062 88.47485352 C165.19948315 92.98074144 172.94573812 97.41247918 180.70239258 101.82910156 C189.97164436 107.1078667 199.19277341 112.45977676 208.36230469 117.91015625 C215.29605216 122.0260621 222.27349067 126.0620318 229.26489258 130.07910156 C239.43740013 135.92652985 249.55111596 141.86454188 259.62890625 147.87329102 C261.16381714 148.78727661 261.16381714 148.78727661 262.72973633 149.71972656 C264.21748707 150.6602174 264.21748707 150.6602174 265.73529339 151.61970806 C268.52073293 153.28751765 271.26421326 154.41286267 274.3265276 155.48175526 C279.89380785 157.64988746 284.76233989 160.04693503 288.57739258 164.76660156 C291.94229713 173.68051478 291.02846673 183.953167 290.78263938 193.35070908 C290.70017494 197.30622087 290.7283818 201.26118548 290.74278259 205.21731567 C290.75272122 212.0622901 290.69338874 218.90381009 290.58626366 225.74791527 C290.43149213 235.64256936 290.38233278 245.53556216 290.35849182 255.43129543 C290.31696113 271.48745079 290.19066987 287.54176666 290.01074219 303.59692383 C289.83619793 319.18797636 289.70178056 334.77852834 289.62109375 350.37036133 C289.616102 351.33227094 289.61111026 352.29418055 289.60596725 353.28523894 C289.58117058 358.11111384 289.55716036 362.93699227 289.53354108 367.76287305 C289.3367404 407.76540354 289.00224258 447.76588089 288.57739258 487.76660156 C285.07272442 489.78979294 281.56789972 491.81271286 278.0629425 493.83540344 C276.87574747 494.52057428 275.68859198 495.20581364 274.5014801 495.89112854 C261.84297778 503.19870554 249.15435233 510.45285045 236.45239258 517.68457031 C227.21191997 522.95000816 218.00303619 528.26390765 208.82739258 533.64160156 C199.43211287 539.14592223 189.95915892 544.49757884 180.44604492 549.79516602 C173.89617962 553.4489059 167.40531592 557.18383294 160.95751953 561.01416016 C153.16947377 565.62756264 145.27188056 570.04602557 137.38598633 574.48925781 C132.04308239 577.50032733 126.7132561 580.53364243 121.38989258 583.57910156 C120.5468457 584.06121094 119.70379883 584.54332031 118.83520508 585.04003906 C115.00218733 587.23277581 111.17002391 589.42699781 107.33862305 591.62255859 C92.79392736 599.95664639 78.21918923 608.23047193 63.58520508 616.40722656 C48.13702232 625.03988815 32.75517171 633.78373537 17.44287109 642.6550293 C15.42100819 643.82551462 13.39601066 644.99060749 11.36743164 646.14941406 C9.55977848 647.19718222 7.76844428 648.27384063 5.99829102 649.38378906 C0.27401703 652.88025027 0.27401703 652.88025027 -3.00854492 652.34472656 C-4.20350586 651.56355469 -4.20350586 651.56355469 -5.42260742 650.76660156 C-6.6202753 650.11032634 -7.82110599 649.45980675 -9.02416992 648.81347656 C-10.36696666 648.05075072 -11.70804856 647.2849998 -13.04760742 646.51660156 C-14.46655377 645.71004087 -15.88582647 644.90405403 -17.30541992 644.09863281 C-18.00054687 643.70369629 -18.69567383 643.30875977 -19.41186523 642.90185547 C-23.71930755 640.46989738 -28.07068619 638.11774545 -32.42260742 635.76660156 C-32.42260742 635.10660156 -32.42260742 634.44660156 -32.42260742 633.76660156 C-32.98761963 633.65050537 -33.55263184 633.53440918 -34.13476562 633.41479492 C-36.6732439 632.69559101 -38.71400018 631.66228622 -41.02807617 630.39550781 C-42.3657605 629.66581787 -42.3657605 629.66581787 -43.73046875 628.92138672 C-44.68074951 628.39593262 -45.63103027 627.87047852 -46.61010742 627.32910156 C-47.59970459 626.78560059 -48.58930176 626.24209961 -49.60888672 625.68212891 C-56.05514697 622.12417204 -62.42725232 618.45972589 -68.7512207 614.68969727 C-74.93289377 611.01775174 -81.20284375 607.51304766 -87.48510742 604.01660156 C-96.90431375 598.77054265 -106.24295815 593.40310329 -115.54199219 587.94726562 C-122.2997042 583.98834731 -129.09545173 580.10440008 -135.92260742 576.26660156 C-144.76827202 571.294124 -153.5406452 566.2068823 -162.29272461 561.07177734 C-169.53551372 556.83527396 -176.8385417 552.71770582 -184.17260742 548.64160156 C-192.53322548 543.99266534 -200.78357334 539.20417286 -208.95996094 534.23925781 C-216.24508971 529.83139955 -223.64748266 525.64658628 -231.07202148 521.47900391 C-236.68591003 518.32438023 -242.263009 515.12065967 -247.79760742 511.82910156 C-255.89505863 507.01830985 -264.11213458 502.42703032 -272.34399414 497.85083008 C-274.3028536 496.76049179 -276.25477013 495.65754003 -278.19788241 494.53937966 C-281.36770008 492.73746179 -281.36770008 492.73746179 -284.58700871 491.36187643 C-292.74548642 487.46125418 -292.74548642 487.46125418 -294.52002096 483.02006924 C-294.94166174 479.54163838 -294.96532001 476.24131959 -294.86566162 472.73841858 C-294.87591472 471.4216173 -294.88616782 470.10481602 -294.89673162 468.74811167 C-294.92351388 465.10242625 -294.87566423 461.46098666 -294.81539488 457.81584251 C-294.76350067 453.88205437 -294.78111448 449.94849954 -294.79022217 446.01446533 C-294.79651027 439.20193422 -294.75890993 432.39078372 -294.6913681 425.57859993 C-294.59378047 415.72961556 -294.56258499 405.88129777 -294.5475122 396.03188234 C-294.52125793 380.05171965 -294.44142549 364.07229261 -294.32788086 348.0925293 C-294.21770759 332.57108233 -294.1327793 317.04983528 -294.08178711 301.52807617 C-294.07863443 300.57108966 -294.07548175 299.61410314 -294.07223353 298.62811703 C-294.05657291 293.82712586 -294.04140846 289.02613327 -294.02649069 284.22513974 C-293.90211911 244.40511195 -293.6907879 204.58590533 -293.42260742 164.76660156 C-292.69914124 164.37981232 -291.97567505 163.99302307 -291.23028564 163.59451294 C-288.48162033 162.12361103 -285.73404034 160.65070489 -282.98712158 159.17654419 C-281.2393649 158.23933317 -279.49042727 157.30432549 -277.74145508 156.36938477 C-270.12476124 152.27953957 -262.61722895 148.03638253 -255.17260742 143.64160156 C-247.65764619 139.21260596 -240.10194329 134.90459647 -232.42260742 130.76660156 C-223.77677996 126.10209942 -215.27150611 121.23163624 -206.80102539 116.2565918 C-199.0815602 111.72463428 -191.32478884 107.26102263 -183.54760742 102.82910156 C-174.38559689 97.60674453 -165.23923572 92.35885245 -156.11010742 87.07910156 C-145.1919502 80.7688785 -134.22842545 74.54271916 -123.24047852 68.35498047 C-120.41012617 66.75956613 -117.58200526 65.16026934 -114.75463867 63.55957031 C-104.8646513 57.96058458 -94.9642638 52.38073068 -85.04760742 46.82910156 C-84.00950928 46.24781494 -82.97141113 45.66652832 -81.90185547 45.06762695 C-76.6476602 42.12685512 -71.39071237 39.19114444 -66.12963867 36.26269531 C-54.67930256 29.88160655 -43.3002611 23.39812105 -31.99584961 16.76171875 C-25.00728655 12.66658413 -17.9665993 8.67951547 -10.86425781 4.78515625 C-1.82588413 -0.17590902 -1.82588413 -0.17590902 0 0 Z " fill="#EEF5F7" transform="translate(526.422607421875,193.2333984375)"/>
<path d="M0 0 C2.5536046 0.75952623 4.5280471 1.678427 6.81567383 3.03222656 C7.62327148 3.50337891 8.43086914 3.97453125 9.26293945 4.45996094 C10.56328125 5.23049805 10.56328125 5.23049805 11.88989258 6.01660156 C19.71417677 10.57481069 27.59775613 14.98621558 35.57739258 19.26660156 C43.97999927 23.78607359 52.30460587 28.41741746 60.57348633 33.17675781 C67.37939731 37.0922066 74.22157211 40.93928254 81.07739258 44.76660156 C91.32001809 50.4894134 101.52064222 56.28108899 111.69848633 62.11816406 C114.88490339 63.94267967 118.07465203 65.76128005 121.26489258 67.57910156 C133.37773436 74.48294652 145.46324442 81.42871802 157.49414062 88.47485352 C165.19948315 92.98074144 172.94573812 97.41247918 180.70239258 101.82910156 C189.97164436 107.1078667 199.19277341 112.45977676 208.36230469 117.91015625 C215.29605216 122.0260621 222.27349067 126.0620318 229.26489258 130.07910156 C239.43740013 135.92652985 249.55111596 141.86454188 259.62890625 147.87329102 C261.16381714 148.78727661 261.16381714 148.78727661 262.72973633 149.71972656 C264.21748707 150.6602174 264.21748707 150.6602174 265.73529339 151.61970806 C268.52073293 153.28751765 271.26421326 154.41286267 274.3265276 155.48175526 C279.89380785 157.64988746 284.76233989 160.04693503 288.57739258 164.76660156 C291.94229713 173.68051478 291.02846673 183.953167 290.78263938 193.35070908 C290.70017494 197.30622087 290.7283818 201.26118548 290.74278259 205.21731567 C290.75272122 212.0622901 290.69338874 218.90381009 290.58626366 225.74791527 C290.43149213 235.64256936 290.38233278 245.53556216 290.35849182 255.43129543 C290.31696113 271.48745079 290.19066987 287.54176666 290.01074219 303.59692383 C289.83619793 319.18797636 289.70178056 334.77852834 289.62109375 350.37036133 C289.616102 351.33227094 289.61111026 352.29418055 289.60596725 353.28523894 C289.58117058 358.11111384 289.55716036 362.93699227 289.53354108 367.76287305 C289.3367404 407.76540354 289.00224258 447.76588089 288.57739258 487.76660156 C285.07272442 489.78979294 281.56789972 491.81271286 278.0629425 493.83540344 C276.87574747 494.52057428 275.68859198 495.20581364 274.5014801 495.89112854 C261.84297778 503.19870554 249.15435233 510.45285045 236.45239258 517.68457031 C227.21191997 522.95000816 218.00303619 528.26390765 208.82739258 533.64160156 C199.43211287 539.14592223 189.95915892 544.49757884 180.44604492 549.79516602 C173.89617962 553.4489059 167.40531592 557.18383294 160.95751953 561.01416016 C153.16947377 565.62756264 145.27188056 570.04602557 137.38598633 574.48925781 C132.04308239 577.50032733 126.7132561 580.53364243 121.38989258 583.57910156 C120.5468457 584.06121094 119.70379883 584.54332031 118.83520508 585.04003906 C115.00218733 587.23277581 111.17002391 589.42699781 107.33862305 591.62255859 C92.79392736 599.95664639 78.21918923 608.23047193 63.58520508 616.40722656 C48.13702232 625.03988815 32.75517171 633.78373537 17.44287109 642.6550293 C15.42100819 643.82551462 13.39601066 644.99060749 11.36743164 646.14941406 C9.55977848 647.19718222 7.76844428 648.27384063 5.99829102 649.38378906 C0.27401703 652.88025027 0.27401703 652.88025027 -3.00854492 652.34472656 C-4.20350586 651.56355469 -4.20350586 651.56355469 -5.42260742 650.76660156 C-6.6202753 650.11032634 -7.82110599 649.45980675 -9.02416992 648.81347656 C-10.36696666 648.05075072 -11.70804856 647.2849998 -13.04760742 646.51660156 C-14.46655377 645.71004087 -15.88582647 644.90405403 -17.30541992 644.09863281 C-18.00054687 643.70369629 -18.69567383 643.30875977 -19.41186523 642.90185547 C-23.71930755 640.46989738 -28.07068619 638.11774545 -32.42260742 635.76660156 C-32.42260742 635.10660156 -32.42260742 634.44660156 -32.42260742 633.76660156 C-32.98761963 633.65050537 -33.55263184 633.53440918 -34.13476562 633.41479492 C-36.6732439 632.69559101 -38.71400018 631.66228622 -41.02807617 630.39550781 C-42.3657605 629.66581787 -42.3657605 629.66581787 -43.73046875 628.92138672 C-44.68074951 628.39593262 -45.63103027 627.87047852 -46.61010742 627.32910156 C-47.59970459 626.78560059 -48.58930176 626.24209961 -49.60888672 625.68212891 C-56.05514697 622.12417204 -62.42725232 618.45972589 -68.7512207 614.68969727 C-74.93289377 611.01775174 -81.20284375 607.51304766 -87.48510742 604.01660156 C-96.90431375 598.77054265 -106.24295815 593.40310329 -115.54199219 587.94726562 C-122.2997042 583.98834731 -129.09545173 580.10440008 -135.92260742 576.26660156 C-144.76827202 571.294124 -153.5406452 566.2068823 -162.29272461 561.07177734 C-169.53551372 556.83527396 -176.8385417 552.71770582 -184.17260742 548.64160156 C-192.53322548 543.99266534 -200.78357334 539.20417286 -208.95996094 534.23925781 C-216.24508971 529.83139955 -223.64748266 525.64658628 -231.07202148 521.47900391 C-236.68591003 518.32438023 -242.263009 515.12065967 -247.79760742 511.82910156 C-255.89505863 507.01830985 -264.11213458 502.42703032 -272.34399414 497.85083008 C-274.3028536 496.76049179 -276.25477013 495.65754003 -278.19788241 494.53937966 C-281.36770008 492.73746179 -281.36770008 492.73746179 -284.58700871 491.36187643 C-292.74548642 487.46125418 -292.74548642 487.46125418 -294.52002096 483.02006924 C-294.94166174 479.54163838 -294.96532001 476.24131959 -294.86566162 472.73841858 C-294.87591472 471.4216173 -294.88616782 470.10481602 -294.89673162 468.74811167 C-294.92351388 465.10242625 -294.87566423 461.46098666 -294.81539488 457.81584251 C-294.76350067 453.88205437 -294.78111448 449.94849954 -294.79022217 446.01446533 C-294.79651027 439.20193422 -294.75890993 432.39078372 -294.6913681 425.57859993 C-294.59378047 415.72961556 -294.56258499 405.88129777 -294.5475122 396.03188234 C-294.52125793 380.05171965 -294.44142549 364.07229261 -294.32788086 348.0925293 C-294.21770759 332.57108233 -294.1327793 317.04983528 -294.08178711 301.52807617 C-294.07863443 300.57108966 -294.07548175 299.61410314 -294.07223353 298.62811703 C-294.05657291 293.82712586 -294.04140846 289.02613327 -294.02649069 284.22513974 C-293.90211911 244.40511195 -293.6907879 204.58590533 -293.42260742 164.76660156 C-292.69914124 164.37981232 -291.97567505 163.99302307 -291.23028564 163.59451294 C-288.48162033 162.12361103 -285.73404034 160.65070489 -282.98712158 159.17654419 C-281.2393649 158.23933317 -279.49042727 157.30432549 -277.74145508 156.36938477 C-270.12476124 152.27953957 -262.61722895 148.03638253 -255.17260742 143.64160156 C-247.65764619 139.21260596 -240.10194329 134.90459647 -232.42260742 130.76660156 C-223.77677996 126.10209942 -215.27150611 121.23163624 -206.80102539 116.2565918 C-199.0815602 111.72463428 -191.32478884 107.26102263 -183.54760742 102.82910156 C-174.38559689 97.60674453 -165.23923572 92.35885245 -156.11010742 87.07910156 C-145.1919502 80.7688785 -134.22842545 74.54271916 -123.24047852 68.35498047 C-120.41012617 66.75956613 -117.58200526 65.16026934 -114.75463867 63.55957031 C-104.8646513 57.96058458 -94.9642638 52.38073068 -85.04760742 46.82910156 C-84.00950928 46.24781494 -82.97141113 45.66652832 -81.90185547 45.06762695 C-76.6476602 42.12685512 -71.39071237 39.19114444 -66.12963867 36.26269531 C-54.67930256 29.88160655 -43.3002611 23.39812105 -31.99584961 16.76171875 C-25.00728655 12.66658413 -17.9665993 8.67951547 -10.86425781 4.78515625 C-1.82588413 -0.17590902 -1.82588413 -0.17590902 0 0 Z M3.57739258 51.76660156 C3.14352678 58.54114664 2.84762817 65.31208878 2.64355469 72.09741211 C2.55845745 74.40020477 2.44271826 76.70208906 2.29492188 79.00170898 C1.04499772 91.51804062 1.04499772 91.51804062 5.17193604 102.85394287 C9.11354336 106.36170299 13.53639341 108.63668789 18.34841919 110.72860718 C21.40297482 112.15106095 24.14692134 113.95557498 26.94615173 115.82185364 C28.55166291 116.93365939 28.55166291 116.93365939 30.57739258 116.76660156 C30.57739258 129.63660156 30.57739258 142.50660156 30.57739258 155.76660156 C28.92739258 156.42660156 27.27739258 157.08660156 25.57739258 157.76660156 C24.20556795 158.4957433 22.84933524 159.25503931 21.51098633 160.04394531 C20.7781543 160.47513672 20.04532227 160.90632813 19.2902832 161.35058594 C18.5394043 161.79724609 17.78852539 162.24390625 17.01489258 162.70410156 C16.26014648 163.14689453 15.50540039 163.5896875 14.7277832 164.04589844 C11.63315024 165.87446419 11.63315024 165.87446419 8.57739258 167.76660156 C7.88775421 168.19187637 7.19811584 168.61715118 6.48757935 169.05531311 C4.40412916 170.59320761 4.40412916 170.59320761 4.07859802 172.89147949 C4.07876419 173.71071899 4.07893036 174.5299585 4.07910156 175.37402344 C4.06906601 176.30508911 4.05903046 177.23615479 4.0486908 178.19543457 C4.05687332 179.19860718 4.06505585 180.20177979 4.07348633 181.23535156 C4.06406509 182.26720581 4.05464386 183.29906006 4.04493713 184.36218262 C4.01621023 187.66385683 4.01321216 190.96481222 4.01489258 194.26660156 C4.01129179 197.56828606 4.00183255 200.86944615 3.97413635 204.17102051 C3.95727455 206.22653535 3.95452921 208.28222328 3.96714783 210.33776855 C3.96026443 211.26883423 3.95338104 212.1998999 3.94628906 213.15917969 C3.94725082 213.97841919 3.94821259 214.79765869 3.94920349 215.64172363 C3.48293382 218.3064279 2.74536779 219.18203211 0.57739258 220.76660156 C-2.92260742 221.20410156 -2.92260742 221.20410156 -6.42260742 220.76660156 C-8.16430664 219.35961914 -8.16430664 219.35961914 -9.42260742 216.76660156 C-9.6212388 213.43795628 -9.31392136 210.16081566 -9.05541992 206.84082031 C-6.75087994 186.04104842 -6.75087994 186.04104842 -12.89428711 167.14941406 C-19.09453774 161.15143459 -27.3506374 158.33233489 -35.42260742 155.76660156 C-39.40544759 151.7837614 -37.57845917 136.51103129 -37.64697266 130.99902344 C-37.55394218 118.75122812 -37.55394218 118.75122812 -34.89477539 114.08642578 C-31.12279974 110.48870158 -26.81041285 109.00205045 -21.87716675 107.59120178 C-17.44169098 106.10111993 -13.70588481 104.14373505 -10.42260742 100.76660156 C-9.20502053 97.12062036 -9.36619162 93.70972143 -9.54370117 89.89941406 C-9.5564357 88.86468964 -9.56917023 87.82996521 -9.58229065 86.7638855 C-9.63253038 83.47070295 -9.7454049 80.18310704 -9.86010742 76.89160156 C-9.90526624 74.6547022 -9.94632837 72.41771612 -9.9831543 70.18066406 C-10.08218821 64.70741556 -10.23262029 59.23740754 -10.42260742 53.76660156 C-14.43337454 55.0071054 -17.97927061 56.47077109 -21.63354492 58.53222656 C-22.61863037 59.08539551 -23.60371582 59.63856445 -24.61865234 60.20849609 C-25.66770752 60.8051709 -26.7167627 61.4018457 -27.79760742 62.01660156 C-29.44950073 62.94835205 -29.44950073 62.94835205 -31.13476562 63.89892578 C-39.66604893 68.72685242 -48.12832339 73.66925022 -56.57885742 78.63671875 C-64.28172813 83.1470192 -72.07647315 87.46689781 -79.94287109 91.68505859 C-84.94744891 94.3760858 -89.84443402 97.19185136 -94.70336914 100.13720703 C-100.10075727 103.3713755 -105.58100753 106.46389098 -111.04760742 109.57910156 C-112.30642562 110.29763777 -113.56521441 111.01622549 -114.82397461 111.73486328 C-121.09309998 115.31182342 -127.37144793 118.87131964 -133.67260742 122.39160156 C-141.13021575 126.56221192 -148.50162427 130.87845823 -155.87670898 135.19287109 C-164.46521538 140.2155539 -173.08051452 145.19057397 -181.70263672 150.15527344 C-189.02163241 154.3728331 -196.32005454 158.62425354 -203.61010742 162.89160156 C-211.61906439 167.57512476 -219.65840233 172.20084854 -227.73510742 176.76660156 C-228.64736084 177.2823877 -229.55961426 177.79817383 -230.49951172 178.32958984 C-236.7775979 181.86688049 -243.09518339 185.31527937 -249.42260742 188.76660156 C-249.42260742 279.18660156 -249.42260742 369.60660156 -249.42260742 462.76660156 C-240.51260742 467.71660156 -240.51260742 467.71660156 -231.42260742 472.76660156 C-227.55875789 475.0026598 -223.70374598 477.24686673 -219.86010742 479.51660156 C-211.60095458 484.36552355 -203.29146207 489.1096915 -194.92260742 493.76660156 C-185.64668402 498.92951342 -176.45384871 504.21800771 -167.29711914 509.58911133 C-159.64238941 514.07284641 -151.934768 518.45517859 -144.20288086 522.80419922 C-136.95452451 526.88647942 -129.74618158 531.0347577 -122.54760742 535.20410156 C-114.00340476 540.15121267 -105.42332432 545.0255788 -96.79760742 549.82910156 C-87.61070365 554.94579441 -78.50962542 560.19265955 -69.44165039 565.5168457 C-61.2992861 570.28529846 -53.07724147 574.9002929 -44.83081055 579.48583984 C-36.07217249 584.36940223 -27.40811293 589.40403105 -18.7722168 594.50097656 C-17.34619141 595.34015625 -17.34619141 595.34015625 -15.89135742 596.19628906 C-14.6296875 596.94241455 -14.6296875 596.94241455 -13.3425293 597.70361328 C-11.64255562 598.84733101 -11.64255562 598.84733101 -10.42260742 598.76660156 C-6.25374486 569.85675389 -6.25374486 569.85675389 -12.6315918 542.96191406 C-17.88021987 537.92147792 -23.97399947 535.26270572 -30.97070312 533.45361328 C-33.42260742 532.76660156 -33.42260742 532.76660156 -36.42260742 530.76660156 C-37.71633941 525.13624638 -38.00423056 519.40413391 -38.23510742 513.64160156 C-38.26917694 512.8050705 -38.30324646 511.96853943 -38.33834839 511.10665894 C-38.46153157 505.59512361 -38.51185 499.94873263 -36.42260742 494.76660156 C-32.65441631 491.00923859 -28.38241132 489.28691756 -23.48510742 487.32910156 C-16.01449736 484.3252593 -16.01449736 484.3252593 -10.42260742 478.76660156 C-6.56631515 467.03760081 -8.29126196 452.66664331 -9.36451721 440.55886841 C-9.83274599 434.25989792 -9.83274599 434.25989792 -7.66821289 431.65649414 C-4.3226742 430.33071805 -1.86310476 430.93833369 1.57739258 431.76660156 C3.57739258 433.76660156 3.57739258 433.76660156 3.76165771 435.65492249 C3.73275452 436.42275558 3.70385132 437.19058868 3.67407227 437.98168945 C3.63609528 439.28928978 3.63609528 439.28928978 3.59735107 440.62330627 C3.54879974 442.04195229 3.54879974 442.04195229 3.49926758 443.48925781 C3.47082762 445.4924639 3.44621227 447.49572726 3.42504883 449.49902344 C3.38634698 452.65959244 3.32802598 455.81298982 3.20385742 458.97143555 C2.30177912 470.28824823 2.30177912 470.28824823 5.91906738 480.5819397 C9.67001366 483.97753099 13.95727684 485.81760838 18.57739258 487.76660156 C20.51423931 488.92089446 22.43591756 490.10187314 24.32739258 491.32910156 C27.25561552 493.25177512 27.25561552 493.25177512 30.57739258 493.76660156 C33.48311933 525.51608386 33.48311933 525.51608386 27.19067383 533.97509766 C21.43473718 538.89303764 14.90342434 542.12288684 7.87817383 544.86328125 C5.64929358 545.56144121 5.64929358 545.56144121 4.57739258 546.76660156 C4.48386095 548.45462141 4.45994467 550.14655364 4.46386719 551.8371582 C4.46394272 552.91820328 4.46401825 553.99924835 4.46409607 555.11305237 C4.46925735 556.28907516 4.47441864 557.46509796 4.47973633 558.67675781 C4.48115128 559.87392929 4.48256622 561.07110077 4.48402405 562.30455017 C4.48964279 566.14609222 4.50219847 569.98757699 4.51489258 573.82910156 C4.51990516 576.42610593 4.52446849 579.02311121 4.52856445 581.62011719 C4.5396183 588.00229835 4.55637466 594.38444586 4.57739258 600.76660156 C12.17598075 597.00660704 19.75180383 593.2423955 27.13989258 589.07910156 C27.88327881 588.66321777 28.62666504 588.24733398 29.39257812 587.81884766 C37.93704807 583.02657994 46.43646513 578.15466705 54.93481445 573.28125 C59.16732574 570.85529841 63.40375053 568.43620565 67.63989258 566.01660156 C69.38079835 565.02184552 71.12168313 564.02705273 72.86254883 563.03222656 C75.87150065 561.31282552 78.88045247 559.59342448 81.8894043 557.87402344 C82.74680962 557.38407646 82.74680962 557.38407646 83.62153625 556.88423157 C84.80218764 556.20957509 85.98284155 555.53492302 87.16349792 554.86027527 C90.17839351 553.13750345 93.19324509 551.41465471 96.20800781 549.69165039 C101.50988473 546.66160157 106.81207065 543.63210354 112.11645508 540.60644531 C129.01581597 530.96478357 145.88946433 521.27762055 162.67602539 511.44067383 C171.94314146 506.0109377 181.25580702 500.67937905 190.63989258 495.45410156 C197.15137041 491.82826879 203.63915264 488.18924343 210.01489258 484.32910156 C221.10252486 477.63986887 232.36099413 471.23760067 243.57739258 464.76660156 C243.57739258 373.35660156 243.57739258 281.94660156 243.57739258 187.76660156 C236.97739258 184.13660156 230.37739258 180.50660156 223.57739258 176.76660156 C219.97657526 174.683543 216.39236717 172.5947607 212.82739258 170.45410156 C210.97620036 169.35191692 209.12462362 168.25037788 207.27270508 167.14941406 C206.33974609 166.59415039 205.40678711 166.03888672 204.44555664 165.46679688 C199.5458822 162.56235929 194.62432897 159.69560086 189.70239258 156.82910156 C188.70715576 156.24942627 187.71191895 155.66975098 186.68652344 155.07250977 C184.66534383 153.89540371 182.6441034 152.71840208 180.62280273 151.54150391 C177.5682538 149.76127537 174.51586095 147.97740524 171.46411133 146.19238281 C161.17077735 140.17376326 150.85713599 134.19556874 140.49487305 128.29638672 C133.97588476 124.5798169 127.49116026 120.80704324 121.01489258 117.01660156 C108.67146331 109.79574068 96.25683461 102.70240607 83.83227539 95.62255859 C80.86815096 93.93239403 77.90580409 92.23918497 74.94458008 90.54394531 C64.13523692 84.35583505 53.30421839 78.2071495 42.45629883 72.08691406 C38.39775524 69.79677974 34.3436383 67.49903307 30.29223633 65.19628906 C29.26211426 64.61161865 28.23199219 64.02694824 27.1706543 63.42456055 C25.20914021 62.31107659 23.24847088 61.19610264 21.28881836 60.0793457 C12.84165411 54.52123581 12.84165411 54.52123581 3.57739258 51.76660156 Z " fill="#041A2B" transform="translate(526.422607421875,193.2333984375)"/>
<path d="M0 0 C6.75466999 2.25155666 6.75466999 2.25155666 9.6796875 3.890625 C10.34871094 4.26316406 11.01773437 4.63570313 11.70703125 5.01953125 C12.42246094 5.42558594 13.13789063 5.83164062 13.875 6.25 C14.64457031 6.68183594 15.41414063 7.11367188 16.20703125 7.55859375 C23.89289777 11.89327677 31.50108647 16.36204882 39.11279297 20.82519531 C45.73942914 24.70415052 52.41182925 28.4799582 59.14160156 32.17626953 C65.40867196 35.6344944 71.57860418 39.24942168 77.75 42.875 C85.86413307 47.6182766 93.98906718 52.34115919 102.1875 56.9375 C103.10176758 57.4639209 104.01603516 57.9903418 104.95800781 58.53271484 C105.81104492 59.00531738 106.66408203 59.47791992 107.54296875 59.96484375 C108.6570813 60.59314087 108.6570813 60.59314087 109.79370117 61.23413086 C112.61226933 62.21253612 114.17040336 61.86379549 117 61 C119.54053818 59.62134618 121.98196104 58.20327193 124.4375 56.6875 C131.11939886 52.65754389 137.88343327 48.83124759 144.75 45.125 C153.79530983 40.23042655 162.74270766 35.18559 171.66015625 30.0625 C178.16551057 26.3252538 184.6967932 22.63422037 191.23364258 18.95239258 C196.29891243 16.09831362 201.35268342 13.22631169 206.390625 10.32421875 C207.43428223 9.72601318 208.47793945 9.12780762 209.55322266 8.51147461 C211.55611745 7.36293814 213.55595652 6.20905137 215.55224609 5.04907227 C216.45539551 4.53272217 217.35854492 4.01637207 218.2890625 3.484375 C219.08006348 3.02772461 219.87106445 2.57107422 220.68603516 2.10058594 C223 1 223 1 228 0 C228 58.74 228 117.48 228 178 C212.16 178 196.32 178 180 178 C180 146.32 180 114.64 180 82 C170.18607416 86.90696292 160.53832962 91.8124851 151 97.1875 C149.26422416 98.15507027 147.52844102 99.12262783 145.79214478 100.08926392 C141.694265 102.37128455 137.59974235 104.6589798 133.51660156 106.96728516 C130.22628502 108.82414523 126.9266574 110.66340224 123.625 112.5 C122.62726563 113.07000732 121.62953125 113.64001465 120.6015625 114.22729492 C119.6734375 114.7401001 118.7453125 115.25290527 117.7890625 115.78125 C116.98162598 116.23564453 116.17418945 116.69003906 115.34228516 117.15820312 C111.81408463 118.42620765 109.39051792 117.62232118 106.04980469 116.12719727 C105.43008789 115.77713623 104.81037109 115.4270752 104.171875 115.06640625 C103.46409912 114.6703418 102.75632324 114.27427734 102.02709961 113.86621094 C101.27565674 113.43598633 100.52421387 113.00576172 99.75 112.5625 C98.95279541 112.11293945 98.15559082 111.66337891 97.33422852 111.20019531 C92.16765885 108.27412305 87.04734435 105.27378424 81.9375 102.25 C70.72347753 95.66274204 59.34748557 89.35459192 48 83 C48 114.35 48 145.7 48 178 C32.16 178 16.32 178 0 178 C0 119.26 0 60.52 0 0 Z " fill="#041A2B" transform="translate(325,430)"/>
<path d="M0 0 C16.83 0 33.66 0 51 0 C51 42.57 51 85.14 51 129 C77.07 129 103.14 129 130 129 C130 144.51 130 160.02 130 176 C87.1 176 44.2 176 0 176 C0 117.92 0 59.84 0 0 Z " fill="#041A2A" transform="translate(596,432)"/>
<path d="M0 0 C4.10656865 1.5086543 7.5170133 3.88366521 11.12890625 6.32421875 C12.59385212 7.30128071 14.05998536 8.27656493 15.52734375 9.25 C16.49293213 9.90029175 16.49293213 9.90029175 17.47802734 10.5637207 C20.50971318 12.49259098 23.62507276 14.24475643 26.75390625 16.01171875 C29.62364685 45.61419677 29.62364685 45.61419677 25.01953125 52.66943359 C20.8203346 56.44145133 15.98715265 58.62999096 10.63330078 60.31445312 C8.54817964 60.9394502 8.54817964 60.9394502 6.75390625 63.01171875 C4.93907405 70.17176075 4.17454727 79.01427531 6.75390625 86.01171875 C9.72548047 88.66243948 13.09829446 90.00246341 16.75390625 91.51171875 C20.66548288 93.21795544 23.83875683 94.85225204 26.75390625 98.01171875 C30.41397293 107.5729391 30.2587337 119.42644242 26.75390625 129.01171875 C22.2517308 134.83799727 15.86227413 137.54832702 9.10839844 140.05224609 C6.91096659 140.94771552 5.25180593 141.93850328 3.35546875 143.34375 C0.75390625 145.01171875 0.75390625 145.01171875 -1.04248047 144.7590332 C-10.8333524 141.43864112 -21.57197864 137.180792 -28.24609375 129.01171875 C-31.34471345 119.05437115 -29.79007768 108.16020633 -28.24609375 98.01171875 C-27.30507813 97.480625 -26.3640625 96.94953125 -25.39453125 96.40234375 C-24.13665203 95.68891971 -22.87884328 94.9753714 -21.62109375 94.26171875 C-21.00363281 93.91367187 -20.38617188 93.565625 -19.75 93.20703125 C-18.50855483 92.50136768 -17.27584698 91.78011653 -16.05224609 91.04394531 C-14.24609375 90.01171875 -14.24609375 90.01171875 -10.80859375 88.51171875 C-7.71665762 85.49519569 -7.82330509 84.56768159 -7.66015625 80.37109375 C-7.69998553 78.1672069 -7.77146756 75.9637129 -7.87109375 73.76171875 C-7.89816406 72.63507813 -7.92523438 71.5084375 -7.953125 70.34765625 C-8.02381771 67.56707638 -8.12244335 64.79036516 -8.24609375 62.01171875 C-10.44120689 60.61045475 -12.6479033 59.24210448 -14.87109375 57.88671875 C-15.48855469 57.48839844 -16.10601562 57.09007812 -16.7421875 56.6796875 C-19.85090383 54.8144577 -21.51889302 53.8303829 -25.11376953 54.72680664 C-28.20528378 55.99497807 -31.083272 57.40782625 -34.01171875 59.015625 C-35.06617188 59.59119141 -36.120625 60.16675781 -37.20703125 60.75976562 C-38.83511719 61.65791992 -38.83511719 61.65791992 -40.49609375 62.57421875 C-42.66791224 63.76312407 -44.83978446 64.95193124 -47.01171875 66.140625 C-47.96852539 66.6672876 -48.92533203 67.1939502 -49.91113281 67.73657227 C-51.34338447 68.51873981 -52.7864689 69.28190633 -54.24609375 70.01171875 C-54.05144531 71.07648438 -53.85679687 72.14125 -53.65625 73.23828125 C-53.13590809 78.15224243 -52.98558093 82.5067318 -55.24609375 87.01171875 C-61.77542278 93.3631563 -72.94517832 101.01171875 -82.24609375 101.01171875 C-84.61206055 99.83422852 -84.61206055 99.83422852 -87.1953125 98.203125 C-88.12537109 97.62111328 -89.05542969 97.03910156 -90.01367188 96.43945312 C-91.4590332 95.51616211 -91.4590332 95.51616211 -92.93359375 94.57421875 C-93.90876953 93.96255859 -94.88394531 93.35089844 -95.88867188 92.72070312 C-103.04244008 88.21537242 -103.04244008 88.21537242 -104.24609375 87.01171875 C-104.33367378 85.01206893 -104.35305951 83.00935765 -104.34375 81.0078125 C-104.34052734 79.79287109 -104.33730469 78.57792969 -104.33398438 77.32617188 C-104.32560547 76.04677734 -104.31722656 74.76738281 -104.30859375 73.44921875 C-104.30408203 72.16595703 -104.29957031 70.88269531 -104.29492188 69.56054688 C-104.2830892 66.37755853 -104.26660443 63.19466113 -104.24609375 60.01171875 C-103.52599121 59.63080078 -102.80588867 59.24988281 -102.06396484 58.85742188 C-95.62463209 55.4067408 -89.82851101 51.71184587 -83.97265625 47.35546875 C-81.24609375 46.01171875 -81.24609375 46.01171875 -78.828125 46.52734375 C-74.99246389 48.73241368 -71.20805121 51.01873684 -67.50585938 53.44140625 C-64.56690616 55.22726197 -62.83467677 56.10753459 -59.390625 55.546875 C-55.18108868 53.4917846 -51.00387195 51.40531655 -46.87109375 49.19921875 C-46.05898438 48.77318359 -45.246875 48.34714844 -44.41015625 47.90820312 C-42.79395579 47.0521867 -41.18719736 46.1780841 -39.59082031 45.28564453 C-37.24609375 44.01171875 -37.24609375 44.01171875 -34.86230469 42.96826172 C-32.54265701 41.84112336 -30.95500279 40.94997069 -29.24609375 39.01171875 C-28.52399937 35.22629855 -28.94423334 31.583471 -29.24609375 27.76171875 C-29.47216751 17.59706455 -29.47216751 17.59706455 -26.82470703 14.17382812 C-23.04329768 11.21508021 -18.7143217 9.54027842 -14.25195312 7.86035156 C-10.50841243 6.27654588 -7.50953293 3.64679447 -4.359375 1.12890625 C-2.24609375 0.01171875 -2.24609375 0.01171875 0 0 Z " fill="#894C32" transform="translate(434.24609375,315.98828125)"/>
<path d="M0 0 C0.89525391 0.58394531 0.89525391 0.58394531 1.80859375 1.1796875 C2.67613281 1.73914063 3.54367187 2.29859375 4.4375 2.875 C5.42363281 3.53371094 6.40976562 4.19242187 7.42578125 4.87109375 C10.02402509 6.5181212 12.62538771 7.70743658 15.48046875 8.84765625 C25.02089978 12.96565467 25.02089978 12.96565467 28 17 C28.76675415 20.99086183 28.46838594 24.83749514 28.1875 28.875 C27.90234823 33.12253281 27.74179985 36.90229899 29 41 C34.12114737 46.54780806 41.47972003 49.32623762 48.42871094 51.9387207 C51 53 51 53 53.64990234 54.60229492 C56.75163893 56.44703229 58.43195088 56.49828117 62 56 C64.51210866 54.74674312 66.77343982 53.49690712 69.125 52 C75.48986486 48 75.48986486 48 80 48 C82.25830078 49.08569336 82.25830078 49.08569336 84.6953125 50.58984375 C86.01595703 51.39518555 86.01595703 51.39518555 87.36328125 52.21679688 C88.27464844 52.78462891 89.18601562 53.35246094 90.125 53.9375 C91.93989254 55.05112621 93.75498678 56.1644238 95.5703125 57.27734375 C96.37227051 57.77484131 97.17422852 58.27233887 98.00048828 58.78491211 C99.96969174 60.01914402 99.96969174 60.01914402 102 61 C102 70.24 102 79.48 102 89 C95.5625 92.625 95.5625 92.625 93.45751953 93.80859375 C89.06230147 96.31249187 84.95797877 99.04862647 80.96484375 102.1640625 C79 103 79 103 76.72265625 102.42578125 C73.23153368 100.59757502 69.85936196 98.62135649 66.5 96.5625 C65.84902344 96.16740234 65.19804688 95.77230469 64.52734375 95.36523438 C63.2591492 94.59535061 61.99635664 93.81648174 60.73974609 93.02783203 C58.84215356 91.85683467 58.84215356 91.85683467 56.0078125 90.71484375 C55.34523438 90.14894531 54.68265625 89.58304687 54 89 C53.9609375 85.375 53.9609375 85.375 54.17211914 83.24926758 C54.53029614 79.27828716 54.53941302 75.72677351 53 72 C48.44252393 67.32154038 42.16288855 64.77461857 36.30029297 62.09863281 C32.62805237 60.34475013 29.35195541 58.03188075 26.0078125 55.73046875 C23.94813836 54.76194711 23.94813836 54.76194711 21.56640625 55.66796875 C17.99378281 57.52225276 14.61585275 59.62154955 11.20703125 61.7578125 C9 63 9 63 7 63 C7.00523682 64.05501709 7.01047363 65.11003418 7.01586914 66.19702148 C7.03391901 70.0975663 7.04543195 73.9981074 7.05493164 77.89868164 C7.0599719 79.58944316 7.06680405 81.28020029 7.07543945 82.97094727 C7.08751857 85.39600707 7.09323123 87.82100944 7.09765625 90.24609375 C7.10281754 91.00651474 7.10797882 91.76693573 7.11329651 92.55039978 C7.11349238 94.3673257 7.06197277 96.18413127 7 98 C6 99 6 99 3.53125 99.1328125 C2.03078125 99.12894531 2.03078125 99.12894531 0.5 99.125 C-0.5003125 99.12757813 -1.500625 99.13015625 -2.53125 99.1328125 C-5 99 -5 99 -6 98 C-6.06113358 95.55103848 -6.06367574 93.12405563 -6.03515625 90.67578125 C-6.03887158 89.15689428 -6.04480291 87.63801143 -6.05273438 86.11914062 C-6.06326785 83.7197139 -6.06267249 81.3232484 -6.02416992 78.92407227 C-5.58493323 69.99945964 -5.58493323 69.99945964 -8.42138672 61.86083984 C-10.53595111 60.24414184 -12.58823572 59.13095602 -15 58 C-19.57945944 55.81438894 -23.52626158 53.74863858 -27 50 C-28.4758173 44.25904065 -28.14665789 38.86879042 -27.75 33 C-27.68972643 31.4468213 -27.63498739 29.8934174 -27.5859375 28.33984375 C-27.45443719 24.554285 -27.24799131 20.77964199 -27 17 C-25.97261719 16.443125 -24.94523438 15.88625 -23.88671875 15.3125 C-15.47568761 10.69924465 -7.58800646 5.89999655 0 0 Z " fill="#CF772A" transform="translate(609,315)"/>
<path d="M0 0 C1.65310887 1.06214241 3.30580936 2.1250356 4.94824219 3.20361328 C8.31646313 5.38580062 11.47255551 6.86478537 15.234375 8.203125 C17.4609375 9.3515625 17.4609375 9.3515625 18.984375 11.328125 C18.96369062 13.36760492 18.92821794 15.4093988 18.77685547 17.44335938 C18.47838811 21.69325618 18.2268416 25.36010317 19.984375 29.328125 C25.6803594 34.7320739 33.19468043 37.8695157 40.27758789 41.06982422 C42.62884695 42.16285112 44.8277804 43.34303069 47.05078125 44.671875 C49.83204465 46.53387748 49.83204465 46.53387748 52.796875 46.453125 C53.84875 46.081875 54.900625 45.710625 55.984375 45.328125 C57.20495605 44.96666382 57.20495605 44.96666382 58.45019531 44.59790039 C61.77055348 43.22047908 63.62243712 42.07184106 65.984375 39.328125 C67.80374909 33.04930298 67.10915261 26.10083806 66.921875 19.640625 C66.88076912 16.92980068 66.85377227 14.21969767 66.84169006 11.5085907 C66.83023607 9.82557334 66.79984588 8.14255492 66.7485199 6.46028137 C66.65461078 0.7335675 66.65461078 0.7335675 68.38038635 -1.38825989 C70.3827277 -2.99066251 71.44723065 -3.04684257 73.984375 -2.984375 C75.0053125 -2.97857422 75.0053125 -2.97857422 76.046875 -2.97265625 C77.984375 -2.671875 77.984375 -2.671875 80.984375 -0.671875 C81.08709341 2.23911864 81.01717444 4.95649053 80.828125 7.8515625 C79.03092245 25.63997288 79.03092245 25.63997288 83.88330078 41.92431641 C87.14568212 44.25477953 90.48151105 45.600859 94.19824219 47.04785156 C96.91148824 48.26015299 98.84295476 49.25411682 100.984375 51.328125 C104.39789972 60.3116099 104.10830328 71.29221583 100.984375 80.328125 C97.26923216 85.42727426 91.84446994 87.48413827 86.05712891 89.52099609 C82.53420037 90.89282198 79.78907155 93.25005746 76.84375 95.5625 C74.984375 96.328125 74.984375 96.328125 72.7734375 95.77734375 C68.19541401 93.39856684 63.80736747 90.72456566 59.3984375 88.04882812 C55.02726582 85.43002795 50.71772033 83.22021423 45.984375 81.328125 C46.190625 80.04679688 46.396875 78.76546875 46.609375 77.4453125 C47.1465288 71.79397262 47.41263389 66.57806977 44.984375 61.328125 C38.36002338 54.79914833 29.34422112 51.14125083 20.984375 47.328125 C19.92492676 46.77729248 18.86547852 46.22645996 17.77392578 45.65893555 C15.13320103 44.14186506 15.13320103 44.14186506 12.55078125 44.3828125 C8.40954371 45.90819985 4.78469505 48.27929319 1.06835938 50.62109375 C-3.53608679 53.39869479 -3.53608679 53.39869479 -5.89526367 53.05151367 C-14.70403933 50.04628601 -23.7859003 46.50452355 -30.015625 39.328125 C-33.4978013 31.41431216 -33.38303501 22.84622147 -31.39013672 14.53417969 C-27.6987643 5.92403712 -18.7183072 1.8032368 -10.6027832 -1.94458008 C-6.34585456 -3.14127635 -3.78584418 -2.09888771 0 0 Z " fill="#031B2D" transform="translate(360.015625,625.671875)"/>
<path d="M0 0 C2.32104492 0.82055664 2.32104492 0.82055664 5 2 C5.79317627 2.29704834 6.58635254 2.59409668 7.40356445 2.90014648 C14.0015998 5.50465136 20.41455805 8.43294398 25 14 C28.35117344 22.4734475 28.16609941 32.48873852 25 41 C21.20816289 46.12048613 15.84790454 48.69806135 10.06933594 51.06982422 C7.70194395 52.05245869 7.70194395 52.05245869 4.7578125 54.31640625 C2 56 2 56 -0.46484375 56.0078125 C-4.40836933 54.44012436 -7.7875548 52.08804826 -11.27148438 49.70703125 C-14.4309686 47.57664588 -14.4309686 47.57664588 -18.10546875 47.1015625 C-20.36591709 48.17352769 -22.56500222 49.27857267 -24.75 50.5 C-25.70390625 51.02980469 -26.6578125 51.55960938 -27.640625 52.10546875 C-30.15257383 53.52209106 -32.66283292 54.94152879 -35.171875 56.36328125 C-35.88762695 56.76804687 -36.60337891 57.1728125 -37.34082031 57.58984375 C-38.76368169 58.39555268 -40.18495034 59.20408182 -41.60449219 60.015625 C-44.37871096 61.58999756 -46.96559012 62.98853004 -50 64 C-49.84337891 65.84464844 -49.84337891 65.84464844 -49.68359375 67.7265625 C-48.91362657 80.37043985 -48.91362657 80.37043985 -51.4765625 84.21484375 C-53.89785504 85.77916196 -56.35336939 86.85335768 -59 88 C-61.64222581 89.52160129 -64.22137508 91.1433326 -66.8125 92.75 C-70.47677984 94.96264547 -74.12730503 97.16607895 -78 99 C-78.91845703 98.14921875 -78.91845703 98.14921875 -79.85546875 97.28125 C-82.61845406 95.27679854 -84.74299457 94.21331553 -87.86328125 92.96875 C-93.6485256 90.46996885 -98.92956007 87.94195488 -103 83 C-106.48160304 74.2200653 -106.38775889 63.79793651 -103 55 C-98.68813997 49.45504556 -92.63214566 46.63560898 -86.26074219 44.0078125 C-84.15295961 43.06818761 -82.4803236 42.02357099 -80.6328125 40.65625 C-78 39 -78 39 -76.04956055 39.26513672 C-73.98013234 40.00712349 -72.39555017 40.87795728 -70.57421875 42.1015625 C-69.94193359 42.50890625 -69.30964844 42.91625 -68.65820312 43.3359375 C-67.3489844 44.19231446 -66.04676124 45.05948683 -64.75195312 45.9375 C-64.11580078 46.34226562 -63.47964844 46.74703125 -62.82421875 47.1640625 C-62.25791748 47.53998535 -61.69161621 47.9159082 -61.1081543 48.30322266 C-56.82892001 49.71757525 -52.94035159 48.42255446 -48.95800781 46.63305664 C-47.96639648 46.06449951 -46.97478516 45.49594238 -45.953125 44.91015625 C-44.86128906 44.29076172 -43.76945313 43.67136719 -42.64453125 43.03320312 C-41.52433594 42.38287109 -40.40414062 41.73253906 -39.25 41.0625 C-38.11433594 40.41603516 -36.97867188 39.76957031 -35.80859375 39.10351562 C-29.82108372 35.68729665 -29.82108372 35.68729665 -24 32 C-24.12170891 30.02537792 -24.25351998 28.05062265 -24.44750977 26.08178711 C-24.7681624 21.75628452 -24.77555412 18.02157566 -23 14 C-17.22454066 8.11108193 -9.3674386 4.51763448 -2 1 C-1.34 0.67 -0.68 0.34 0 0 Z " fill="#084568" transform="translate(686,623)"/>
<path d="M0 0 C0.33 0 0.66 0 1 0 C1 1.98 1 3.96 1 6 C4.3 5.67 7.6 5.34 11 5 C11 3.35 11 1.7 11 0 C11.33 0 11.66 0 12 0 C11.95544678 0.73895508 11.91089355 1.47791016 11.86499023 2.23925781 C11.87151117 5.40582251 12.05657899 7.97023991 13 11 C16.00798073 13.35596395 19.51520958 14.39368307 23.0625 15.75 C28.3986937 18.31720243 32.12830429 20.67861815 34.26513672 26.36914062 C36.07368218 35.54047044 36.24206858 45.13333719 33 54 C28.49782455 59.82627852 22.10836788 62.53660827 15.35449219 65.04052734 C13.15706034 65.93599677 11.49789968 66.92678453 9.6015625 68.33203125 C7 70 7 70 5.20361328 69.74731445 C-4.58725865 66.42692237 -15.32588489 62.16907325 -22 54 C-25.0986197 44.0426524 -23.54398393 33.14848758 -22 23 C-21.05898438 22.46890625 -20.11796875 21.9378125 -19.1484375 21.390625 C-17.89055828 20.67720096 -16.63274953 19.96365265 -15.375 19.25 C-14.75753906 18.90195312 -14.14007813 18.55390625 -13.50390625 18.1953125 C-10.47612553 16.47425819 -7.53236215 14.71167093 -4.6640625 12.734375 C-2 11 -2 11 0 11 C0 7.37 0 3.74 0 0 Z " fill="#041A2B" transform="translate(428,391)"/>
<path d="M0 0 C4.10270145 1.97256485 8.16386911 4.00613845 12.20410156 6.10351562 C13.73779436 6.86911105 15.31525215 7.54595372 16.8984375 8.203125 C19.6966986 9.56150418 21.21033431 10.43022363 23 13 C23.25375277 16.59603921 23.22731429 20.06323118 23.11816406 23.65942383 C23.19662225 27.97941398 23.19662225 27.97941398 25.38183594 31.56396484 C29.23586029 34.44968955 33.52132398 36.29521364 38 38 C35 39 35 39 32.15234375 37.63671875 C31.09144531 36.99347656 30.03054688 36.35023438 28.9375 35.6875 C27.87402344 35.05199219 26.81054688 34.41648437 25.71484375 33.76171875 C23 32 23 32 21 30 C20.85482256 27.0906442 20.81369204 24.280054 20.875 21.375 C20.88402344 20.57320313 20.89304687 19.77140625 20.90234375 18.9453125 C20.92593777 16.96341477 20.96180935 14.98167019 21 13 C20.13117187 12.73445313 19.26234375 12.46890625 18.3671875 12.1953125 C15.05499868 11.01952389 12.18613522 9.5922222 9.125 7.875 C8.15820312 7.33617187 7.19140625 6.79734375 6.1953125 6.2421875 C5.47085938 5.83226562 4.74640625 5.42234375 4 5 C4 4.34 4 3.68 4 3 C2.68 2.67 1.36 2.34 0 2 C0 1.34 0 0.68 0 0 Z " fill="#FDEFD2" transform="translate(640,374)"/>
<path d="M0 0 C1.32 0.99 2.64 1.98 4 3 C1 4 1 4 -1 4 C-1.495 4.495 -1.99 4.99 -2.5 5.5 C-2.995 5.995 -3.49 6.49 -4 7 C-4.66 7 -5.32 7 -6 7 C-6.33 7.66 -6.66 8.32 -7 9 C-8.30246459 9.80241122 -9.64320181 10.54333428 -11 11.25 C-12.68660437 12.12944371 -14.3490632 13.05529728 -16 14 C-16.75917725 14.31984863 -17.51835449 14.63969727 -18.30053711 14.96923828 C-21.13687362 16.39118086 -22.93958303 17.56951598 -25 20 C-26.13049227 25.15400662 -25.85145528 30.15199707 -25.5625 35.375 C-25.51731176 36.79284191 -25.47625462 38.21082187 -25.43945312 39.62890625 C-25.34069791 43.08882428 -25.18567808 46.54353111 -25 50 C-25.66 50 -26.32 50 -27 50 C-27 39.11 -27 28.22 -27 17 C-24.586875 15.68 -22.17375 14.36 -19.6875 13 C-12.71995264 9.13373485 -6.29794331 4.89691778 0 0 Z " fill="#B87140" transform="translate(609,315)"/>
<path d="M0 0 C0.66 0 1.32 0 2 0 C1.98952637 0.92337158 1.97905273 1.84674316 1.96826172 2.7980957 C1.9341681 6.22536718 1.90909554 9.65245833 1.89013672 13.07983398 C1.88008179 14.56293583 1.86643596 16.04601788 1.84912109 17.52905273 C1.82484994 19.66134531 1.81351201 21.79337569 1.8046875 23.92578125 C1.79421387 25.20880127 1.78374023 26.49182129 1.77294922 27.8137207 C1.7473944 31.15642744 1.7473944 31.15642744 4 34 C7.08365871 34.2502157 7.08365871 34.2502157 10 34 C9.98839844 32.99839844 9.97679687 31.99679687 9.96484375 30.96484375 C9.95545602 29.62239772 9.94635688 28.27994964 9.9375 26.9375 C9.92589844 25.62652344 9.91429687 24.31554687 9.90234375 22.96484375 C9.99547665 19.1836481 10.38551274 15.72079293 11 12 C11.33 12 11.66 12 12 12 C12 19.92 12 27.84 12 36 C8.37 36 4.74 36 1 36 C0 35 0 35 -0.11352539 31.67358398 C-0.11336629 30.19774444 -0.10767314 28.72189931 -0.09765625 27.24609375 C-0.09553383 26.08292381 -0.09553383 26.08292381 -0.09336853 24.89625549 C-0.08775345 22.40996506 -0.07519846 19.9237634 -0.0625 17.4375 C-0.05748694 15.75586067 -0.0529237 14.07421994 -0.04882812 12.39257812 C-0.03777913 8.26168434 -0.02050445 4.13085724 0 0 Z " fill="#975431" transform="translate(603,378)"/>
<path d="M0 0 C-0.33 0.99 -0.66 1.98 -1 3 C-1.99 3.33 -2.98 3.66 -4 4 C-4.495 4.495 -4.99 4.99 -5.5 5.5 C-7 7 -7 7 -10 8 C-10 24.5 -10 41 -10 58 C-9.34 58 -8.68 58 -8 58 C-7.67 57.34 -7.34 56.68 -7 56 C-6.01 56.33 -5.02 56.66 -4 57 C-7.96 58.98 -7.96 58.98 -12 61 C-12.25403817 53.43847616 -12.42886512 45.8780553 -12.54931641 38.31323242 C-12.59953557 35.74152511 -12.66772761 33.17010234 -12.75439453 30.59936523 C-12.8760467 26.89756131 -12.93247858 23.19953501 -12.9765625 19.49609375 C-13.02817535 18.35103867 -13.07978821 17.20598358 -13.13296509 16.02622986 C-13.13843996 8.19354392 -13.13843996 8.19354392 -9.77752686 4.66995239 C-3.28215188 0 -3.28215188 0 0 0 Z " fill="#C1DFEA" transform="translate(543,733)"/>
<path d="M0 0 C3.8329232 1.46552946 7.29248755 3.14624378 11 5 C11 14.24 11 23.48 11 33 C9.02 33.495 9.02 33.495 7 34 C7 33.34 7 32.68 7 32 C7.66 32 8.32 32 9 32 C8.67 31.01 8.34 30.02 8 29 C7.91790208 27.22686149 7.89253706 25.45079225 7.90234375 23.67578125 C7.90717773 22.13374023 7.90717773 22.13374023 7.91210938 20.56054688 C7.92048828 19.48869141 7.92886719 18.41683594 7.9375 17.3125 C7.94201172 16.22904297 7.94652344 15.14558594 7.95117188 14.02929688 C7.96296257 11.35280915 7.97941937 8.67643223 8 6 C5.525 5.01 5.525 5.01 3 4 C3 3.34 3 2.68 3 2 C2.01 2 1.02 2 0 2 C0 1.34 0 0.68 0 0 Z " fill="#DB9D48" transform="translate(700,371)"/>
<path d="M0 0 C1.98 0.99 3.96 1.98 6 3 C6 20.16 6 37.32 6 55 C3.36 53.68 0.72 52.36 -2 51 C-1.01 50.34 -0.02 49.68 1 49 C1.99 49.99 2.98 50.98 4 52 C4.10128827 45.36154183 4.17141794 38.72328234 4.21972656 32.08422852 C4.23986166 29.82503818 4.26717189 27.56590008 4.30175781 25.30688477 C4.35019162 22.06253179 4.37294976 18.81886683 4.390625 15.57421875 C4.41127014 14.56163498 4.43191528 13.54905121 4.45318604 12.50578308 C4.45348816 11.56503433 4.45379028 10.62428558 4.45410156 9.6550293 C4.46298401 8.82674118 4.47186646 7.99845306 4.48101807 7.14506531 C3.8310781 4.24670498 2.39422005 3.62000638 0 2 C0 1.34 0 0.68 0 0 Z " fill="#B9D4DF" transform="translate(510,737)"/>
<path d="M0 0 C0.66 0 1.32 0 2 0 C4.63825911 8.31261005 3.46417134 19.50780624 2 28 C1.34 28.33 0.68 28.66 0 29 C0 19.43 0 9.86 0 0 Z " fill="#C1D8E0" transform="translate(461,677)"/>
<path d="M0 0 C0 0.66 0 1.32 0 2 C0.66 2 1.32 2 2 2 C1.67 2.66 1.34 3.32 1 4 C0.26652344 3.61457031 -0.46695313 3.22914063 -1.22265625 2.83203125 C-3.95271951 1.68372109 -3.95271951 1.68372109 -6.24609375 3.01171875 C-7.33083984 3.84123047 -7.33083984 3.84123047 -8.4375 4.6875 C-9.21609375 5.25082031 -9.9946875 5.81414062 -10.796875 6.39453125 C-11.52390625 6.92433594 -12.2509375 7.45414062 -13 8 C-17.22581183 10.48577166 -20.08324934 11.70239295 -25 11 C-27.492758 9.83671293 -29.6723845 8.48967392 -32 7 C-30.68 6.67 -29.36 6.34 -28 6 C-28 6.66 -28 7.32 -28 8 C-21.93949386 9.0812391 -21.93949386 9.0812391 -16 8 C-16 7.34 -16 6.68 -16 6 C-15.01 6 -14.02 6 -13 6 C-13 5.34 -13 4.68 -13 4 C-11.02 3.67 -9.04 3.34 -7 3 C-6.67 2.01 -6.34 1.02 -6 0 C-3 -1 -3 -1 0 0 Z " fill="#FEF2D5" transform="translate(690,361)"/>
<path d="M0 0 C0.99 0 1.98 0 3 0 C3.33 8.58 3.66 17.16 4 26 C3.01 25.67 2.02 25.34 1 25 C0.67 16.75 0.34 8.5 0 0 Z " fill="#FEF0D3" transform="translate(636,331)"/>
<path d="M0 0 C0.33 0 0.66 0 1 0 C1 1.98 1 3.96 1 6 C4.3 5.67 7.6 5.34 11 5 C11 3.35 11 1.7 11 0 C11.33 0 11.66 0 12 0 C12 3.63 12 7.26 12 11 C11.34 10.67 10.68 10.34 10 10 C8.29636178 9.77377919 6.58671299 9.59111527 4.875 9.4375 C3.96492188 9.35371094 3.05484375 9.26992188 2.1171875 9.18359375 C1.06917969 9.09271484 1.06917969 9.09271484 0 9 C0 6.03 0 3.06 0 0 Z " fill="#2E302D" transform="translate(428,391)"/>
<path d="M0 0 C0.33 0 0.66 0 1 0 C1 12.54 1 25.08 1 38 C-0.32 38.66 -1.64 39.32 -3 40 C-3.495 38.515 -3.495 38.515 -4 37 C-3.5155542 36.66444092 -3.0311084 36.32888184 -2.53198242 35.9831543 C-0.22714216 32.99953398 -0.52008399 29.89391642 -0.48828125 26.26953125 C-0.47033005 25.51911057 -0.45237885 24.76868988 -0.43388367 23.99552917 C-0.37974813 21.6012431 -0.34587584 19.20715669 -0.3125 16.8125 C-0.27932964 15.18812323 -0.24484024 13.56377283 -0.20898438 11.93945312 C-0.1240203 7.95977944 -0.05722535 3.9801653 0 0 Z " fill="#C4DAE4" transform="translate(426,627)"/>
<path d="M0 0 C0 0.99 0 1.98 0 3 C-0.721875 2.7525 -1.44375 2.505 -2.1875 2.25 C-5.10004811 1.68443322 -5.10004811 1.68443322 -7.375 3.6875 C-8.674375 4.8321875 -8.674375 4.8321875 -10 6 C-12.29179128 7.42100628 -14.63487081 8.7014977 -17 10 C-17.66 9.34 -18.32 8.68 -19 8 C-16.78196993 6.46028495 -14.55301275 4.94385872 -12.3125 3.4375 C-11.68666016 2.99986328 -11.06082031 2.56222656 -10.41601562 2.11132812 C-6.65682509 -0.38823835 -4.52653011 -1.72233172 0 0 Z " fill="#A45A41" transform="translate(437,317)"/>
<path d="M0 0 C0.33 0 0.66 0 1 0 C1.33 6.6 1.66 13.2 2 20 C2.66 20 3.32 20 4 20 C4.33 19.34 4.66 18.68 5 18 C5.99 18.33 6.98 18.66 8 19 C4.04 20.98 4.04 20.98 0 23 C0 15.41 0 7.82 0 0 Z " fill="#AFCCD8" transform="translate(531,771)"/>
<path d="M0 0 C0.66 0 1.32 0 2 0 C3.23759823 3.71279469 3.35608897 7.31306346 3.5625 11.1875 C3.60568359 11.93708984 3.64886719 12.68667969 3.69335938 13.45898438 C3.79922685 15.30578375 3.9000976 17.15286834 4 19 C3.01 18.67 2.02 18.34 1 18 C0.67 12.06 0.34 6.12 0 0 Z " fill="#C9873F" transform="translate(662,386)"/>
<path d="M0 0 C2.32421875 1.3046875 2.32421875 1.3046875 4.32421875 3.3046875 C3.00421875 3.3046875 1.68421875 3.3046875 0.32421875 3.3046875 C-3.130146 3.81020429 -4.69931403 4.32037602 -7.67578125 6.3046875 C-9.86328125 5.9296875 -9.86328125 5.9296875 -11.67578125 5.3046875 C-10.296632 4.24102991 -8.89663523 3.20436267 -7.48828125 2.1796875 C-6.71097656 1.59960938 -5.93367187 1.01953125 -5.1328125 0.421875 C-2.67578125 -0.6953125 -2.67578125 -0.6953125 0 0 Z " fill="#DA9B44" transform="translate(688.67578125,362.6953125)"/>
<path d="M0 0 C0.66 0.66 1.32 1.32 2 2 C-0.28819146 3.50554634 -2.58021169 5.00457043 -4.875 6.5 C-5.85146484 7.14388672 -5.85146484 7.14388672 -6.84765625 7.80078125 C-11.7734375 11 -11.7734375 11 -14 11 C-14 10.34 -14 9.68 -14 9 C-11.09451118 6.95830515 -9.59857954 6 -6 6 C-6 5.34 -6 4.68 -6 4 C-5.01 4 -4.02 4 -3 4 C-3 3.34 -3 2.68 -3 2 C-2.01 1.34 -1.02 0.68 0 0 Z " fill="#FBECDA" transform="translate(600,319)"/>
<path d="M0 0 C0.66 0.33 1.32 0.66 2 1 C2 1.66 2 2.32 2 3 C3.299375 3.12375 4.59875 3.2475 5.9375 3.375 C8.15234375 3.5859375 8.15234375 3.5859375 10 4 C10.33 4.66 10.66 5.32 11 6 C10.34 6 9.68 6 9 6 C8.67 6.66 8.34 7.32 8 8 C5.03 6.35 2.06 4.7 -1 3 C-0.67 2.01 -0.34 1.02 0 0 Z " fill="#BCD3DC" transform="translate(393,660)"/>
<path d="M0 0 C4.62 2.31 9.24 4.62 14 7 C9.23374833 8.19156292 8.12120649 7.3415946 4 5 C4 4.34 4 3.68 4 3 C2.68 2.67 1.36 2.34 0 2 C0 1.34 0 0.68 0 0 Z " fill="#FDEED5" transform="translate(640,374)"/>
<path d="M0 0 C1.32 0 2.64 0 4 0 C4.33 0.66 4.66 1.32 5 2 C6.65 2 8.3 2 10 2 C10 1.34 10 0.68 10 0 C11.32 0.33 12.64 0.66 14 1 C11.3125 3.125 11.3125 3.125 8 5 C4.43491168 4.25381872 2.35898184 2.73145266 0 0 Z " fill="#D18F46" transform="translate(680,413)"/>
<path d="M0 0 C-3.12781414 2.52631142 -6.29577411 4.42373366 -10 6 C-10.99 5.67 -11.98 5.34 -13 5 C-11.40377344 3.96679519 -9.79770894 2.94877571 -8.1875 1.9375 C-7.29417969 1.36902344 -6.40085937 0.80054688 -5.48046875 0.21484375 C-3 -1 -3 -1 0 0 Z " fill="#FAE9D4" transform="translate(634,370)"/>
<path d="M0 0 C1.32 0.33 2.64 0.66 4 1 C0.37 2.98 -3.26 4.96 -7 7 C-7 5.68 -7 4.36 -7 3 C-3.535 2.505 -3.535 2.505 0 2 C0 1.34 0 0.68 0 0 Z " fill="#ADC8D1" transform="translate(569,770)"/>
<path d="M0 0 C2.97 0.495 2.97 0.495 6 1 C2.53258866 3.95749791 -0.86873527 6.07848152 -5 8 C-3.85123314 4.55369942 -2.80859085 4.08379321 0 2 C0 1.34 0 0.68 0 0 Z " fill="#BDD4DF" transform="translate(337,628)"/>
<path d="M0 0 C0.99 0.33 1.98 0.66 3 1 C3 1.66 3 2.32 3 3 C3.969375 3.268125 4.93875 3.53625 5.9375 3.8125 C6.948125 4.204375 7.95875 4.59625 9 5 C9.33 5.99 9.66 6.98 10 8 C5.89041233 6.54955729 2.56741255 4.48889248 -1 2 C-0.67 1.34 -0.34 0.68 0 0 Z " fill="#6A5145" transform="translate(342,408)"/>
<path d="M0 0 C3.94876098 0.56410871 6.75634176 1.65735794 10 4 C10.33 4.99 10.66 5.98 11 7 C6.89188572 5.55007731 3.53144334 3.54592427 0 1 C0 0.67 0 0.34 0 0 Z " fill="#FEF1D0" transform="translate(696,367)"/>
<path d="M0 0 C-0.33 0.99 -0.66 1.98 -1 3 C-1.99 3.33 -2.98 3.66 -4 4 C-4.474375 4.495 -4.94875 4.99 -5.4375 5.5 C-7.25193719 7.24185971 -8.55559077 7.57855013 -11 8 C-9.83630874 4.50892621 -9.11026462 4.14777237 -6.0625 2.3125 C-5.35222656 1.87550781 -4.64195312 1.43851563 -3.91015625 0.98828125 C-2 0 -2 0 0 0 Z " fill="#B2CDD6" transform="translate(543,733)"/>
<path d="M0 0 C1.98 0 3.96 0 6 0 C2.80009492 2.74277578 -0.00499382 4.6302836 -4 6 C-4.33 5.34 -4.66 4.68 -5 4 C-4.01 4 -3.02 4 -2 4 C-1.34 2.68 -0.68 1.36 0 0 Z " fill="#C7DCE5" transform="translate(627,736)"/>
<path d="M0 0 C3.91593446 0.78318689 7.36406635 2.39179858 11 4 C11 4.66 11 5.32 11 6 C11.99 6.33 12.98 6.66 14 7 C13.01 7.495 13.01 7.495 12 8 C9.1796875 6.6015625 9.1796875 6.6015625 5.875 4.625 C4.77929688 3.97789062 3.68359375 3.33078125 2.5546875 2.6640625 C1.71164062 2.11492188 0.86859375 1.56578125 0 1 C0 0.67 0 0.34 0 0 Z " fill="#A7C2CE" transform="translate(361,703)"/>
<path d="M0 0 C0.66 0.33 1.32 0.66 2 1 C-2.625 5.875 -2.625 5.875 -6 7 C-6.99 6.67 -7.98 6.34 -9 6 C-6.03 4.02 -3.06 2.04 0 0 Z " fill="#D1E8F2" transform="translate(703,668)"/>
<path d="M0 0 C2.64 0.33 5.28 0.66 8 1 C8 1.99 8 2.98 8 4 C9.32 4.66 10.64 5.32 12 6 C8.55639368 6 7.25204608 5.20408468 4.3125 3.5 C3.50425781 3.0359375 2.69601562 2.571875 1.86328125 2.09375 C1.24839844 1.7328125 0.63351562 1.371875 0 1 C0 0.67 0 0.34 0 0 Z " fill="#ABC7D4" transform="translate(440,748)"/>
<path d="M0 0 C0.66 0.33 1.32 0.66 2 1 C-0.16687491 3.27521866 -2.45620509 5.15794162 -5 7 C-5.33 5.68 -5.66 4.36 -6 3 C-4.03533587 1.93224776 -2.03144641 0.93446535 0 0 Z " fill="#E2ECF0" transform="translate(704,744)"/>
<path d="M0 0 C0.515625 0.2475 1.03125 0.495 1.5625 0.75 C1.005625 1.018125 0.44875 1.28625 -0.125 1.5625 C-2.63462523 2.85122647 -5.03084236 4.27926478 -7.4375 5.75 C-8.0975 5.09 -8.7575 4.43 -9.4375 3.75 C-3.0375 -0.31153846 -3.0375 -0.31153846 0 0 Z " fill="#C0DDED" transform="translate(669.4375,669.25)"/>
<path d="M0 0 C3 1 3 1 4 3 C5.64142963 4.0409066 7.30712215 5.04504326 9 6 C8.01 6.495 8.01 6.495 7 7 C4.8359375 6.00390625 4.8359375 6.00390625 2.375 4.5625 C1.55773437 4.08941406 0.74046875 3.61632812 -0.1015625 3.12890625 C-0.72804688 2.75636719 -1.35453125 2.38382813 -2 2 C-1.34 1.34 -0.68 0.68 0 0 Z " fill="#ABC7D4" transform="translate(403,725)"/>
<path d="M0 0 C0 3 0 3 -1.3125 4.38671875 C-2.875 5.59114583 -4.4375 6.79557292 -6 8 C-6 7.34 -6 6.68 -6 6 C-6.66 5.67 -7.32 5.34 -8 5 C-4.04 2.525 -4.04 2.525 0 0 Z " fill="#C3DDE8" transform="translate(625,711)"/>
<path d="M0 0 C5.94 0.99 5.94 0.99 12 2 C12 2.33 12 2.66 12 3 C8.37 3 4.74 3 1 3 C0.67 2.01 0.34 1.02 0 0 Z " fill="#9A6950" transform="translate(603,411)"/>
<path d="M0 0 C-2.31 1.65 -4.62 3.3 -7 5 C-7.33 4.34 -7.66 3.68 -8 3 C-7.67 2.01 -7.34 1.02 -7 0 C-2.25 -1.125 -2.25 -1.125 0 0 Z " fill="#FBF0E7" transform="translate(427,320)"/>
<path d="M0 0 C0 0.99 0 1.98 0 3 C-2.31 4.32 -4.62 5.64 -7 7 C-7.66 6.34 -8.32 5.68 -9 5 C-6.03 3.35 -3.06 1.7 0 0 Z " fill="#1B506A" transform="translate(645,665)"/>
<path d="M0 0 C-4.95 2.475 -4.95 2.475 -10 5 C-10 4.34 -10 3.68 -10 3 C-9.34 3 -8.68 3 -8 3 C-7.67 2.01 -7.34 1.02 -7 0 C-4.05610218 -1.17755913 -3.10046087 -1.03348696 0 0 Z " fill="#725242" transform="translate(378,404)"/>
<path d="M0 0 C1.32 0.99 2.64 1.98 4 3 C4.33 2.34 4.66 1.68 5 1 C5.33 2.65 5.66 4.3 6 6 C3.36 4.68 0.72 3.36 -2 2 C-1.34 1.34 -0.68 0.68 0 0 Z " fill="#A3C1CD" transform="translate(510,786)"/>
<path d="M0 0 C-2.68841859 2.25245881 -4.64641875 3.88213958 -8 5 C-8 4.01 -8 3.02 -8 2 C-4.77208445 -0.1519437 -3.71599191 -0.20086443 0 0 Z " fill="#B1C9D4" transform="translate(584,764)"/>
<path d="M0 0 C0.598125 0.20625 1.19625 0.4125 1.8125 0.625 C0.1625 1.945 -1.4875 3.265 -3.1875 4.625 C-3.8475 4.295 -4.5075 3.965 -5.1875 3.625 C-5.1875 2.965 -5.1875 2.305 -5.1875 1.625 C-2.1875 -0.375 -2.1875 -0.375 0 0 Z " fill="#E0EAEF" transform="translate(679.1875,759.375)"/>
<path d="M0 0 C2.76276177 0.52268466 5.3260876 1.10869587 8 2 C8.33 2.99 8.66 3.98 9 5 C5.22454612 3.90931332 2.52956528 3.0916909 0 0 Z " fill="#FDEFD6" transform="translate(644,359)"/>
<path d="M0 0 C2.97 1.65 5.94 3.3 9 5 C5 6 5 6 2.8125 5.3125 C1 4 1 4 0 0 Z " fill="#A95F43" transform="translate(439,319)"/>
<path d="M0 0 C0.66 0.33 1.32 0.66 2 1 C-2.625 5 -2.625 5 -6 5 C-6 4.34 -6 3.68 -6 3 C-4.03533587 1.93224776 -2.03144641 0.93446535 0 0 Z " fill="#DEEBF1" transform="translate(671,763)"/>
<path d="M0 0 C2.61580479 0.3269756 4.64078137 0.82039068 7 2 C6.67 2.66 6.34 3.32 6 4 C3.36 3.34 0.72 2.68 -2 2 C-1.34 1.34 -0.68 0.68 0 0 Z " fill="#B8D1DF" transform="translate(372,669)"/>
<path d="M0 0 C0.66 0.33 1.32 0.66 2 1 C0.625 3.5 0.625 3.5 -1 6 C-1.66 6 -2.32 6 -3 6 C-3 4.68 -3 3.36 -3 2 C-2.01 1.34 -1.02 0.68 0 0 Z " fill="#DEF2F7" transform="translate(708,665)"/>
<path d="M0 0 C0.33 0.99 0.66 1.98 1 3 C-0.98 3.99 -2.96 4.98 -5 6 C-5.66 5.34 -6.32 4.68 -7 4 C-4.69 2.68 -2.38 1.36 0 0 Z " fill="#235D7B" transform="translate(684,624)"/>
<path d="M0 0 C-1.1875 1.5625 -1.1875 1.5625 -3 3 C-5.6875 2.6875 -5.6875 2.6875 -8 2 C-8 1.34 -8 0.68 -8 0 C-2.25 -1.125 -2.25 -1.125 0 0 Z " fill="#DE9E4F" transform="translate(673,372)"/>
</svg>
