<?xml version="1.0" encoding="UTF-8"?>
<svg version="1.1" xmlns="http://www.w3.org/2000/svg" width="1024" height="1024">
<path d="M0 0 C337.92 0 675.84 0 1024 0 C1024 337.92 1024 675.84 1024 1024 C686.08 1024 348.16 1024 0 1024 C0 686.08 0 348.16 0 0 Z " fill="#061B2A" transform="translate(0,0)"/>
<path d="M0 0 C6.27 0 12.54 0 19 0 C19 85.8 19 171.6 19 260 C12.73 260 6.46 260 0 260 C0 174.2 0 88.4 0 0 Z " fill="#EAF4F0" transform="translate(501,294)"/>
<path d="M0 0 C18.60660038 2.65808577 35.4320724 15.6371569 47.375 29.875 C62.62237864 50.24837104 70.70529354 74.80543404 67.73193359 100.29833984 C65.09428685 117.44863984 58.11011931 132.73257597 47 146 C45.824375 147.5778125 45.824375 147.5778125 44.625 149.1875 C33.13726516 161.49578733 16.82947691 172.59578901 0 175 C0 169.06 0 163.12 0 157 C2.26875 155.845 4.5375 154.69 6.875 153.5 C12.76162184 150.43110867 17.91281732 147.03068343 22.94921875 142.6640625 C25 141 25 141 27.14453125 140.0234375 C29.52647402 138.70960802 29.89940704 137.44927039 31 135 C32.06046385 133.66895388 33.14614555 132.35778866 34.25 131.0625 C38.62519981 125.55468062 41.29915948 119.4552597 44 113 C44.36222656 112.15308594 44.72445312 111.30617188 45.09765625 110.43359375 C50.65648093 95.44161205 49.75066005 75.38469921 43.23046875 60.9609375 C33.47259004 40.39704972 20.63185109 27.83611505 0 18 C0 12.06 0 6.12 0 0 Z " fill="#7AA0A2" transform="translate(542,334)"/>
<path d="M0 0 C0 5.94 0 11.88 0 18 C-2.26875 19.155 -4.5375 20.31 -6.875 21.5 C-25.73463079 31.44939252 -38.40533842 47.5070163 -45.30859375 67.59765625 C-50.71308517 86.3759739 -47.18174154 106.34558822 -38.1796875 123.22265625 C-35.33950381 128.3012898 -31.9168409 132.70669382 -28 137 C-27.48308594 137.6084375 -26.96617187 138.216875 -26.43359375 138.84375 C-19.29905892 146.71140746 -9.10448541 151.79743691 0 157 C0 162.94 0 168.88 0 175 C-5.49581216 174.08403131 -9.21463276 172.82789013 -14.125 170.5 C-14.86983643 170.14832764 -15.61467285 169.79665527 -16.38208008 169.43432617 C-23.27411947 166.06427529 -29.07805927 161.88749916 -35 157 C-36.5778125 155.824375 -36.5778125 155.824375 -38.1875 154.625 C-55.84973673 138.14024572 -66.14945712 115.97073282 -67.24609375 92.05859375 C-68.01427728 67.70292049 -60.80008054 46.13714439 -44.4375 27.6875 C-42.96411864 26.11954348 -41.48549094 24.55648866 -40 23 C-39.484375 22.40960938 -38.96875 21.81921875 -38.4375 21.2109375 C-29.45935815 11.3443337 -13.87643172 0 0 0 Z " fill="#7EA5A5" transform="translate(479,334)"/>
<path d="M0 0 C1.82910156 0.00317383 1.82910156 0.00317383 4 1 C5.44363629 3.31800756 6.59870645 5.48496847 7.734375 7.94921875 C8.07716492 8.66422043 8.41995483 9.37922211 8.77313232 10.1158905 C9.86424909 12.40363136 10.93358408 14.70065441 12 17 C12.6813108 18.45018755 13.36294621 19.90022265 14.04492188 21.35009766 C16.13955578 25.82561961 18.19676736 30.31786956 20.25 34.8125 C20.99464577 36.43720405 21.73935702 38.06187809 22.48413086 39.68652344 C27.40356882 50.43297534 32.23998603 61.21373014 37.0078125 72.02832031 C40.14394515 79.12878965 43.37532305 86.17530205 46.76782227 93.15722656 C49 97.79398355 49 97.79398355 49 100 C41.74 100 34.48 100 27 100 C26.20078125 98.14761719 25.4015625 96.29523438 24.578125 94.38671875 C17.15914392 77.20922805 9.63703995 60.08181119 2 43 C-3.4746081 53.6487804 -8.42356521 64.48270411 -13.25 75.4375 C-13.96324499 77.04895947 -14.67678534 78.66028824 -15.390625 80.27148438 C-16.69607449 83.22115869 -18.00084193 86.17112579 -19.30175781 89.12280273 C-19.68645233 89.99545021 -19.68645233 89.99545021 -20.07891846 90.88572693 C-21.39984007 93.91780266 -22.69718571 96.96009999 -24 100 C-30.93 100 -37.86 100 -45 100 C-43.05803929 94.17411786 -41.14110177 88.79096524 -38.55078125 83.29296875 C-38.05615891 82.2264785 -38.05615891 82.2264785 -37.55154419 81.13844299 C-36.8436825 79.61274821 -36.13381224 78.08798396 -35.42208862 76.56408691 C-33.50743111 72.46315266 -31.60894185 68.35475625 -29.7109375 64.24609375 C-29.1252021 62.97887985 -29.1252021 62.97887985 -28.52763367 61.68606567 C-23.74530777 51.31560387 -19.13163901 40.87053372 -14.53051758 30.41870117 C-11.29532498 23.08151811 -7.9996639 15.77720658 -4.59765625 8.515625 C-4.25318954 7.77777771 -3.90872284 7.03993042 -3.55381775 6.27972412 C-1.12176023 1.12176023 -1.12176023 1.12176023 0 0 Z " fill="#E8F8F4" transform="translate(269,617)"/>
<path d="M0 0 C16.43124222 -0.04010881 16.43124222 -0.04010881 23.41210938 -0.04882812 C28.18352362 -0.0548159 32.95491875 -0.06191446 37.72631836 -0.07543945 C41.57125114 -0.08627061 45.41616345 -0.09227732 49.26111031 -0.09487724 C50.73118983 -0.09673108 52.20126818 -0.10035091 53.67133904 -0.10573006 C55.72354467 -0.11294355 57.77566467 -0.11399081 59.82788086 -0.11352539 C61.58327431 -0.11685631 61.58327431 -0.11685631 63.37413025 -0.12025452 C66 0 66 0 67 1 C67 6.94 67 12.88 67 19 C51.16 19 35.32 19 19 19 C19 25.93 19 32.86 19 40 C35.17 40 51.34 40 68 40 C68 46.27 68 52.54 68 59 C45.56 59 23.12 59 0 59 C0 39.53 0 20.06 0 0 Z " fill="#E5F7F3" transform="translate(647,658)"/>
<path d="M0 0 C6.6 0 13.2 0 20 0 C12.66413638 33.01138627 -6.70677684 62.21380267 -35 81 C-40.19156989 84.26538329 -45.55613194 87.18066343 -51 90 C-51.62132812 90.32629395 -52.24265625 90.65258789 -52.8828125 90.98876953 C-62.52508194 95.99197902 -74.96891693 102 -86 102 C-86 95.73 -86 89.46 -86 83 C-83.36 82.175 -80.72 81.35 -78 80.5 C-68.84895061 77.51598033 -60.40819601 73.66311206 -52 69 C-51.01515625 68.45730469 -50.0303125 67.91460938 -49.015625 67.35546875 C-41.60865935 62.95624493 -35.53660419 57.29850557 -29.38623047 51.33056641 C-28.27225982 50.26132723 -27.12708895 49.22463971 -25.97265625 48.19921875 C-12.84505363 36.24537825 -3.84642924 17.06852977 0 0 Z " fill="#61848B" transform="translate(628,449)"/>
<path d="M0 0 C14.85 0 29.7 0 45 0 C45 33 45 66 45 100 C38.73 100 32.46 100 26 100 C26 73.27 26 46.54 26 19 C17.42 19 8.84 19 0 19 C0 12.73 0 6.46 0 0 Z " fill="#ECF9F4" transform="translate(744,617)"/>
<path d="M0 0 C6.6 0 13.2 0 20 0 C20.02254888 13.02110948 20.04091384 26.0422061 20.05181217 39.06333065 C20.05704153 45.10887817 20.06414014 51.1544117 20.07543945 57.19995117 C20.08626645 63.02894288 20.09227643 68.85792109 20.09487724 74.68692207 C20.09673183 76.9161761 20.10035308 79.14542935 20.10573006 81.37467766 C20.11293799 84.48539734 20.11399105 87.59606049 20.11352539 90.70678711 C20.11712067 91.63826569 20.12071594 92.56974426 20.12442017 93.52944946 C20.11405216 99.88594784 20.11405216 99.88594784 19 101 C12.73 101 6.46 101 0 101 C0 67.67 0 34.34 0 0 Z " fill="#DFEEEB" transform="translate(461,617)"/>
<path d="M0 0 C6.6 0 13.2 0 20 0 C20 33 20 66 20 100 C13.4 100 6.8 100 0 100 C0 67 0 34 0 0 Z " fill="#E3F1ED" transform="translate(556,617)"/>
<path d="M0 0 C1.61841797 0.08701172 1.61841797 0.08701172 3.26953125 0.17578125 C4.35621094 0.22089844 5.44289063 0.26601563 6.5625 0.3125 C7.39394531 0.37050781 8.22539062 0.42851563 9.08203125 0.48828125 C11.8065565 6.03219844 14.5264566 11.57835387 17.24243164 17.12646484 C18.1634211 19.00629044 19.08558533 20.88554102 20.0090332 22.76416016 C36.08203125 55.46891338 36.08203125 55.46891338 36.08203125 58.48828125 C29.15203125 58.48828125 22.22203125 58.48828125 15.08203125 58.48828125 C11.12203125 50.56828125 7.16203125 42.64828125 3.08203125 34.48828125 C0.69488317 37.67114536 -0.68173179 39.91229775 -2.1796875 43.47265625 C-2.57607422 44.40722656 -2.97246094 45.34179688 -3.38085938 46.3046875 C-3.78498047 47.27277344 -4.18910156 48.24085938 -4.60546875 49.23828125 C-5.02119141 50.22183594 -5.43691406 51.20539062 -5.86523438 52.21875 C-6.88773881 54.63985246 -7.90351283 57.06379541 -8.91796875 59.48828125 C-16.17796875 59.48828125 -23.43796875 59.48828125 -30.91796875 59.48828125 C-28.66875839 52.74065017 -28.66875839 52.74065017 -27.21875 49.7109375 C-26.74115234 48.7053479 -26.74115234 48.7053479 -26.25390625 47.67944336 C-25.91617187 46.97698486 -25.5784375 46.27452637 -25.23046875 45.55078125 C-24.50749599 44.03270278 -23.78484564 42.51447073 -23.0625 40.99609375 C-22.7010791 40.23844727 -22.3396582 39.48080078 -21.96728516 38.70019531 C-20.71415013 36.05864032 -19.48656087 33.40586553 -18.26147461 30.7512207 C-15.48558421 24.74388858 -12.61854202 18.78684236 -9.66796875 12.86328125 C-9.33861328 12.19997803 -9.00925781 11.5366748 -8.66992188 10.85327148 C-7.76877579 9.05673816 -6.8440887 7.27206881 -5.91796875 5.48828125 C-5.51352539 4.59834473 -5.10908203 3.7084082 -4.69238281 2.79150391 C-2.91796875 0.48828125 -2.91796875 0.48828125 0 0 Z " fill="#ECF9F8" transform="translate(386.91796875,616.51171875)"/>
<path d="M0 0 C1.20085236 0.00539291 1.20085236 0.00539291 2.42596436 0.01089478 C3.26491745 0.01074875 4.10387054 0.01060272 4.96824646 0.01045227 C7.75487816 0.01115167 10.54144388 0.01894531 13.32806396 0.02676392 C15.25477563 0.028628 17.18148777 0.03005195 19.10820007 0.03105164 C24.18978169 0.03487758 29.27133491 0.04470851 34.35290527 0.05575562 C39.53407405 0.0659681 44.7152474 0.07054891 49.89642334 0.07559204 C60.07026397 0.08633071 70.24408348 0.10340804 80.41790771 0.12442017 C81.92460491 2.91252237 83.42210575 5.70545975 84.91790771 8.49942017 C85.34716553 9.29348267 85.77642334 10.08754517 86.21868896 10.90567017 C86.62474365 11.66621704 87.03079834 12.42676392 87.44915771 13.21035767 C87.8262085 13.91209106 88.20325928 14.61382446 88.59173584 15.33682251 C89.41790771 17.12442017 89.41790771 17.12442017 89.41790771 19.12442017 C55.09790771 19.12442017 20.77790771 19.12442017 -14.58209229 19.12442017 C-6.08748 0.01154253 -6.08748 0.01154253 0 0 Z " fill="#E2F6F1" transform="translate(351.58209228515625,697.8755798339844)"/>
<path d="M0 0 C4.7031093 2.03088811 7.71789119 5.43578239 10 10 C9.83605146 11.4169838 9.66884344 12.83359112 9.5 14.25 C9.44227164 19.30844758 11.17574107 22.40541476 14 26.4375 C24.29606601 41.19108441 29.66612717 58.12610412 31 76 C25.06 76 19.12 76 13 76 C12.319375 73.195 11.63875 70.39 10.9375 67.5 C8.12283064 56.45070184 3.86659806 46.39404809 -1.4375 36.3125 C-2.92412679 33.16085122 -3.42729038 31.41832304 -3 28 C-3.72703125 28.07863281 -4.4540625 28.15726562 -5.203125 28.23828125 C-8.85048998 27.92754205 -10.09792588 26.65713278 -12.75 24.1875 C-13.52859375 23.47980469 -14.3071875 22.77210938 -15.109375 22.04296875 C-17.6382558 19.3103145 -17.965084 17.3701096 -18.3125 13.6875 C-17.83274239 8.02636016 -15.46822047 5.26800859 -11.25 1.625 C-6.96224232 -0.51887884 -4.76434281 -0.52937142 0 0 Z " fill="#79A1A4" transform="translate(618,332)"/>
<path d="M0 0 C10.35484158 5.71778267 17.36406263 12.4873707 23 23 C23.43570313 23.78375 23.87140625 24.5675 24.3203125 25.375 C29.21206433 36.04791308 28.79501673 51.5829858 25.4375 62.6875 C20.61499868 74.40651545 13.22748455 83.88269945 2 90 C1.34 90 0.68 90 0 90 C-0.1753878 86.14641528 -0.28121462 82.29386561 -0.375 78.4375 C-0.42527344 77.35146484 -0.47554687 76.26542969 -0.52734375 75.14648438 C-0.69303974 66.06082068 -0.69303974 66.06082068 2.83984375 62.0390625 C3.88887491 61.02153331 4.94183578 60.00802804 6 59 C7.71900104 56.43235405 7.71900104 56.43235405 8.9375 53.9375 C9.35902344 53.14214844 9.78054688 52.34679687 10.21484375 51.52734375 C11.71462269 46.69969712 10.14724076 43.06785866 7.96875 38.73046875 C7.15455923 37.21143645 6.33141464 35.69717395 5.5 34.1875 C5.08363281 33.41212891 4.66726563 32.63675781 4.23828125 31.83789062 C2.43473145 28.19498187 2.43473145 28.19498187 0 25 C-0.08737645 23.14630389 -0.10698153 21.28932459 -0.09765625 19.43359375 C-0.09443359 18.30888672 -0.09121094 17.18417969 -0.08789062 16.02539062 C-0.07951172 14.84138672 -0.07113281 13.65738281 -0.0625 12.4375 C-0.05798828 11.24962891 -0.05347656 10.06175781 -0.04882812 8.83789062 C-0.03699675 5.89187774 -0.02051287 2.94596319 0 0 Z " fill="#EDF9F4" transform="translate(542,376)"/>
<path d="M0 0 C0.93651524 15.29041222 1.36472847 26.4477001 -8 39 C-9.62232972 43.86698915 -9.85595605 47.08493377 -7.765625 51.76171875 C-4.97045036 57.03253991 -4.97045036 57.03253991 -1.41796875 61.79321289 C0.41743709 64.64965803 0.34464222 66.48337473 0.29296875 69.859375 C0.28330078 70.97441406 0.27363281 72.08945312 0.26367188 73.23828125 C0.23853516 74.39714844 0.21339844 75.55601562 0.1875 76.75 C0.16719727 78.51150391 0.16719727 78.51150391 0.14648438 80.30859375 C0.1111478 83.20619298 0.06180979 86.10286427 0 89 C-11.66730391 82.69795263 -19.28565581 73.89075586 -23.25 61.25 C-23.85084975 59.17165086 -24.4363691 57.08874981 -25 55 C-25.19722656 54.32710938 -25.39445312 53.65421875 -25.59765625 52.9609375 C-28.39404532 39.33193444 -23.96083745 26.53095085 -17 15 C-5.70517928 0 -5.70517928 0 0 0 Z " fill="#ECF9F6" transform="translate(479,377)"/>
<path d="M0 0 C22.77 0 45.54 0 69 0 C69 6.27 69 12.54 69 19 C46.23 19 23.46 19 0 19 C0 12.73 0 6.46 0 0 Z " fill="#F4FAF8" transform="translate(647,617)"/>
<path d="M0 0 C2.27408754 0.00503081 4.54817618 0.00959089 6.82226562 0.01367188 C12.31903807 0.02453895 17.81575648 0.04171413 23.3125 0.0625 C23.3125 6.3325 23.3125 12.6025 23.3125 19.0625 C0.8725 19.0625 -21.5675 19.0625 -44.6875 19.0625 C-44.6875 13.1225 -44.6875 7.1825 -44.6875 1.0625 C-29.7699462 0.12507826 -14.94362618 -0.05825761 0 0 Z " fill="#86ADAD" transform="translate(691.6875,697.9375)"/>
<path d="M0 0 C6.27 0 12.54 0 19 0 C19 20.79 19 41.58 19 63 C12.73 63 6.46 63 0 63 C0 42.21 0 21.42 0 0 Z " fill="#F2F5F4" transform="translate(408,296)"/>
<path d="M0 0 C6.47392758 0.51431401 11.9985944 1.70426052 18.0625 4 C18.88250488 4.30832764 19.70250977 4.61665527 20.54736328 4.93432617 C34.14320489 10.22685234 45.76172306 17.78230367 57 27 C56.39889717 31.00735217 54.33397972 33.55469371 51.9375 36.75 C51.20402344 37.73484375 50.47054687 38.7196875 49.71484375 39.734375 C49.14894531 40.48203125 48.58304688 41.2296875 48 42 C45.19576774 40.66505927 42.67416313 39.16754408 40.12890625 37.390625 C27.25205811 28.52141793 14.68202078 22.48559018 0 17 C0 11.39 0 5.78 0 0 Z " fill="#95BEC1" transform="translate(542,294)"/>
<path d="M0 0 C6.6 0 13.2 0 20 0 C19.17676717 4.11616415 18.36140807 6.66427477 16.55859375 10.32421875 C16.06101562 11.34451172 15.5634375 12.36480469 15.05078125 13.41601562 C14.51839844 14.49560547 13.98601562 15.57519531 13.4375 16.6875 C8.72277791 26.36951858 4.18693718 36.1003238 -0.11328125 45.97265625 C-1.724429 49.65629363 -3.36354926 53.32754951 -5 57 C-8.53667095 53.74124635 -10.20833307 49.97864638 -12.25 45.6875 C-12.62640625 44.94048828 -13.0028125 44.19347656 -13.390625 43.42382812 C-15.56862209 38.86364672 -16.58751014 36.01036955 -15 31 C-14.04054483 28.46648215 -13.04629269 26.0274291 -11.9375 23.5625 C-11.63384521 22.87671875 -11.33019043 22.1909375 -11.01733398 21.484375 C-7.70135549 14.12413057 -3.87897557 7.07742912 0 0 Z " fill="#F0FAF9" transform="translate(329,617)"/>
<path d="M0 0 C6.27 0 12.54 0 19 0 C20.90540431 3.77678353 22.80782669 7.54939706 24.67578125 11.34375 C26.2045702 14.43647247 27.78866396 17.49040897 29.41796875 20.53125 C35.89400175 32.8913693 35.89400175 32.8913693 34.4375 37.625 C33.66870449 39.10683867 32.84682768 40.56132866 32 42 C31.06369954 43.97575267 30.16732833 45.96770449 29.26782227 47.96044922 C27.88873593 50.99493257 26.4445203 53.99618929 25 57 C22.8200781 54.26771201 21.27270414 51.66998253 19.90625 48.45703125 C19.32798462 47.1110083 19.32798462 47.1110083 18.73803711 45.73779297 C18.32948486 44.77244629 17.92093262 43.80709961 17.5 42.8125 C16.61671364 40.74834331 15.73256663 38.68455474 14.84765625 36.62109375 C14.38633301 35.54327637 13.92500977 34.46545898 13.44970703 33.35498047 C11.96763789 29.92510609 10.45586064 26.5098664 8.93359375 23.09765625 C8.4334375 21.97447998 7.93328125 20.85130371 7.41796875 19.6940918 C6.44625426 17.51558611 5.47110431 15.3386089 4.4921875 13.16333008 C4.05003906 12.16841553 3.60789063 11.17350098 3.15234375 10.1484375 C2.76038818 9.27364746 2.36843262 8.39885742 1.96459961 7.49755859 C1 5 1 5 0 0 Z " fill="#F0F8F7" transform="translate(194,617)"/>
<path d="M0 0 C4.05503611 1.63695763 7.01986811 3.95860987 10 7.125 C11.6054572 11.74068944 11.63860109 16.17501402 11 21 C8.81473658 25.45146251 6.0605479 28.18885145 2 31 C-2.55872181 32.51957394 -6.66176277 32.9048513 -11.16015625 31.1640625 C-16.40261906 28.24396172 -19.29463221 24.76627483 -21 19 C-21.7705957 14.72158846 -21.34709027 11.66847015 -19.3125 7.75 C-13.57021002 0.92133083 -8.76997456 -1.13945655 0 0 Z " fill="#EDF8F4" transform="translate(425,502)"/>
<path d="M0 0 C6.27 0 12.54 0 19 0 C19.4846875 1.35351562 19.969375 2.70703125 20.46875 4.1015625 C24.1173678 14.08846076 27.94248114 23.42021461 33.53125 32.48046875 C35 35 35 35 35 37 C27.74 37 20.48 37 13 37 C9.52324431 30.3776082 6.37328561 23.78727864 3.6875 16.8125 C3.30634033 15.8524707 3.30634033 15.8524707 2.91748047 14.87304688 C0.96763555 9.67169305 0.64886689 5.83980199 0 0 Z " fill="#709599" transform="translate(373,449)"/>
<path d="M0 0 C10.23 0 20.46 0 31 0 C31 16.83146067 31 16.83146067 25.9140625 22.203125 C25.15867187 22.87859375 24.40328125 23.5540625 23.625 24.25 C22.87476563 24.93578125 22.12453125 25.6215625 21.3515625 26.328125 C18.74235227 28.18317812 17.19388985 28.86483538 14 29 C11.71875 27.99609375 11.71875 27.99609375 9.5 26.4375 C8.40171875 25.69306641 8.40171875 25.69306641 7.28125 24.93359375 C0.39986848 19.10091592 0.39986848 19.10091592 -0.39501953 14.92456055 C-0.49094676 12.63159842 -0.4377782 10.41725841 -0.3125 8.125 C-0.209375 5.44375 -0.10625 2.7625 0 0 Z " fill="#EBF0F1" transform="translate(341,325)"/>
<path d="M0 0 C4.7031093 2.03088811 7.71789119 5.43578239 10 10 C10.55004295 15.72044663 9.64364029 18.56854559 6 23 C2.58684191 26.60819569 -0.69331032 28.04409211 -5.578125 28.4375 C-10.48388513 27.55129817 -13.88740277 23.69620922 -17 20 C-18.20643566 16.38069302 -18.32268559 13.80768995 -18 10 C-13.94713402 2.0501475 -8.63795074 -0.9597723 0 0 Z " fill="#E6F3F4" transform="translate(618,332)"/>
<path d="M0 0 C3.53893654 0.70778731 6.51422744 1.44053232 9.86328125 2.62890625 C10.74951172 2.94150391 11.63574219 3.25410156 12.54882812 3.57617188 C13.9168457 4.0644043 13.9168457 4.0644043 15.3125 4.5625 C16.24384766 4.89185547 17.17519531 5.22121094 18.13476562 5.56054688 C20.42425 6.37067212 22.71227127 7.18493014 25 8 C25 14.27 25 20.54 25 27 C8 23 8 23 0 19 C0 12.73 0 6.46 0 0 Z " fill="#588088" transform="translate(454,524)"/>
<path d="M0 0 C8.25 0 16.5 0 25 0 C25 6.27 25 12.54 25 19 C16.75 19 8.5 19 0 19 C0 12.73 0 6.46 0 0 Z " fill="#D6E9E8" transform="translate(502,698)"/>
<path d="M0 0 C0 5.94 0 11.88 0 18 C-7.0625 19.8125 -7.0625 19.8125 -9.24243164 20.36254883 C-12.56312122 21.23217787 -15.67216912 22.23312541 -18.80859375 23.63671875 C-22 25 -22 25 -25 25 C-25 18.4 -25 11.8 -25 5 C-22.628125 4.360625 -20.25625 3.72125 -17.8125 3.0625 C-17.07491455 2.86277588 -16.3373291 2.66305176 -15.57739258 2.45727539 C-10.15991095 1.00505378 -5.62646695 0 0 0 Z " fill="#F2F6F6" transform="translate(479,294)"/>
<path d="M0 0 C7.92 0 15.84 0 24 0 C24 6.27 24 12.54 24 19 C16.08 19 8.16 19 0 19 C0 12.73 0 6.46 0 0 Z " fill="#D9EDE9" transform="translate(597,698)"/>
<path d="M0 0 C0.87454834 0.00523682 1.74909668 0.01047363 2.65014648 0.01586914 C3.59438477 0.0190918 4.53862305 0.02231445 5.51147461 0.02563477 C6.50469727 0.03401367 7.49791992 0.04239258 8.52124023 0.05102539 C9.51833008 0.05553711 10.51541992 0.06004883 11.54272461 0.06469727 C14.0147551 0.07652516 16.48675496 0.09446124 18.95874023 0.11352539 C18.95874023 6.38352539 18.95874023 12.65352539 18.95874023 19.11352539 C11.69874023 19.11352539 4.43874023 19.11352539 -3.04125977 19.11352539 C-3.06188477 16.16415039 -3.08250977 13.21477539 -3.10375977 10.17602539 C-3.11286377 9.24540283 -3.12196777 8.31478027 -3.13134766 7.35595703 C-3.13384521 6.62755615 -3.13634277 5.89915527 -3.13891602 5.14868164 C-3.14415283 4.39981689 -3.14938965 3.65095215 -3.15478516 2.87939453 C-2.98841631 0.29155393 -2.57837812 0.14339742 0 0 Z " fill="#F1F7F7" transform="translate(806.041259765625,616.886474609375)"/>
<path d="M0 0 C5.61 0 11.22 0 17 0 C16.35234797 5.18121624 15.67391274 9.90728391 14.5 14.9375 C14.2421875 16.06027344 13.984375 17.18304688 13.71875 18.33984375 C13 21 13 21 12 22 C10.58429877 22.08651611 9.164405 22.10704904 7.74609375 22.09765625 C6.89208984 22.09443359 6.03808594 22.09121094 5.15820312 22.08789062 C4.26037109 22.07951172 3.36253906 22.07113281 2.4375 22.0625 C1.53580078 22.05798828 0.63410156 22.05347656 -0.29492188 22.04882812 C-2.53001314 22.03700225 -4.76497437 22.0205222 -7 22 C-5.74124018 14.07110059 -3.24894356 7.35287227 0 0 Z " fill="#94BABA" transform="translate(381,369)"/>
<path d="M0 0 C2.5625 1.5 2.5625 1.5 4 4 C4.76118915 7.84986051 4.73143196 11.27339859 3.1875 14.91796875 C1.50189912 17.38198949 -0.25782546 18.81479189 -3.16015625 19.5390625 C-7.56992651 19.8188142 -9.46272137 19.42534558 -13 16.625 C-15.89236866 12.82876614 -16.55362163 10.79805415 -16 6 C-11.66064402 -1.01097441 -7.62708342 -1.69340218 0 0 Z " fill="#ECF7F7" transform="translate(350,416)"/>
<path d="M0 0 C5.61 0 11.22 0 17 0 C17 5.94 17 11.88 17 18 C11.39 18 5.78 18 0 18 C0 12.06 0 6.12 0 0 Z " fill="#94B1B2" transform="translate(657,415)"/>
<path d="M0 0 C5.28 0 10.56 0 16 0 C16 3.63 16 7.26 16 11 C10.72 11 5.44 11 0 11 C0 7.37 0 3.74 0 0 Z " fill="#8CB3B6" transform="translate(373,415)"/>
<path d="M0 0 C2 2 2 2 2 6 C2.763125 6.103125 3.52625 6.20625 4.3125 6.3125 C7.17059424 7.04364039 8.15742885 7.76951913 10 10 C9.3125 12.375 9.3125 12.375 8 15 C5.375 16.3125 5.375 16.3125 3 17 C0.5 15.1875 0.5 15.1875 -2 13 C-2 12.01 -2 11.02 -2 10 C-1.34 10 -0.68 10 0 10 C0 6.7 0 3.4 0 0 Z " fill="#182C39" transform="translate(352,329)"/>
<path d="M0 0 C0.99 0.33 1.98 0.66 3 1 C3 4.96 3 8.92 3 13 C1.68 13 0.36 13 -1 13 C-1.02686553 11.02090602 -1.04633375 9.04171029 -1.0625 7.0625 C-1.07410156 5.96035156 -1.08570313 4.85820313 -1.09765625 3.72265625 C-1 1 -1 1 0 0 Z " fill="#184766" transform="translate(419,511)"/>
<path d="M0 0 C0.33 0 0.66 0 1 0 C1 5.94 1 11.88 1 18 C-7 22 -7 22 -9 22 C-9 21.34 -9 20.68 -9 20 C-8.01 20 -7.02 20 -6 20 C-6 19.34 -6 18.68 -6 18 C-4.68 18 -3.36 18 -2 18 C-1.20046862 14.71303767 -0.90341064 13.28976808 -2 10 C-1.66015625 7.51953125 -1.66015625 7.51953125 -1.0625 4.8125 C-0.86785156 3.91144531 -0.67320312 3.01039063 -0.47265625 2.08203125 C-0.31667969 1.39496094 -0.16070312 0.70789063 0 0 Z " fill="#98BEC0" transform="translate(478,334)"/>
<path d="M0 0 C0.66 0.33 1.32 0.66 2 1 C1.00084012 6.91607822 -0.22305281 11.27881601 -4 16 C-4.66 16.33 -5.32 16.66 -6 17 C-5.49487476 10.77012202 -2.67395877 5.54525767 0 0 Z " fill="#CCE7E8" transform="translate(254,648)"/>
<path d="M0 0 C1.65 0 3.3 0 5 0 C6 3 6 3 4.5625 6.1875 C3.7890625 7.5796875 3.7890625 7.5796875 3 9 C2.67 9 2.34 9 2 9 C1.87625 8.195625 1.7525 7.39125 1.625 6.5625 C1.315625 5.2940625 1.315625 5.2940625 1 4 C0.34 3.67 -0.32 3.34 -1 3 C-0.67 2.01 -0.34 1.02 0 0 Z " fill="#0E1D28" transform="translate(611,342)"/>
<path d="M0 0 C3 3 3 3 4 6 C3.21625 6.061875 2.4325 6.12375 1.625 6.1875 C0.75875 6.455625 -0.1075 6.72375 -1 7 C-2.37466625 9.47636012 -2.37466625 9.47636012 -3 12 C-3.66 11.67 -4.32 11.34 -5 11 C-3.35 7.37 -1.7 3.74 0 0 Z " fill="#132332" transform="translate(270,659)"/>
<path d="M0 0 C0.33 0 0.66 0 1 0 C1.1546875 1.8871875 1.1546875 1.8871875 1.3125 3.8125 C1.64858808 6.60499657 1.80025876 7.74433121 3.5625 10 C4.036875 10.33 4.51125 10.66 5 11 C3.625 12.5 3.625 12.5 2 14 C1.34 14 0.68 14 0 14 C0 9.38 0 4.76 0 0 Z " fill="#DEF1F0" transform="translate(542,452)"/>
<path d="M0 0 C0.99 0 1.98 0 3 0 C2.67 0.99 2.34 1.98 2 3 C1.360625 3.309375 0.72125 3.61875 0.0625 3.9375 C-2.4790234 5.24676963 -2.85049752 6.45467308 -4 9 C-4.99 9.495 -4.99 9.495 -6 10 C-4.63356852 6.01457486 -2.89890986 3.07460137 0 0 Z " fill="#8EB4B8" transform="translate(432,365)"/>
<path d="M0 0 C2 2 2 2 2 6 C3.32 6 4.64 6 6 6 C6 6.66 6 7.32 6 8 C4.02 8.66 2.04 9.32 0 10 C0 6.7 0 3.4 0 0 Z " fill="#15262D" transform="translate(352,329)"/>
<path d="M0 0 C0.33 0 0.66 0 1 0 C0.91291331 1.45945288 0.80473093 2.91765868 0.6875 4.375 C0.62949219 5.18710937 0.57148438 5.99921875 0.51171875 6.8359375 C0 9 0 9 -3 11 C-2.44894091 7.0507432 -1.61064629 3.65079826 0 0 Z " fill="#CDE5EA" transform="translate(316,643)"/>
<path d="M0 0 C0.33 0.99 0.66 1.98 1 3 C0.01 3.495 0.01 3.495 -1 4 C-0.67 2.68 -0.34 1.36 0 0 Z M-4 4 C-3.01 4 -2.02 4 -1 4 C-1.3125 5.875 -1.3125 5.875 -2 8 C-2.99 8.66 -3.98 9.32 -5 10 C-4.67 8.02 -4.34 6.04 -4 4 Z " fill="#D5F0EF" transform="translate(253,655)"/>
<path d="M0 0 C0 0.66 0 1.32 0 2 C-0.99 2.66 -1.98 3.32 -3 4 C-3.73343428 7.06556598 -3.73343428 7.06556598 -4 10 C-4.33 10 -4.66 10 -5 10 C-5.29296875 3.9453125 -5.29296875 3.9453125 -5 2 C-2 0 -2 0 0 0 Z " fill="#5D7A85" transform="translate(547,489)"/>
<path d="M0 0 C2.31 1.98 4.62 3.96 7 6 C4 6 4 6 1 5 C0.67 3.35 0.34 1.7 0 0 Z " fill="#67888F" transform="translate(448,469)"/>
</svg>
