<?xml version="1.0" encoding="UTF-8"?>
<svg version="1.1" xmlns="http://www.w3.org/2000/svg" width="1024" height="1024">
<path d="M0 0 C337.92 0 675.84 0 1024 0 C1024 337.92 1024 675.84 1024 1024 C686.08 1024 348.16 1024 0 1024 C0 686.08 0 348.16 0 0 Z " fill="#0C1E36" transform="translate(0,0)"/>
<path d="M0 0 C9.61761853 4.82484785 18.80913019 10.50640184 28.01660156 16.05957031 C32.94572357 19.01770271 37.90908319 21.91668906 42.875 24.8125 C43.86459717 25.39016113 44.85419434 25.96782227 45.8737793 26.56298828 C53.90832831 31.24050703 61.99066543 35.83081907 70.10131836 40.375 C74.36762674 42.76990166 78.60543554 45.1960942 82.79296875 47.7265625 C88.75528897 51.32826202 94.81706067 54.74994592 100.875 58.1875 C112.68545247 64.90716212 124.39314058 71.78521149 136.0703125 78.734375 C143.27794641 83.02201441 150.51183627 87.26416104 157.75 91.5 C167.2571353 97.06448191 176.75372477 102.64603765 186.2265625 108.26879883 C190.53115274 110.81920401 194.84843905 113.34158701 199.19921875 115.8125 C224.95318883 130.4421483 224.95318883 130.4421483 229.9375 144.8125 C231.11695821 150.2439579 231.08572987 155.56736268 231.08467102 161.09609985 C231.08834771 162.12998191 231.0920244 163.16386397 231.0958125 164.22907579 C231.10682333 167.69259855 231.11068877 171.15609128 231.11450195 174.61962891 C231.12076853 177.1034759 231.1274155 179.58732196 231.13441467 182.07116699 C231.15361852 189.52299535 231.16423881 196.97481573 231.17314246 204.42666155 C231.17753214 207.94068557 231.18289712 211.45470809 231.18813133 214.96873093 C231.20513788 226.65781911 231.21963108 238.34690637 231.22688007 250.03600502 C231.22878978 253.06615831 231.23071015 256.09631159 231.23266602 259.12646484 C231.23314976 259.87954026 231.2336335 260.63261568 231.2341319 261.40851156 C231.24242874 273.60240577 231.26776236 285.79620178 231.30024669 297.99005313 C231.33336451 310.52440053 231.35133303 323.05869809 231.35452431 335.59308946 C231.35668487 342.62457716 231.36536688 349.65592157 231.39098549 356.68736649 C231.41504032 363.30463146 231.41848863 369.92168561 231.40822411 376.53900146 C231.40772929 378.96248608 231.4140335 381.38598349 231.42778015 383.80942917 C231.57645615 411.58245535 231.57645615 411.58245535 222.20703125 423.6796875 C215.55969212 429.92658451 207.06235349 434.14015579 199.1875 438.625 C196.87187302 439.95222531 194.55668418 441.28018267 192.2421875 442.609375 C191.64600616 442.951465 191.04982483 443.29355499 190.43557739 443.64601135 C183.70309135 447.51337355 177.00695712 451.44229661 170.3125 455.375 C167.87766606 456.80479292 165.44274717 458.23444114 163.0078125 459.6640625 C162.41389709 460.0128244 161.81998169 460.3615863 161.20806885 460.72091675 C154.22588917 464.81967273 147.23216146 468.89866248 140.23266602 472.96777344 C135.7540957 475.5736816 131.286606 478.19425282 126.84765625 480.8671875 C126.06551758 481.33584229 125.28337891 481.80449707 124.47753906 482.28735352 C123.04734472 483.14619117 121.62058204 484.01078438 120.19824219 484.88256836 C116.75783016 486.94407104 113.87351573 488.13337298 109.9375 488.8125 C109.6075 489.4725 109.2775 490.1325 108.9375 490.8125 C107.9475 490.8125 106.9575 490.8125 105.9375 490.8125 C105.6075 491.8025 105.2775 492.7925 104.9375 493.8125 C103.00170898 495.21606445 103.00170898 495.21606445 100.43359375 496.67578125 C99.47662598 497.22621094 98.5196582 497.77664063 97.53369141 498.34375 C96.49132324 498.9315625 95.44895508 499.519375 94.375 500.125 C92.18345941 501.3812761 89.9920572 502.63779362 87.80078125 503.89453125 C86.10236084 504.86253662 86.10236084 504.86253662 84.36962891 505.85009766 C78.91371945 508.96964526 73.48880707 512.14183766 68.0625 515.3125 C67.09626709 515.87493408 66.13003418 516.43736816 65.13452148 517.0168457 C59.75419653 520.15112887 54.40340598 523.32666216 49.08789062 526.56982422 C46.14727715 528.26915694 43.07979855 529.5323043 39.9375 530.8125 C31.13844718 534.61062537 31.13844718 534.61062537 23.625 540.22265625 C21.26524891 542.44584767 18.62405667 543.69824672 15.75 545.1875 C7.05407832 549.43976618 7.05407832 549.43976618 -0.5234375 555.328125 C-5.25983763 559.89622665 -11.13947989 559.4570036 -17.35693359 559.52978516 C-26.82429056 559.26367759 -33.46968093 555.08886579 -41.0625 549.8125 C-41.92230469 549.24402344 -42.78210938 548.67554688 -43.66796875 548.08984375 C-45.09602835 547.14201658 -46.51597974 546.18180829 -47.92578125 545.20703125 C-51.28330765 543.01573888 -54.83476938 541.20015067 -58.37109375 539.31640625 C-60.89276259 537.90734601 -63.24833144 536.38893723 -65.625 534.75 C-68.54650659 532.74411238 -71.45329082 531.06089085 -74.6484375 529.53125 C-80.30450429 526.7434576 -85.7032771 523.589718 -91.125 520.375 C-99.48446116 515.45476725 -107.89339135 510.64382409 -116.375 505.9375 C-127.91398367 499.51696202 -139.28258223 492.83136851 -150.61898804 486.06072998 C-155.13422692 483.36406731 -159.65568096 480.67801872 -164.1796875 477.99609375 C-178.06011086 469.76658729 -191.92899927 461.51900657 -205.75585938 453.19970703 C-209.01534288 451.23946303 -212.27692811 449.28273313 -215.5390625 447.3269043 C-217.20670756 446.32609138 -218.8733932 445.32367785 -220.5390625 444.31958008 C-224.83361507 441.73328062 -229.14336488 439.17953081 -233.484375 436.671875 C-234.37640625 436.15109375 -235.2684375 435.6303125 -236.1875 435.09375 C-237.8743822 434.10973538 -239.56670496 433.13495706 -241.265625 432.171875 C-248.97784978 427.64736979 -255.80703488 422.22668897 -259 413.625 C-259.38027344 412.64144531 -259.76054687 411.65789062 -260.15234375 410.64453125 C-261.48902867 406.48531852 -262.18653318 402.61315364 -262.19672108 398.24555779 C-262.20117892 397.35412036 -262.20563676 396.46268293 -262.21022969 395.54423225 C-262.21004533 394.57410796 -262.20986097 393.60398367 -262.20967102 392.60446167 C-262.21334771 391.56664492 -262.2170244 390.52882817 -262.2208125 389.45956242 C-262.23183871 385.9767801 -262.23569139 382.49402763 -262.23950195 379.01123047 C-262.24576739 376.51605637 -262.25241426 374.0208832 -262.25941467 371.52571106 C-262.27863139 364.03490865 -262.28924106 356.54411417 -262.29814246 349.05329436 C-262.30253018 345.52220395 -262.30789571 341.99111502 -262.31313133 338.46002579 C-262.33014003 326.71607462 -262.3446333 314.97212436 -262.35188007 303.22816277 C-262.35378984 300.18270746 -262.35571019 297.13725215 -262.35766602 294.09179688 C-262.35814976 293.33490303 -262.3586335 292.57800919 -262.3591319 291.79817916 C-262.36742893 279.54211405 -262.3927619 267.28614664 -262.42524669 255.03012417 C-262.45835465 242.43592261 -262.47633218 229.84177064 -262.47952431 217.24752533 C-262.48168589 210.18084343 -262.49038274 203.11430403 -262.51598549 196.04766464 C-262.54002403 189.39758524 -262.54349476 182.74771566 -262.53322411 176.09758568 C-262.53272891 173.66078146 -262.53904431 171.22396458 -262.55278015 168.78719902 C-262.57052422 165.45197433 -262.56337967 162.11766634 -262.55024719 158.78244019 C-262.56121644 157.82570022 -262.57218568 156.86896026 -262.58348733 155.88322818 C-262.49246379 146.26115391 -259.57633602 137.38263575 -253.31640625 129.97265625 C-248.50950877 125.36569905 -242.77615477 122.15099463 -237.0625 118.8125 C-236.23073242 118.32185059 -235.39896484 117.83120117 -234.54199219 117.32568359 C-229.62204941 114.42538532 -224.6886574 111.5490641 -219.74609375 108.6875 C-213.28669034 104.94759278 -206.84648894 101.17566249 -200.40979004 97.3968811 C-188.91707796 90.65052317 -177.41256665 83.9245924 -165.8984375 77.21484375 C-161.92250699 74.89789131 -157.94875891 72.57725446 -153.9765625 70.25390625 C-143.7193129 64.25678021 -133.44451004 58.29429714 -123.12060547 52.41259766 C-116.23275994 48.48718316 -109.36439648 44.52875558 -102.5 40.5625 C-84.15322955 29.97234167 -65.80513427 19.38783833 -47.27700806 9.11715698 C-46.02828965 8.42474688 -44.78020085 7.73119988 -43.5328064 7.03640747 C-28.81684947 -1.15254698 -16.43584156 -7.78774958 0 0 Z " fill="#0F213B" transform="translate(538.0625,164.1875)"/>
<path d="M0 0 C9.61761853 4.82484785 18.80913019 10.50640184 28.01660156 16.05957031 C32.94572357 19.01770271 37.90908319 21.91668906 42.875 24.8125 C43.86459717 25.39016113 44.85419434 25.96782227 45.8737793 26.56298828 C53.90832831 31.24050703 61.99066543 35.83081907 70.10131836 40.375 C74.36762674 42.76990166 78.60543554 45.1960942 82.79296875 47.7265625 C88.75528897 51.32826202 94.81706067 54.74994592 100.875 58.1875 C112.68545247 64.90716212 124.39314058 71.78521149 136.0703125 78.734375 C143.27794641 83.02201441 150.51183627 87.26416104 157.75 91.5 C167.2571353 97.06448191 176.75372477 102.64603765 186.2265625 108.26879883 C190.53115274 110.81920401 194.84843905 113.34158701 199.19921875 115.8125 C224.95318883 130.4421483 224.95318883 130.4421483 229.9375 144.8125 C231.11695821 150.2439579 231.08572987 155.56736268 231.08467102 161.09609985 C231.08834771 162.12998191 231.0920244 163.16386397 231.0958125 164.22907579 C231.10682333 167.69259855 231.11068877 171.15609128 231.11450195 174.61962891 C231.12076853 177.1034759 231.1274155 179.58732196 231.13441467 182.07116699 C231.15361852 189.52299535 231.16423881 196.97481573 231.17314246 204.42666155 C231.17753214 207.94068557 231.18289712 211.45470809 231.18813133 214.96873093 C231.20513788 226.65781911 231.21963108 238.34690637 231.22688007 250.03600502 C231.22878978 253.06615831 231.23071015 256.09631159 231.23266602 259.12646484 C231.23314976 259.87954026 231.2336335 260.63261568 231.2341319 261.40851156 C231.24242874 273.60240577 231.26776236 285.79620178 231.30024669 297.99005313 C231.33336451 310.52440053 231.35133303 323.05869809 231.35452431 335.59308946 C231.35668487 342.62457716 231.36536688 349.65592157 231.39098549 356.68736649 C231.41504032 363.30463146 231.41848863 369.92168561 231.40822411 376.53900146 C231.40772929 378.96248608 231.4140335 381.38598349 231.42778015 383.80942917 C231.57645615 411.58245535 231.57645615 411.58245535 222.20703125 423.6796875 C215.55969212 429.92658451 207.06235349 434.14015579 199.1875 438.625 C196.87187302 439.95222531 194.55668418 441.28018267 192.2421875 442.609375 C191.64600616 442.951465 191.04982483 443.29355499 190.43557739 443.64601135 C183.70309135 447.51337355 177.00695712 451.44229661 170.3125 455.375 C167.87766606 456.80479292 165.44274717 458.23444114 163.0078125 459.6640625 C162.41389709 460.0128244 161.81998169 460.3615863 161.20806885 460.72091675 C154.22588917 464.81967273 147.23216146 468.89866248 140.23266602 472.96777344 C135.7540957 475.5736816 131.286606 478.19425282 126.84765625 480.8671875 C126.06551758 481.33584229 125.28337891 481.80449707 124.47753906 482.28735352 C123.04734472 483.14619117 121.62058204 484.01078438 120.19824219 484.88256836 C116.75783016 486.94407104 113.87351573 488.13337298 109.9375 488.8125 C109.6075 489.4725 109.2775 490.1325 108.9375 490.8125 C107.9475 490.8125 106.9575 490.8125 105.9375 490.8125 C105.6075 491.8025 105.2775 492.7925 104.9375 493.8125 C103.00170898 495.21606445 103.00170898 495.21606445 100.43359375 496.67578125 C99.47662598 497.22621094 98.5196582 497.77664063 97.53369141 498.34375 C96.49132324 498.9315625 95.44895508 499.519375 94.375 500.125 C92.18345941 501.3812761 89.9920572 502.63779362 87.80078125 503.89453125 C86.10236084 504.86253662 86.10236084 504.86253662 84.36962891 505.85009766 C78.91371945 508.96964526 73.48880707 512.14183766 68.0625 515.3125 C67.09626709 515.87493408 66.13003418 516.43736816 65.13452148 517.0168457 C59.75419653 520.15112887 54.40340598 523.32666216 49.08789062 526.56982422 C46.14727715 528.26915694 43.07979855 529.5323043 39.9375 530.8125 C31.13844718 534.61062537 31.13844718 534.61062537 23.625 540.22265625 C21.26524891 542.44584767 18.62405667 543.69824672 15.75 545.1875 C7.05407832 549.43976618 7.05407832 549.43976618 -0.5234375 555.328125 C-5.25983763 559.89622665 -11.13947989 559.4570036 -17.35693359 559.52978516 C-26.82429056 559.26367759 -33.46968093 555.08886579 -41.0625 549.8125 C-41.92230469 549.24402344 -42.78210938 548.67554688 -43.66796875 548.08984375 C-45.09602835 547.14201658 -46.51597974 546.18180829 -47.92578125 545.20703125 C-51.28330765 543.01573888 -54.83476938 541.20015067 -58.37109375 539.31640625 C-60.89276259 537.90734601 -63.24833144 536.38893723 -65.625 534.75 C-68.54650659 532.74411238 -71.45329082 531.06089085 -74.6484375 529.53125 C-80.30450429 526.7434576 -85.7032771 523.589718 -91.125 520.375 C-99.48446116 515.45476725 -107.89339135 510.64382409 -116.375 505.9375 C-127.91398367 499.51696202 -139.28258223 492.83136851 -150.61898804 486.06072998 C-155.13422692 483.36406731 -159.65568096 480.67801872 -164.1796875 477.99609375 C-178.06011086 469.76658729 -191.92899927 461.51900657 -205.75585938 453.19970703 C-209.01534288 451.23946303 -212.27692811 449.28273313 -215.5390625 447.3269043 C-217.20670756 446.32609138 -218.8733932 445.32367785 -220.5390625 444.31958008 C-224.83361507 441.73328062 -229.14336488 439.17953081 -233.484375 436.671875 C-234.37640625 436.15109375 -235.2684375 435.6303125 -236.1875 435.09375 C-237.8743822 434.10973538 -239.56670496 433.13495706 -241.265625 432.171875 C-248.97784978 427.64736979 -255.80703488 422.22668897 -259 413.625 C-259.38027344 412.64144531 -259.76054687 411.65789062 -260.15234375 410.64453125 C-261.48902867 406.48531852 -262.18653318 402.61315364 -262.19672108 398.24555779 C-262.20117892 397.35412036 -262.20563676 396.46268293 -262.21022969 395.54423225 C-262.21004533 394.57410796 -262.20986097 393.60398367 -262.20967102 392.60446167 C-262.21334771 391.56664492 -262.2170244 390.52882817 -262.2208125 389.45956242 C-262.23183871 385.9767801 -262.23569139 382.49402763 -262.23950195 379.01123047 C-262.24576739 376.51605637 -262.25241426 374.0208832 -262.25941467 371.52571106 C-262.27863139 364.03490865 -262.28924106 356.54411417 -262.29814246 349.05329436 C-262.30253018 345.52220395 -262.30789571 341.99111502 -262.31313133 338.46002579 C-262.33014003 326.71607462 -262.3446333 314.97212436 -262.35188007 303.22816277 C-262.35378984 300.18270746 -262.35571019 297.13725215 -262.35766602 294.09179688 C-262.35814976 293.33490303 -262.3586335 292.57800919 -262.3591319 291.79817916 C-262.36742893 279.54211405 -262.3927619 267.28614664 -262.42524669 255.03012417 C-262.45835465 242.43592261 -262.47633218 229.84177064 -262.47952431 217.24752533 C-262.48168589 210.18084343 -262.49038274 203.11430403 -262.51598549 196.04766464 C-262.54002403 189.39758524 -262.54349476 182.74771566 -262.53322411 176.09758568 C-262.53272891 173.66078146 -262.53904431 171.22396458 -262.55278015 168.78719902 C-262.57052422 165.45197433 -262.56337967 162.11766634 -262.55024719 158.78244019 C-262.56121644 157.82570022 -262.57218568 156.86896026 -262.58348733 155.88322818 C-262.49246379 146.26115391 -259.57633602 137.38263575 -253.31640625 129.97265625 C-248.50950877 125.36569905 -242.77615477 122.15099463 -237.0625 118.8125 C-236.23073242 118.32185059 -235.39896484 117.83120117 -234.54199219 117.32568359 C-229.62204941 114.42538532 -224.6886574 111.5490641 -219.74609375 108.6875 C-213.28669034 104.94759278 -206.84648894 101.17566249 -200.40979004 97.3968811 C-188.91707796 90.65052317 -177.41256665 83.9245924 -165.8984375 77.21484375 C-161.92250699 74.89789131 -157.94875891 72.57725446 -153.9765625 70.25390625 C-143.7193129 64.25678021 -133.44451004 58.29429714 -123.12060547 52.41259766 C-116.23275994 48.48718316 -109.36439648 44.52875558 -102.5 40.5625 C-84.15322955 29.97234167 -65.80513427 19.38783833 -47.27700806 9.11715698 C-46.02828965 8.42474688 -44.78020085 7.73119988 -43.5328064 7.03640747 C-28.81684947 -1.15254698 -16.43584156 -7.78774958 0 0 Z M-22.30078125 43.9453125 C-23.10781494 44.41420898 -23.91484863 44.88310547 -24.74633789 45.36621094 C-25.61379639 45.88473633 -26.48125488 46.40326172 -27.375 46.9375 C-28.75836548 47.74622559 -28.75836548 47.74622559 -30.16967773 48.57128906 C-32.13860452 49.72358971 -34.10476106 50.88063473 -36.06835938 52.04199219 C-39.93320436 54.32736856 -43.81140282 56.58946013 -47.69018555 58.85107422 C-49.6689942 60.00500889 -51.64700503 61.16031263 -53.62426758 62.31689453 C-60.81739847 66.52066489 -68.04022765 70.67048127 -75.27853394 74.79574585 C-94.08521827 85.51443312 -112.78067797 96.38749795 -131.25378418 107.67199707 C-138.88554588 112.32972671 -146.56083177 116.86351728 -154.41088867 121.14428711 C-161.62401439 125.08452232 -168.70457189 129.24378707 -175.78735352 133.4128418 C-180.99979036 136.4726867 -186.23296905 139.47762337 -191.53125 142.38671875 C-192.57450439 142.96252686 -193.61775879 143.53833496 -194.69262695 144.1315918 C-196.67764204 145.22293004 -198.66810991 146.30442973 -200.66479492 147.37426758 C-206.57400706 150.63231108 -210.96735338 153.62220676 -214.0625 159.8125 C-214.16733315 162.79278087 -214.21029294 165.75005051 -214.20967102 168.73086548 C-214.21334771 169.66614684 -214.2170244 170.60142821 -214.2208125 171.56505144 C-214.23188053 174.71866605 -214.23569848 177.87224775 -214.23950195 181.02587891 C-214.24576432 183.27917588 -214.25241091 185.53247181 -214.25941467 187.7857666 C-214.27684709 193.92234966 -214.28738283 200.0589249 -214.2956202 206.1955266 C-214.30076625 210.02788841 -214.3068422 213.86024779 -214.31313133 217.69260788 C-214.33000539 228.30410028 -214.3446395 238.91559053 -214.35188007 249.52709389 C-214.35378997 252.28157172 -214.3557103 255.03604954 -214.35766602 257.79052734 C-214.35814976 258.47513925 -214.3586335 259.15975117 -214.3591319 259.86510889 C-214.3674281 270.94972183 -214.3927568 282.03422671 -214.42524669 293.11879249 C-214.45833495 304.50038564 -214.47599787 315.88190459 -214.47952431 327.26355302 C-214.48187661 333.65335002 -214.49086037 340.04297634 -214.51598549 346.43272781 C-214.53924675 352.4458663 -214.54350707 358.45872151 -214.53322411 364.47189331 C-214.53272814 366.67774777 -214.53906626 368.88361607 -214.55278015 371.08942795 C-214.57047202 374.10403575 -214.56340566 377.11762407 -214.55024719 380.13223267 C-214.56121644 381.0024838 -214.57218568 381.87273494 -214.58348733 382.76935732 C-214.50675845 390.06478111 -212.54611893 395.37799218 -207.296875 400.5234375 C-203.73271151 403.04590104 -200.10599125 405.28221764 -196.3125 407.4375 C-194.77655521 408.32546033 -193.24142245 409.21482651 -191.70703125 410.10546875 C-190.9279541 410.55712402 -190.14887695 411.0087793 -189.34619141 411.47412109 C-185.86523632 413.51416768 -182.4334614 415.63133471 -179 417.75 C-159.23292272 429.90079429 -139.18961565 441.61329606 -119.1328125 453.27734375 C-112.79235086 456.96559302 -106.46608922 460.6778594 -100.14007568 464.39080811 C-78.78357362 476.94310406 -78.78357362 476.94310406 -57.25 489.1875 C-50.63165754 492.88501183 -44.08988876 496.70691023 -37.5625 500.5625 C-36.64235107 501.10567871 -35.72220215 501.64885742 -34.77416992 502.20849609 C-30.04534358 505.01073165 -25.36347034 507.85615148 -20.7668457 510.87133789 C-17.58889821 512.62624228 -15.60094533 512.47221015 -12.0625 511.8125 C-8.19758912 510.1570991 -4.65209862 507.98512672 -1.0625 505.8125 C0.45669238 504.90568205 1.9762522 503.9994795 3.49609375 503.09375 C6.93460818 501.0393362 10.36735944 498.9756476 13.796875 496.90625 C23.23400878 491.21714766 32.7260247 485.62141793 42.3125 480.1875 C52.21663725 474.55238743 61.9888398 468.69042193 71.78512573 462.87065125 C78.23806853 459.03799057 84.70181511 455.22365113 91.16796875 451.41333008 C96.15351485 448.47135932 101.12370251 445.50453443 106.0859375 442.5234375 C113.97948424 437.78142948 121.89354484 433.07442219 129.8125 428.375 C131.22762124 427.53475068 132.64274167 426.69450002 134.05786133 425.85424805 C141.23645818 421.59319401 148.4223165 417.34524854 155.625 413.125 C160.51376766 410.25216856 165.39720736 407.37077697 170.25 404.4375 C171.25675781 403.83164062 172.26351563 403.22578125 173.30078125 402.6015625 C177.29584957 399.89083466 180.04281766 397.2732515 181.9375 392.8125 C182.23480915 390.80159334 182.23480915 390.80159334 182.19476891 388.67981052 C182.20444224 387.44981763 182.20444224 387.44981763 182.214311 386.19497639 C182.2112138 385.29955645 182.2081166 384.40413652 182.20492554 383.48158264 C182.21172221 382.04842096 182.21172221 382.04842096 182.21865618 380.58630651 C182.23134243 377.37658066 182.22967709 374.16702358 182.22802734 370.95727539 C182.23400989 368.65940634 182.2408148 366.3615393 182.24838257 364.06367493 C182.26607612 357.81583073 182.27073932 351.56804128 182.27201414 345.32017446 C182.27391127 340.10870579 182.28126653 334.89724993 182.28835833 329.68578619 C182.30372104 318.09619561 182.3096951 306.50663178 182.30834763 294.91703183 C182.30826772 294.2216501 182.3081878 293.52626836 182.30810547 292.80981445 C182.30798283 291.76546901 182.30798283 291.76546901 182.30785771 290.70002567 C182.30704456 279.41304529 182.32618972 268.12619827 182.3543822 256.83925647 C182.3830995 245.2508169 182.39655675 233.66244853 182.39519465 222.07397264 C182.39468397 215.56749946 182.40042573 209.06117722 182.42155075 202.55473518 C182.44087004 196.43732911 182.44110076 190.32021898 182.42651749 184.20280266 C182.42442055 181.95537765 182.42918261 179.70793442 182.4412384 177.46054077 C182.45661121 174.39680959 182.44743516 171.33410905 182.43197632 168.270401 C182.44740701 166.93061718 182.44740701 166.93061718 182.46314943 165.56376702 C182.41790183 161.51696735 182.27903148 159.36397209 180.10630226 155.85565853 C177.27963636 153.19274792 174.18250126 151.31511799 170.8125 149.4375 C170.08820801 149.02250244 169.36391602 148.60750488 168.61767578 148.17993164 C166.98310959 147.24399165 165.34606529 146.31237093 163.70703125 145.38427734 C158.39245737 142.36812549 153.10527666 139.30418247 147.8125 136.25 C146.67643311 135.59580078 145.54036621 134.94160156 144.36987305 134.26757812 C137.60424667 130.36805897 130.88433996 126.40947509 124.203125 122.3671875 C118.12693124 118.70982163 111.99568107 115.14470503 105.875 111.5625 C97.21914036 106.49595718 88.56819606 101.42185261 79.9375 96.3125 C61.27829914 85.27595844 42.59408044 74.29151575 23.75289917 63.56814575 C15.58940918 58.92049681 7.46135893 54.21815701 -0.625 49.4375 C-1.54144287 48.89577148 -2.45788574 48.35404297 -3.40209961 47.79589844 C-6.66939681 45.85706964 -9.90053982 43.92047345 -13.0625 41.8125 C-16.84231445 41.40949247 -19.05810541 42.03154106 -22.30078125 43.9453125 Z " fill="#CADBE9" transform="translate(538.0625,164.1875)"/>
<path d="M0 0 C17.74514646 15.20373929 30.3814668 33.53135896 41.06323242 54.16064453 C41.61495117 55.20994141 42.16666992 56.25923828 42.73510742 57.34033203 C51.06660145 74.22728497 55.95375085 92.66741202 59.06323242 111.16064453 C59.68391602 111.27601563 60.30459961 111.39138672 60.9440918 111.51025391 C61.7568457 111.67332031 62.56959961 111.83638672 63.40698242 112.00439453 C64.21329102 112.16101563 65.01959961 112.31763672 65.8503418 112.47900391 C69.09439263 113.47827464 70.35599366 115.3152466 72.06323242 118.16064453 C73.82539367 121.68496703 72.98306576 125.42985196 72.06323242 129.16064453 C70.00073242 132.22314453 70.00073242 132.22314453 67.06323242 134.16064453 C64.37067249 134.41076247 61.77460055 134.24667566 59.06323242 134.16064453 C59.10963867 135.19318359 59.15604492 136.22572266 59.20385742 137.28955078 C59.92796337 161.07173266 54.47810365 186.71511277 44.06323242 208.16064453 C43.73371582 208.84271973 43.40419922 209.52479492 43.06469727 210.22753906 C34.04928976 228.67299174 22.85308737 244.38768049 8.33666992 258.88330078 C6.14999032 261.01385126 6.14999032 261.01385126 4.62573242 262.84814453 C3.06323242 264.16064453 3.06323242 264.16064453 0.00073242 265.09814453 C-3.54610159 266.38104194 -3.36382423 266.96819044 -4.93676758 270.16064453 C-6.56567383 271.62109375 -6.56567383 271.62109375 -8.49926758 272.96533203 C-9.20921875 273.46371582 -9.91916992 273.96209961 -10.65063477 274.47558594 C-11.40505859 274.99040527 -12.15948242 275.50522461 -12.93676758 276.03564453 C-13.70408203 276.56722168 -14.47139648 277.09879883 -15.26196289 277.64648438 C-32.03807563 289.18315743 -32.03807563 289.18315743 -40.93676758 291.16064453 C-40.93676758 291.82064453 -40.93676758 292.48064453 -40.93676758 293.16064453 C-42.25676758 293.16064453 -43.57676758 293.16064453 -44.93676758 293.16064453 C-44.93676758 293.82064453 -44.93676758 294.48064453 -44.93676758 295.16064453 C-53.15637173 298.00795839 -53.15637173 298.00795839 -56.81176758 298.72314453 C-59.22448287 299.0812461 -59.22448287 299.0812461 -61.93676758 301.16064453 C-64.26876145 301.23969517 -66.6050938 301.24863222 -68.93676758 301.16064453 C-68.93676758 301.82064453 -68.93676758 302.48064453 -68.93676758 303.16064453 C-69.86360352 303.36560547 -70.79043945 303.57056641 -71.74536133 303.78173828 C-72.94290039 304.05115234 -74.14043945 304.32056641 -75.37426758 304.59814453 C-76.56922852 304.86498047 -77.76418945 305.13181641 -78.99536133 305.40673828 C-81.80723618 305.86131201 -81.80723618 305.86131201 -82.93676758 307.16064453 C-85.26974191 307.20157391 -87.60381982 307.20306176 -89.93676758 307.16064453 C-89.003294 305.40849347 -88.06481438 303.6590089 -87.12426758 301.91064453 C-86.60219727 300.93611328 -86.08012695 299.96158203 -85.54223633 298.95751953 C-84.14549584 296.52426845 -82.62526963 294.39101543 -80.93676758 292.16064453 C-80.60676758 291.31501953 -80.27676758 290.46939453 -79.93676758 289.59814453 C-78.88826635 287.04242278 -77.85430519 286.07818214 -75.93676758 284.16064453 C-75.25614258 282.76845703 -75.25614258 282.76845703 -74.56176758 281.34814453 C-72.93676758 278.16064453 -72.93676758 278.16064453 -70.37426758 275.09814453 C-68.12060671 272.38219426 -67.16059976 270.39505817 -65.93676758 267.16064453 C-64.43676758 265.34814453 -64.43676758 265.34814453 -62.93676758 264.16064453 C-62.27676758 264.16064453 -61.61676758 264.16064453 -60.93676758 264.16064453 C-61.26676758 263.17064453 -61.59676758 262.18064453 -61.93676758 261.16064453 C-61.0737392 259.77979913 -60.19256712 258.40814355 -59.24145508 257.08642578 C-57.65995479 254.75205559 -56.33870215 252.32922153 -54.99926758 249.84814453 C-54.48364258 248.89552734 -53.96801758 247.94291016 -53.43676758 246.96142578 C-52.51169032 245.23413308 -51.59351378 243.50309898 -50.68676758 241.76611328 C-48.54085003 237.73545895 -46.23784529 234.16238487 -43.37426758 230.59814453 C-37.52383515 223.2693091 -34.44812676 214.79513432 -30.93676758 206.16064453 C-30.27676758 206.16064453 -29.61676758 206.16064453 -28.93676758 206.16064453 C-29.26676758 205.17064453 -29.59676758 204.18064453 -29.93676758 203.16064453 C-29.13468468 200.26080635 -28.18792658 197.64900927 -26.81176758 194.97314453 C-25.71939305 193.04581126 -25.71939305 193.04581126 -25.93676758 190.16064453 C-25.60680419 188.49330742 -25.27281196 186.82676669 -24.93676758 185.16064453 C-24.61216047 182.72472731 -24.30070378 180.28703746 -23.99926758 177.84814453 C-23.46298701 173.59823736 -22.86231903 169.42950499 -21.74926758 165.28564453 C-21.48114258 164.25439453 -21.21301758 163.22314453 -20.93676758 162.16064453 C-21.26676758 161.83064453 -21.59676758 161.50064453 -21.93676758 161.16064453 C-22.09331785 159.67425461 -22.18743701 158.18115326 -22.25317383 156.68798828 C-22.29506836 155.78886719 -22.33696289 154.88974609 -22.38012695 153.96337891 C-22.41944336 153.01785156 -22.45875977 152.07232422 -22.49926758 151.09814453 C-22.54245117 150.14875 -22.58563477 149.19935547 -22.63012695 148.22119141 C-22.73656034 145.867831 -22.83857766 143.51436099 -22.93676758 141.16064453 C-26.62531723 141.11657584 -29.97836896 141.16769561 -33.62426758 141.78564453 C-37.18234381 142.18844561 -38.0319672 142.04124239 -40.93676758 140.16064453 C-42.38598633 138.32080078 -42.38598633 138.32080078 -43.62426758 136.22314453 C-44.04063477 135.53349609 -44.45700195 134.84384766 -44.88598633 134.13330078 C-45.93676758 132.16064453 -45.93676758 132.16064453 -46.93676758 129.16064453 C-48.93693224 127.95182357 -48.93693224 127.95182357 -50.93676758 127.16064453 C-50.93676758 126.17064453 -50.93676758 125.18064453 -50.93676758 124.16064453 C-51.61739258 124.14001953 -52.29801758 124.11939453 -52.99926758 124.09814453 C-56.12265123 123.10131996 -56.93707179 122.35241353 -59.12426758 120.03564453 C-73.66959437 104.7412022 -94.14771187 98.50836393 -114.49926758 96.03564453 C-116.95911161 95.7221731 -119.41875032 95.40708588 -121.87817383 95.09033203 C-123.0526709 94.94047852 -124.22716797 94.790625 -125.43725586 94.63623047 C-130.62452702 93.93127692 -135.78104085 93.06540829 -140.93676758 92.16064453 C-138.11449114 89.3383681 -134.72937145 88.66418959 -130.99926758 87.53564453 C-130.27030273 87.30619141 -129.54133789 87.07673828 -128.7902832 86.84033203 C-125.74337482 85.90196245 -123.14278543 85.16064453 -119.93676758 85.16064453 C-119.93676758 79.22064453 -119.93676758 73.28064453 -119.93676758 67.16064453 C-122.61479492 67.19931641 -122.61479492 67.19931641 -125.34692383 67.23876953 C-133.73052695 67.23423356 -142.0261514 66.61487563 -150.37426758 65.91064453 C-151.15870239 65.84606049 -151.94313721 65.78147644 -152.75134277 65.7149353 C-165.64770526 64.63881564 -178.27879592 62.90692252 -190.93676758 60.16064453 C-193.1805707 67.40032972 -195.15892819 74.6837005 -196.99926758 82.03564453 C-197.25514648 83.03466797 -197.51102539 84.03369141 -197.7746582 85.06298828 C-200.45920822 95.75978141 -202.10359081 106.43088124 -203.06176758 117.41064453 C-203.19131836 118.83183594 -203.19131836 118.83183594 -203.32348633 120.28173828 C-203.53190821 122.57437902 -203.73630909 124.86729626 -203.93676758 127.16064453 C-203.23293945 127.14904297 -202.52911133 127.13744141 -201.80395508 127.12548828 C-193.8042951 127.05238434 -185.90740952 127.50035467 -177.93676758 128.16064453 C-178.85828046 129.83301976 -179.79173144 131.49979936 -180.78051758 133.13330078 C-181.9805575 135.11574665 -181.9805575 135.11574665 -182.71801758 137.21923828 C-183.88525536 139.71974336 -184.53167357 140.73457578 -186.93676758 142.16064453 C-192.59039242 142.76753908 -198.33128517 141.89609371 -203.93676758 141.16064453 C-202.67970702 168.58091678 -200.64860414 195.16626651 -187.49926758 219.91064453 C-185.44612006 223.79483125 -184.44464714 226.46233342 -184.85864258 230.96923828 C-184.96506868 233.95449041 -184.43670631 236.71843752 -183.93676758 239.66064453 C-183.12067508 244.59742941 -182.74093606 249.16694091 -182.93676758 254.16064453 C-187.33750475 252.673909 -188.99657623 249.36011895 -191.18676758 245.53564453 C-191.57082764 244.87991455 -191.9548877 244.22418457 -192.35058594 243.54858398 C-195.22825341 238.56498982 -197.90953314 233.48652514 -200.49926758 228.34814453 C-200.84570312 227.66091309 -201.19213867 226.97368164 -201.54907227 226.265625 C-203.93676758 221.41813917 -203.93676758 221.41813917 -203.93676758 219.16064453 C-204.76926025 219.31210937 -205.60175293 219.46357422 -206.45947266 219.61962891 C-209.5508952 220.18080314 -212.64273 220.73963142 -215.73486328 221.296875 C-217.07259834 221.53844878 -218.41016544 221.78095459 -219.74755859 222.02441406 C-221.67085984 222.3743649 -223.59482193 222.72067761 -225.51879883 223.06689453 C-226.67613525 223.27636719 -227.83347168 223.48583984 -229.02587891 223.70166016 C-231.93676758 224.16064453 -231.93676758 224.16064453 -234.93676758 224.16064453 C-227.53450722 237.16747344 -215.84525689 248.30268605 -203.93676758 257.16064453 C-203.10097168 257.78495361 -203.10097168 257.78495361 -202.24829102 258.421875 C-195.41224014 263.50131094 -188.56718802 268.32524801 -180.93676758 272.16064453 C-180.93676758 272.82064453 -180.93676758 273.48064453 -180.93676758 274.16064453 C-179.88489258 274.53189453 -179.88489258 274.53189453 -178.81176758 274.91064453 C-174.82247191 276.64512091 -171.12342717 278.48853329 -168.56176758 282.09814453 C-167.82314476 284.53559984 -167.7960492 286.62771374 -167.93676758 289.16064453 C-167.27676758 289.49064453 -166.61676758 289.82064453 -165.93676758 290.16064453 C-162.93059489 293.16681722 -163.34091442 295.98446051 -162.93676758 300.16064453 C-166.53490459 301.95971304 -170.16385693 299.89547594 -173.82739258 298.72314453 C-195.71265164 290.81228624 -215.1464338 277.04709411 -231.93676758 261.16064453 C-232.75790039 260.39236328 -233.5790332 259.62408203 -234.42504883 258.83251953 C-265.70144805 228.67487176 -283.5374974 184.83672475 -285.05786133 141.72705078 C-285.06096654 139.53787874 -285.00850523 137.34864306 -284.93676758 135.16064453 C-285.96801758 135.24314453 -286.99926758 135.32564453 -288.06176758 135.41064453 C-292.60521909 135.11751863 -294.47837891 134.0560397 -297.93676758 131.16064453 C-300.52713106 127.74607449 -300.36785499 124.32782283 -299.93676758 120.16064453 C-297.9101052 116.45674432 -296.45632242 114.50701442 -292.93676758 112.16064453 C-290.57925823 111.95705996 -288.30470998 112.03403751 -285.94140625 112.10253906 C-285.27987549 112.12171387 -284.61834473 112.14088867 -283.93676758 112.16064453 C-283.88343262 111.60739502 -283.83009766 111.05414551 -283.77514648 110.48413086 C-279.43893306 68.29769162 -257.0146117 25.55232365 -224.43676758 -1.65185547 C-222.61579142 -3.06377177 -220.78199785 -4.4592877 -218.93676758 -5.83935547 C-217.9287207 -6.62439453 -216.92067383 -7.40943359 -215.88208008 -8.21826172 C-196.97311901 -22.61833735 -174.32846484 -32.80717752 -151.03149414 -37.41748047 C-148.99883837 -37.8268545 -146.98149226 -38.28382445 -144.96020508 -38.74560547 C-94.42368059 -49.48854432 -39.06620431 -32.63513458 0 0 Z " fill="#C9DCE6" transform="translate(635.936767578125,303.83935546875)"/>
<path d="M0 0 C1.05445313 0.41121094 2.10890625 0.82242187 3.1953125 1.24609375 C18.09150595 7.799641 28.69505286 20.28107327 34.56079102 35.22558594 C41.37369876 53.21084524 41.0592411 72.93071965 33.1574707 90.58447266 C29.02488783 99.37592371 24.0076433 107.68709103 19 116 C18.62649414 116.62132812 18.25298828 117.24265625 17.86816406 117.8828125 C16.47621139 120.19711218 15.08322297 122.51077644 13.68701172 124.82250977 C4.8355435 139.5333194 -3.60847362 154.49595952 -12.0625 169.4375 C-12.57393555 170.34113281 -13.08537109 171.24476563 -13.61230469 172.17578125 C-17.13425997 178.41851067 -20.58254083 184.69950848 -24 191 C-24.66 191 -25.32 191 -26 191 C-26.32049316 190.39865234 -26.64098633 189.79730469 -26.97119141 189.17773438 C-34.70926783 174.69244947 -42.72924329 160.41115002 -51.07421875 146.26757812 C-53.15980753 142.72884585 -55.23724082 139.18542051 -57.3125 135.640625 C-58.05208058 134.37760256 -58.79166392 133.11458173 -59.53125 131.8515625 C-59.89798828 131.22523926 -60.26472656 130.59891602 -60.64257812 129.95361328 C-66.86040557 119.33021875 -66.86040557 119.33021875 -73.125 108.734375 C-85.73274531 87.52510492 -94.11640591 67.17861603 -87.97241211 42.30126953 C-83.25702418 25.3024425 -72.76477266 11.9281003 -57.61328125 2.9453125 C-39.27975107 -7.29682764 -19.25756683 -7.90108048 0 0 Z " fill="#F3F8FA" transform="translate(548,423)"/>
<path d="M0 0 C0 24.42 0 48.84 0 74 C-27.67783149 74 -27.67783149 74 -36.4375 72.6875 C-37.41267578 72.55432373 -38.38785156 72.42114746 -39.39257812 72.28393555 C-47.96688579 71.08423529 -56.4974373 69.62888769 -65 68 C-63.16450355 62.00074244 -60.96960892 56.46287652 -58 50.9375 C-57.41460449 49.84622803 -57.41460449 49.84622803 -56.81738281 48.73291016 C-47.22688795 31.24102649 -34.10272451 11.91663267 -17 1 C-11.3543129 -0.60831615 -5.99196819 0 0 0 Z " fill="#0F213A" transform="translate(516,283)"/>
<path d="M0 0 C13.96190485 0 19.58690001 1.63140222 29.08203125 10.9765625 C40.04326726 22.15566602 65 50.72200119 65 68 C43.02698334 71.53482319 22.41817978 74 0 74 C0 49.58 0 25.16 0 0 Z " fill="#0E203A" transform="translate(530,283)"/>
<path d="M0 0 C7.36016649 21.67581676 13 43.9856552 13 67 C6.73 67.33 0.46 67.66 -6 68 C-6 66.68 -6 65.36 -6 64 C-7.9446149 60.61492962 -9.98670441 58.01329559 -12.75 55.25 C-13.4925 54.5075 -14.235 53.765 -15 53 C-15 52.34 -15 51.68 -15 51 C-15.88558594 50.60167969 -15.88558594 50.60167969 -16.7890625 50.1953125 C-19.05716052 48.96909696 -20.53352098 47.66648412 -22.375 45.875 C-31.09068759 38.19499741 -40.91908597 33.73613923 -51.8125 30.0625 C-52.68350342 29.76794922 -53.55450684 29.47339844 -54.4519043 29.16992188 C-60.18988519 27.33237127 -64.74559769 26.69493359 -71 26 C-71 19.73 -71 13.46 -71 7 C-67.24689453 6.74476563 -67.24689453 6.74476563 -63.41796875 6.484375 C-44.59974054 5.16551158 -26.03015572 3.54368789 -7.42724609 0.31958008 C-4.92344504 -0.0100795 -2.5224035 -0.05549626 0 0 Z " fill="#10223B" transform="translate(601,364)"/>
<path d="M0 0 C0.85202432 26.69676209 -4.62978971 55.07712679 -19 78 C-30.78488271 77.42561076 -42.34602389 75.77328609 -54 74 C-54 71.69 -54 69.38 -54 67 C-53.34 67 -52.68 67 -52 67 C-48.67229459 49.47915565 -46.16610022 32.32268408 -45.21777344 14.49414062 C-44.994612 11.93829164 -44.54915282 9.50431655 -44 7 C-38.53836219 5.99748722 -33.07571478 5.00074198 -27.61206055 4.00927734 C-25.75435125 3.67133529 -23.89692533 3.33183158 -22.03979492 2.99072266 C-19.36710788 2.50009828 -16.69344506 2.01513796 -14.01953125 1.53125 C-13.19226028 1.37813354 -12.36498932 1.22501709 -11.51264954 1.06726074 C-7.625607 0.36924883 -3.96890331 -0.19616821 0 0 Z " fill="#0E223D" transform="translate(674,436)"/>
<path d="M0 0 C11.31374883 20.2859226 23.13546566 43.89645453 23.02075195 67.69482422 C23.01625786 68.90560135 23.01625786 68.90560135 23.01167297 70.14083862 C23.00782089 70.75436188 23.00396881 71.36788513 23 72 C17.69935942 73.00383408 12.39744259 74.00052174 7.09423828 74.99072266 C5.29178987 75.32829739 3.48970018 75.66779352 1.68798828 76.00927734 C-0.90759961 76.50087682 -3.50441554 76.98546371 -6.1015625 77.46875 C-6.9017984 77.62186646 -7.7020343 77.77498291 -8.52651978 77.93273926 C-12.7475168 78.71075479 -16.68512619 79.16897408 -21 79 C-21.08636719 77.84628906 -21.17273438 76.69257813 -21.26171875 75.50390625 C-23.10202777 53.28825135 -28.05264982 32.14921557 -35 11 C-29.39482576 8.43829008 -23.73023347 6.6375983 -17.8125 4.9375 C-16.0471665 4.42927853 -14.28280106 3.91767956 -12.51953125 3.40234375 C-11.74714111 3.18054443 -10.97475098 2.95874512 -10.17895508 2.73022461 C-7.97341028 2.05863152 -7.97341028 2.05863152 -5.9675293 0.91235352 C-4 0 -4 0 0 0 Z " fill="#0F233C" transform="translate(650,350)"/>
<path d="M0 0 C3.33101283 0.60640761 6.43170651 1.41547376 9.6171875 2.55859375 C10.47183594 2.86216797 11.32648438 3.16574219 12.20703125 3.47851562 C13.08746094 3.79498047 13.96789062 4.11144531 14.875 4.4375 C20.54597524 6.4688316 26.18435919 8.42327994 32 10 C33.1466487 13.37487776 32.84518856 15.30281249 31.70703125 18.6484375 C31.40829102 19.56004639 31.10955078 20.47165527 30.80175781 21.41088867 C30.3120752 22.87812378 30.3120752 22.87812378 29.8125 24.375 C26.16951649 35.80310065 23.82562801 47.16088686 22 59 C21.85046875 59.95825684 21.7009375 60.91651367 21.546875 61.90380859 C20.66341171 67.59776757 19.81661224 73.29608722 19 79 C10.95348181 78.45381088 3.20371249 77.2019221 -4.6875 75.5625 C-5.76322266 75.34529297 -6.83894531 75.12808594 -7.94726562 74.90429688 C-13.67107539 73.73710235 -19.34633265 72.46981678 -25 71 C-24.42565631 48.23510479 -15.00182494 17.49658518 0 0 Z " fill="#0F213B" transform="translate(397,350)"/>
<path d="M0 0 C0.69335449 0.13575439 1.38670898 0.27150879 2.10107422 0.41137695 C16.03859687 3.13367535 29.97444167 5.7711322 44 8 C44.01417969 9.09570312 44.02835937 10.19140625 44.04296875 11.3203125 C44.31986456 22.17065577 45.54628996 32.72864769 47.3125 43.4375 C47.61353638 45.30075928 47.61353638 45.30075928 47.9206543 47.20166016 C49.16914724 54.47203943 50.88485846 61.37570869 53.21948242 68.37524414 C54 71 54 71 54 74 C49.49946144 74.882466 44.99715583 75.75501186 40.49291992 76.6184082 C38.96081727 76.91353631 37.42923352 77.21137156 35.89819336 77.51196289 C33.69776023 77.9434903 31.49564641 78.36525673 29.29296875 78.78515625 C28.60849167 78.92156021 27.92401459 79.05796417 27.21879578 79.19850159 C23.98445064 79.80553731 22.18080784 80.06026928 19 79 C17.82080078 77.19677734 17.82080078 77.19677734 16.6953125 74.8359375 C16.07100342 73.5358374 16.07100342 73.5358374 15.43408203 72.20947266 C15.00208496 71.27409668 14.57008789 70.3387207 14.125 69.375 C13.67882324 68.41513184 13.23264648 67.45526367 12.77294922 66.46630859 C2.98895873 45.07746796 -0.92621865 23.48993415 0 0 Z " fill="#10213A" transform="translate(372,435)"/>
<path d="M0 0 C7.07220852 4.07083222 12.3149502 10.11865362 14.625 18 C15.82480148 26.86353343 13.25198313 33.90499688 8.5 41.3125 C2.4694103 46.94979037 -3.21305699 49.30492085 -11.5 49.5625 C-20.27719401 49.20114207 -25.86427751 46.44772047 -31.83203125 40.04296875 C-36.10466157 34.38578987 -38.21801538 27.73239172 -37.8828125 20.6484375 C-36.50566726 13.46609542 -33.12073639 6.89374179 -27.3125 2.375 C-19.10910987 -3.16103015 -9.09245285 -4.13546477 0 0 Z " fill="#10213A" transform="translate(534.375,458)"/>
<path d="M0 0 C1.16810832 0.71481255 2.31725784 1.46228715 3.4375 2.25 C4.79875 3.1471875 4.79875 3.1471875 6.1875 4.0625 C11.45682423 9.18545411 12.71201223 12.91746319 12.9375 20.1875 C12.70816634 27.163682 11.61471073 31.81326464 6.859375 36.95703125 C0.7528585 42.60968504 -5.42033694 44.87455978 -13.72265625 44.58984375 C-21.76875358 43.62696828 -27.057942 40.54998239 -32.1875 34.34765625 C-36.16967258 28.27258048 -36.28102174 22.32467562 -35.5625 15.25 C-33.78907567 8.60527086 -29.1158353 4.07632041 -23.5625 0.25 C-16.68614747 -3.21125127 -6.9529438 -3.37032009 0 0 Z " fill="#EEF3F6" transform="translate(502.5625,814.75)"/>
<path d="M0 0 C5.24556423 3.26390663 7.29788014 7.59576027 10 13 C10.54828781 19.85359761 10.9119115 27.07062471 7 33 C0.76853703 39.86682782 -4.48577753 42.95363615 -13.75 43.4375 C-20.96223558 43.28538089 -26.78831083 41.30497475 -31.8828125 36.0625 C-36.47223785 30.20931985 -38.54639564 25.17650513 -38.37890625 17.6953125 C-37.53508243 11.69285441 -34.64971923 6.12501673 -30.125 2.0625 C-20.46844422 -4.31082681 -10.49920153 -4.92083789 0 0 Z " fill="#E6EEF0" transform="translate(717,816)"/>
<path d="M0 0 C4.91302398 4.18747192 8.3393391 9.63637554 9.31640625 16.08984375 C9.68868522 22.92296419 7.86741266 29.54458626 3.45703125 34.859375 C-2.8708808 40.70943556 -9.73860927 42.63455708 -18.26171875 42.33984375 C-25.99655454 41.37988553 -30.70713065 37.91004517 -35.58984375 32 C-40.02297795 25.71256313 -39.77880267 19.53118756 -39 12 C-37.00987522 5.30506566 -32.98570014 1.71378172 -27.18359375 -1.90625 C-18.61751118 -6.19695326 -8.03786198 -4.79451416 0 0 Z " fill="#F4F7F8" transform="translate(412,817)"/>
<path d="M0 0 C1.92972656 0.32871094 1.92972656 0.32871094 3.8984375 0.6640625 C5.14882813 0.89867187 6.39921875 1.13328125 7.6875 1.375 C9.42580078 1.69597656 9.42580078 1.69597656 11.19921875 2.0234375 C14 3 14 3 15.39453125 5.1015625 C15.59433594 5.72804688 15.79414062 6.35453125 16 7 C7.48383717 18.02952894 -1.30858387 28.04797279 -12.2734375 36.6484375 C-15.22507936 39.19412289 -17.50951636 42.0090364 -20 45 C-24.88274492 49.10214296 -29.92443946 52.28473748 -35.9921875 54.25 C-39.14582128 55.42801106 -41.9484501 57.17913809 -44.82421875 58.9140625 C-47.20943564 60.10452982 -49.37652542 60.58649262 -52 61 C-50.34426019 58.32638736 -48.6744419 55.66193328 -47 53 C-46.61972656 52.38382813 -46.23945312 51.76765625 -45.84765625 51.1328125 C-44.95188998 49.71986796 -43.98197578 48.35444935 -43 47 C-42.34 47 -41.68 47 -41 47 C-41 45.35 -41 43.7 -41 42 C-39.02 41.505 -39.02 41.505 -37 41 C-36.896875 40.278125 -36.79375 39.55625 -36.6875 38.8125 C-35.93206053 35.72206579 -34.84468685 33.58256159 -33 31 C-32.34 31 -31.68 31 -31 31 C-30.67 29.35 -30.34 27.7 -30 26 C-29.34 26 -28.68 26 -28 26 C-27.896875 25.29875 -27.79375 24.5975 -27.6875 23.875 C-26.76340164 20.01058867 -25.45442398 16.35620314 -22.49609375 13.59765625 C-20.69168875 11.670759 -20.18112801 10.08233663 -19.4375 7.5625 C-18.53229078 4.54002177 -17.66548611 1.69678356 -16 -1 C-10.75007449 -2.74997517 -5.3537661 -0.95804236 0 0 Z " fill="#102541" transform="translate(629,523)"/>
<path d="M0 0 C11 0 11 0 14.9609375 3.69140625 C16.13515003 5.2891269 17.27277126 6.91429548 18.375 8.5625 C18.95121094 9.36236328 19.52742187 10.16222656 20.12109375 10.98632812 C21.20399024 12.49720307 22.2729113 14.01828378 23.32177734 15.55297852 C25.50290286 18.73328416 27.75852572 21.86193601 30 25 C30.33 16.75 30.66 8.5 31 0 C34.63 0 38.26 0 42 0 C42 14.52 42 29.04 42 44 C32 44 32 44 29.44140625 42.33984375 C28.82136719 41.54707031 28.20132813 40.75429688 27.5625 39.9375 C26.84320312 39.04160156 26.12390625 38.14570312 25.3828125 37.22265625 C24.58501001 36.15105779 23.79105317 35.07659043 23 34 C22.51756836 33.35788574 22.03513672 32.71577148 21.53808594 32.05419922 C18.29886464 27.74171729 15.1476927 23.38286325 12 19 C11.67 27.25 11.34 35.5 11 44 C7.37 44 3.74 44 0 44 C0 29.48 0 14.96 0 0 Z " fill="#E3EAEE" transform="translate(737,814)"/>
<path d="M0 0 C2.06825288 2.68998131 3.94125045 5.42441034 5.71484375 8.31640625 C6.22990479 9.15316895 6.74496582 9.98993164 7.27563477 10.85205078 C7.82405029 11.74649902 8.37246582 12.64094727 8.9375 13.5625 C13.27677938 20.60630292 17.6382063 27.63424879 22.0625 34.625 C22.79158569 35.77742187 22.79158569 35.77742187 23.53540039 36.953125 C25.55293035 40.14006831 27.57247124 43.32573432 29.59228516 46.51123047 C36.99900402 58.19579421 44.36840066 69.85184899 51 82 C44.53498425 81.58952281 38.36888405 80.55185035 32.0625 79.125 C31.31685791 78.96354492 30.57121582 78.80208984 29.80297852 78.63574219 C22.92776648 77.02210008 22.92776648 77.02210008 21 74 C20.33042504 71.32681142 20.22637292 68.76174963 20 66 C19.34 66 18.68 66 18 66 C17.80664062 65.40832031 17.61328125 64.81664062 17.4140625 64.20703125 C16.28724661 60.78753552 15.16234956 57.40160155 13.8125 54.0625 C13 52 13 52 13 50 C12.10052154 48.37585988 11.1419392 46.78424911 10.15625 45.2109375 C9.56972656 44.26992188 8.98320312 43.32890625 8.37890625 42.359375 C7.75886719 41.37453125 7.13882812 40.3896875 6.5 39.375 C5.56994141 37.88613281 5.56994141 37.88613281 4.62109375 36.3671875 C3.0846896 33.90894086 1.54417588 31.45336945 0 29 C0.66 28.67 1.32 28.34 2 28 C1.90388428 27.40050537 1.80776855 26.80101074 1.70874023 26.18334961 C1.27443517 23.43628398 0.85586794 20.68703603 0.4375 17.9375 C0.28603516 16.99455078 0.13457031 16.05160156 -0.02148438 15.08007812 C-0.82093025 9.74424167 -1.10836575 5.29226297 0 0 Z " fill="#245C8C" transform="translate(451,530)"/>
<path d="M0 0 C-0.60585938 0.62003906 -1.21171875 1.24007813 -1.8359375 1.87890625 C-13.94887655 14.68135106 -22.10319599 29.33770143 -30 45 C-30.86044922 46.69769531 -30.86044922 46.69769531 -31.73828125 48.4296875 C-32.83690751 50.61456113 -33.92270072 52.804597 -35 55 C-42.03264333 53.72977021 -48.80124472 51.98783682 -55.625 49.875 C-56.53378906 49.59785156 -57.44257813 49.32070313 -58.37890625 49.03515625 C-60.58727959 48.36102123 -62.79423163 47.68260023 -65 47 C-61.42962072 36.56635278 -51.39889501 29.53745767 -43 23 C-42.02417969 22.19691406 -41.04835938 21.39382813 -40.04296875 20.56640625 C-8.97183438 -4.48591719 -8.97183438 -4.48591719 0 0 Z " fill="#12213A" transform="translate(471,292)"/>
<path d="M0 0 C18.74893718 2.65761634 37.31793523 17.77073512 51 30 C51.8559375 30.72316406 52.711875 31.44632812 53.59375 32.19140625 C58.47702648 36.35033005 62.39809489 40.68895561 66 46 C65 48 65 48 63.30102539 48.74609375 C62.21035767 49.08833984 62.21035767 49.08833984 61.09765625 49.4375 C60.29368408 49.69192871 59.48971191 49.94635742 58.66137695 50.20849609 C57.80374756 50.46969238 56.94611816 50.73088867 56.0625 51 C55.20035889 51.2676416 54.33821777 51.5352832 53.44995117 51.81103516 C47.6770914 53.57265234 41.96215303 55.02259786 36 56 C35.55011719 55.06542969 35.10023438 54.13085938 34.63671875 53.16796875 C27.06550675 37.62843218 18.91622372 22.46921152 8 9 C7.484375 8.35546875 6.96875 7.7109375 6.4375 7.046875 C4.4155993 4.56763961 2.32329268 2.20101411 0 0 Z " fill="#12223B" transform="translate(574,291)"/>
<path d="M0 0 C2.16903384 1.64189812 2.96605733 2.98112812 3.9609375 5.484375 C1.9809375 7.134375 0.0009375 8.784375 -2.0390625 10.484375 C-6.7890625 8.609375 -6.7890625 8.609375 -9.0390625 7.484375 C-10.66072002 7.36289195 -12.28790577 7.30893848 -13.9140625 7.296875 C-14.77773438 7.28269531 -15.64140625 7.26851562 -16.53125 7.25390625 C-20.26967462 7.59746864 -22.32860004 8.6724179 -24.7890625 11.484375 C-26.61126502 15.85766106 -26.84532326 19.81851411 -26.0390625 24.484375 C-24.03114627 28.38068864 -21.08156525 30.85096522 -17.0390625 32.484375 C-14.74594433 32.76090325 -14.74594433 32.76090325 -12.4140625 32.671875 C-11.25003906 32.66220703 -11.25003906 32.66220703 -10.0625 32.65234375 C-7.9703357 32.60488133 -7.9703357 32.60488133 -6.0390625 31.484375 C-5.63177022 29.16280903 -5.29467573 26.8274963 -5.0390625 24.484375 C-8.6690625 24.484375 -12.2990625 24.484375 -16.0390625 24.484375 C-16.0390625 21.844375 -16.0390625 19.204375 -16.0390625 16.484375 C-9.1090625 16.484375 -2.1790625 16.484375 4.9609375 16.484375 C4.9609375 23.084375 4.9609375 29.684375 4.9609375 36.484375 C-3.19732226 41.14623772 -9.69292434 43.62938427 -19.0390625 42.484375 C-26.32107089 40.39361892 -32.75722785 36.24833589 -36.7109375 29.7265625 C-38.20495985 26.07939029 -38.43990973 23.41315461 -38.4140625 19.484375 C-38.42179687 18.30875 -38.42953125 17.133125 -38.4375 15.921875 C-37.69930469 9.55313112 -34.75265523 5.64987555 -30.0390625 1.484375 C-20.6348566 -5.4248375 -10.26500775 -5.38165455 0 0 Z " fill="#F5F8F9" transform="translate(312.0390625,816.515625)"/>
<path d="M0 0 C3.96 0 7.92 0 12 0 C16.87745991 10.63124832 21.61829944 21.30441569 26.0625 32.125 C26.45622803 33.07842285 26.84995605 34.0318457 27.25561523 35.01416016 C27.79617554 36.34133057 27.79617554 36.34133057 28.34765625 37.6953125 C28.66742432 38.47922363 28.98719238 39.26313477 29.31665039 40.07080078 C30 42 30 42 30 44 C26.37 44 22.74 44 19 44 C17.68 41.36 16.36 38.72 15 36 C9.06 36 3.12 36 -3 36 C-4.32 38.64 -5.64 41.28 -7 44 C-10.63 44 -14.26 44 -18 44 C-15.67088977 36.58404832 -12.8001978 29.43059953 -9.81152344 22.26049805 C-8.99790794 20.30747817 -8.19003136 18.35215553 -7.3828125 16.39648438 C-5.078632 10.84105195 -2.7427809 5.35762604 0 0 Z " fill="#E9F0F3" transform="translate(585,814)"/>
<path d="M0 0 C11.55 0 23.1 0 35 0 C35 3.3 35 6.6 35 10 C27.08 10 19.16 10 11 10 C11 12.64 11 15.28 11 18 C18.26 18 25.52 18 33 18 C33 20.64 33 23.28 33 26 C25.74 26 18.48 26 11 26 C11 28.97 11 31.94 11 35 C18.92 35 26.84 35 35 35 C35 37.97 35 40.94 35 44 C23.45 44 11.9 44 0 44 C0 29.48 0 14.96 0 0 Z " fill="#F4F6F8" transform="translate(329,814)"/>
<path d="M0 0 C1.78515625 2.140625 1.78515625 2.140625 3 4 C-0.34822602 8.66360053 -0.34822602 8.66360053 -2.9375 10 C-5 10 -5 10 -7.1875 8.5625 C-11.1399731 6.36668161 -14.56900246 6.4049114 -19 7 C-22.89746842 8.6584972 -24.41213765 10.14177306 -26 14 C-26.78914694 19.63676389 -26.17910898 24.17246415 -23 29 C-18.7675655 31.821623 -14.97368623 31.55794557 -10 31 C-7.20102057 29.53888984 -7.20102057 29.53888984 -5 28 C-1.61276843 28.20528676 0.42719381 29.88662349 3 32 C1.49373726 35.83412335 -0.59268201 37.72845467 -4 40 C-11.28702402 42.80270155 -18.83671226 43.18581395 -26.08203125 40.10546875 C-32.03838096 36.6723792 -36.15635058 31.61544792 -38 25 C-38.81759845 17.60073404 -38.66059281 11.05356329 -34 5 C-24.55217551 -5.15138589 -12.16989468 -7.23494656 0 0 Z " fill="#ECF2F5" transform="translate(561,817)"/>
<path d="M0 0 C11.88 0 23.76 0 36 0 C36 2.97 36 5.94 36 9 C31.71 9 27.42 9 23 9 C23 20.22 23 31.44 23 43 C19.7 43 16.4 43 13 43 C13 31.78 13 20.56 13 9 C8.71 9 4.42 9 0 9 C0 6.03 0 3.06 0 0 Z " fill="#F5F8F8" transform="translate(613,814)"/>
<path d="M0 0 C4.07592745 2.23022446 6.24910972 4.68571945 8.3125 8.8125 C8.87223414 13.40048472 8.73714043 16.91226229 6.75 21.125 C2.86940768 25.40360179 -0.49909446 27.50535536 -6.25 28.3125 C-11.55492604 27.54087439 -14.46394272 25.16833374 -18 21.25 C-20.85936767 17.11980225 -21.25458858 13.75427194 -20.6875 8.8125 C-15.8003739 -0.00661355 -10.01265792 -3.22441526 0 0 Z " fill="#F8F9FA" transform="translate(361.6875,325.1875)"/>
<path d="M0 0 C3.63 0 7.26 0 11 0 C11 11.55 11 23.1 11 35 C17.27 35 23.54 35 30 35 C30 37.97 30 40.94 30 44 C20.1 44 10.2 44 0 44 C0 29.48 0 14.96 0 0 Z " fill="#EDF3F4" transform="translate(431,814)"/>
<path d="M0 0 C3.60003622 1.9102233 5.74840078 4.62260117 8 8 C8.58663955 12.49503031 8.5496803 16.66919506 6.8125 20.875 C1.87841258 26.65979215 1.87841258 26.65979215 -2.5234375 27.45703125 C-7.53028488 27.75195514 -11.08488059 27.53962518 -15.0625 24.3125 C-17.57318321 21.72956691 -19.31280387 19.60777971 -20 16 C-19.89650368 9.47973168 -18.6553527 6.54708868 -14 2 C-9.55928836 -0.70911339 -5.06027985 -0.7981514 0 0 Z " fill="#ECE8EF" transform="translate(268,616)"/>
<path d="M0 0 C4.12974965 2.06487482 6.29527061 3.7458555 8 8 C8.7164344 13.04836331 8.54701546 16.94369429 6.1875 21.5 C3.70414489 24.33812013 2.06959517 25.83948355 -1.70703125 26.40625 C-9.89905638 26.65355642 -9.89905638 26.65355642 -13.0859375 24.76171875 C-16.76425928 21.14619759 -17.89723984 18.25367398 -18.3125 13.1875 C-18.25622504 8.8141315 -16.82644126 6.37602706 -14 3 C-9.65456705 -0.88315285 -5.59855656 -0.80357831 0 0 Z " fill="#0E203B" transform="translate(496,823)"/>
<path d="M0 0 C3.16961356 1.28133314 4.57820229 2.5200233 6.8125 5.0625 C8.57021759 9.41053825 8.65950013 13.37608898 8 18 C5.66341779 22.94277006 3.1315171 25.15265384 -2 27 C-5.99069931 27.58197698 -7.62401025 27.20642575 -11.1875 25.25 C-14.65404313 22.4767655 -16.72177071 20.66473857 -17.46875 16.1953125 C-17.56350481 6.8856523 -17.56350481 6.8856523 -14.625 3.3125 C-10.00560222 -0.75696947 -5.97026497 -0.51792519 0 0 Z " fill="#111F36" transform="translate(708,823)"/>
<path d="M0 0 C4.38773175 2.19386588 7.09334197 4.44520582 9 9 C9.57057837 14.23030176 8.84948106 17.57839146 6 22 C3.72401089 24.62083595 2.11277192 25.81763938 -1.3359375 26.3828125 C-7.02279003 26.63897703 -10.62917662 25.93374104 -15 22 C-17.75573924 17.55861957 -17.52682022 13.07064462 -17 8 C-15.70483047 4.79615959 -14.48002642 3.4094343 -11.875 1.1875 C-7.83285584 -0.48208128 -4.31174193 -0.68440348 0 0 Z " fill="#102139" transform="translate(401,823)"/>
<path d="M0 0 C0.33 0 0.66 0 1 0 C1.13535156 0.85078125 1.27070313 1.7015625 1.41015625 2.578125 C3.82828405 16.18914373 7.91436108 29.52297894 14.4375 41.75 C16.49064751 45.63418672 17.49212044 48.30168889 17.078125 52.80859375 C16.9716989 55.79384588 17.50006127 58.55779299 18 61.5 C18.81609249 66.43678488 19.19583151 71.00629637 19 76 C14.46788745 74.52012652 12.79124668 70.91238047 10.5625 67 C9.97698364 65.98993896 9.97698364 65.98993896 9.37963867 64.95947266 C8.24085982 62.9796658 7.12006748 60.99043185 6 59 C5.41734375 57.99710938 4.8346875 56.99421875 4.234375 55.9609375 C3.76515625 55.10757813 3.2959375 54.25421875 2.8125 53.375 C2.20341797 52.27285156 2.20341797 52.27285156 1.58203125 51.1484375 C0.78145713 48.19329812 1.84138555 46.80570398 3 44 C3.13710218 41.35392791 3.19062972 38.82530987 3.125 36.1875 C3.11597656 35.49462891 3.10695313 34.80175781 3.09765625 34.08789062 C3.07426157 32.39177605 3.03839641 30.69584129 3 29 C2.34 29 1.68 29 1 29 C-0.09725464 24.37851224 -0.36269215 19.78789882 -0.625 15.0625 C-0.6765625 14.27681641 -0.728125 13.49113281 -0.78125 12.68164062 C-1.03154568 8.28306215 -0.93409752 4.34285636 0 0 Z " fill="#82A1C0" transform="translate(434,482)"/>
<path d="M0 0 C3.63 0 7.26 0 11 0 C11.02464513 6.1055471 11.04283371 12.21106551 11.05493164 18.31665039 C11.05997288 20.39543156 11.06680574 22.47420916 11.07543945 24.55297852 C11.08751422 27.53402586 11.09323024 30.51502649 11.09765625 33.49609375 C11.10281754 34.43150497 11.10797882 35.3669162 11.11329651 36.33067322 C11.11337204 37.19149002 11.11344757 38.05230682 11.11352539 38.93920898 C11.115746 39.70087875 11.11796661 40.46254852 11.12025452 41.24729919 C11 43 11 43 10 44 C6.7 44 3.4 44 0 44 C0 29.48 0 14.96 0 0 Z " fill="#E6ECEF" transform="translate(658,814)"/>
<path d="M0 0 C3.35227527 2.4963752 4.80693091 3.84158547 5.5 8 C4.81180147 12.12919118 3.55809224 14.81799899 0.1875 17.375 C-2.96145094 18.27470027 -4.86958112 17.95829149 -8 17 C-11.60549148 14.33507152 -12.84539972 12.96195728 -13.5625 8.5 C-12.91877781 4.49461748 -11.84054174 2.84054174 -9 0 C-5.77509551 -1.61245225 -3.43772273 -0.81573082 0 0 Z " fill="#EEF3F5" transform="translate(665,681)"/>
<path d="M0 0 C2.92327345 2.55786427 3.83443034 4.13535846 4.5625 7.9375 C3.76884408 12.25851556 2.29420787 14.11756811 -1 17 C-3.85334922 17.81113355 -6.13912707 17.76136134 -9 17 C-12 14.9375 -12 14.9375 -14 12 C-14.69151325 7.69725091 -14.51557405 5.79054688 -12.125 2.125 C-8.36349511 -1.63650489 -4.95891732 -1.42103362 0 0 Z " fill="#F3F5F8" transform="translate(387,681)"/>
<path d="M0 0 C0.33 0 0.66 0 1 0 C1.25523437 1.83498047 1.25523437 1.83498047 1.515625 3.70703125 C3.01527167 14.22138425 4.84930553 24.58868591 7.1328125 34.9609375 C8.46144482 41.08891514 9.25297617 44.99206355 7 51 C6.63079809 52.99369031 6.28674418 54.99279077 6 57 C2.90360678 54.46658737 1.86879597 51.87009115 1 48 C1.31324219 47.43667969 1.62648438 46.87335937 1.94921875 46.29296875 C3.45854713 42.99937857 3.21215772 39.7966487 3.125 36.25 C3.11597656 35.55261719 3.10695313 34.85523438 3.09765625 34.13671875 C3.07419888 32.42433042 3.03833104 30.71211996 3 29 C2.34 29 1.68 29 1 29 C-0.09725464 24.37851224 -0.36269215 19.78789882 -0.625 15.0625 C-0.6765625 14.27681641 -0.728125 13.49113281 -0.78125 12.68164062 C-1.03154568 8.28306215 -0.93409752 4.34285636 0 0 Z " fill="#A2B6D0" transform="translate(434,482)"/>
<path d="M0 0 C2.97 0 5.94 0 9 0 C9.60601609 2.856933 10.08110347 5.66041394 10.4375 8.5625 C10.8043209 11.87152551 10.8043209 11.87152551 12.0625 14.125 C13.25409043 16.50818085 13.14598495 18.37227096 13 21 C13.66 21 14.32 21 15 21 C15.33 23.31 15.66 25.62 16 28 C14.68 28 13.36 28 12 28 C11.34 29.32 10.68 30.64 10 32 C9.67 26.06 9.34 20.12 9 14 C7.68 13.67 6.36 13.34 5 13 C4.87625 11.865625 4.7525 10.73125 4.625 9.5625 C4.41875 8.386875 4.2125 7.21125 4 6 C3.34 5.67 2.68 5.34 2 5 C2 3.68 2 2.36 2 1 C1.34 0.67 0.68 0.34 0 0 Z " fill="#90BDD6" transform="translate(604,431)"/>
<path d="M0 0 C0.66 0 1.32 0 2 0 C1.98839844 0.61101562 1.97679687 1.22203125 1.96484375 1.8515625 C1.85904236 12.58284637 2.46226413 23.28532669 3 34 C3.66 34 4.32 34 5 34 C5.24942467 36.41611371 5.47507501 38.83059121 5.6875 41.25 C5.76033203 41.93191406 5.83316406 42.61382813 5.90820312 43.31640625 C6.18170697 46.63062933 6.24621154 48.58683235 4.51953125 51.484375 C4.01808594 51.98453125 3.51664062 52.4846875 3 53 C0 48.25 0 48.25 0 46 C-0.66 45.67 -1.32 45.34 -2 45 C-1.01 45 -0.02 45 1 45 C1.02749766 43.62511713 1.0466164 42.25006609 1.0625 40.875 C1.07410156 40.10929688 1.08570313 39.34359375 1.09765625 38.5546875 C1.05966806 35.95960653 1.05966806 35.95960653 0.5 33.28710938 C-0.03725048 29.75510719 -0.1129203 26.42335068 -0.09765625 22.8515625 C-0.0962413 22.19417084 -0.09482635 21.53677917 -0.09336853 20.85946655 C-0.08781762 18.78126269 -0.07527465 16.70317073 -0.0625 14.625 C-0.05747864 13.20703282 -0.05291685 11.78906393 -0.04882812 10.37109375 C-0.03786437 6.91402678 -0.02063421 3.45702433 0 0 Z " fill="#BBC8DD" transform="translate(432,477)"/>
<path d="M0 0 C2 2 2 2 2.21118164 4.54003906 C2.19434326 5.60448242 2.17750488 6.66892578 2.16015625 7.765625 C2.14855469 8.95647705 2.13695312 10.1473291 2.125 11.37426758 C2.104375 12.65325928 2.08375 13.93225098 2.0625 15.25 C1.94954399 27.87204964 2.2733644 40.40065773 3 53 C3.66 53.33 4.32 53.66 5 54 C3.125 59.75 3.125 59.75 2 62 C1.34 62 0.68 62 0 62 C-1.06927082 58.79218754 -1.08634483 56.61063601 -1.02172852 53.2434082 C-1.00163223 52.06241043 -0.98153595 50.88141266 -0.96083069 49.66462708 C-0.93379562 48.38955795 -0.90676056 47.11448883 -0.87890625 45.80078125 C-0.85529526 44.49545944 -0.83168427 43.19013763 -0.80735779 41.84526062 C-0.74458225 38.37802271 -0.67549728 34.91093812 -0.60510254 31.44384766 C-0.53435999 27.90469331 -0.46957849 24.36543042 -0.40429688 20.82617188 C-0.2753688 13.88399661 -0.13977559 6.94196509 0 0 Z " fill="#DAEDF3" transform="translate(522,552)"/>
<path d="M0 0 C0.81640625 1.60546875 0.81640625 1.60546875 1 4 C-0.61233161 6.29689698 -2.18556565 8.25363005 -4.0625 10.3125 C-4.57329102 10.89136963 -5.08408203 11.47023926 -5.61035156 12.06665039 C-6.61927201 13.20963331 -7.6326704 14.3486818 -8.65087891 15.48339844 C-10.23324112 17.26219577 -11.74232719 19.09524774 -13.25 20.9375 C-15.6919388 23.77941154 -18.3715549 26.19877626 -21.265625 28.57421875 C-22.42513237 29.52741738 -23.56109668 30.50996872 -24.671875 31.51953125 C-26.25 32.9375 -26.25 32.9375 -29 35 C-29.99 34.67 -30.98 34.34 -32 34 C-30.69289063 32.92685547 -30.69289063 32.92685547 -29.359375 31.83203125 C-18.16002153 22.51347316 -7.46172347 12.66529379 0 0 Z " fill="#5A8BAB" transform="translate(645,528)"/>
<path d="M0 0 C0.66 0 1.32 0 2 0 C2.67031719 1.9570868 3.33614683 3.91571113 4 5.875 C4.556875 7.51082031 4.556875 7.51082031 5.125 9.1796875 C6 12 6 12 6 14 C2.7 14 -0.6 14 -4 14 C-3.21824485 9.15311808 -1.60155722 4.6233633 0 0 Z " fill="#1C2A43" transform="translate(590,826)"/>
<path d="M0 0 C0.66 0.33 1.32 0.66 2 1 C0.77023437 1.81404297 0.77023437 1.81404297 -0.484375 2.64453125 C-2.10085938 3.71767578 -2.10085938 3.71767578 -3.75 4.8125 C-4.81734375 5.52019531 -5.8846875 6.22789062 -6.984375 6.95703125 C-8.71850526 8.13183711 -10.43260121 9.34071411 -12.078125 10.63671875 C-14.28636608 12.20313366 -16.48151836 13.01699204 -19 14 C-20.78987319 15.00860007 -22.56117681 16.05085511 -24.3125 17.125 C-25.19550781 17.66382813 -26.07851563 18.20265625 -26.98828125 18.7578125 C-27.65214844 19.16773438 -28.31601562 19.57765625 -29 20 C-29.33 19.34 -29.66 18.68 -30 18 C-29.09121094 17.45472656 -28.18242188 16.90945313 -27.24609375 16.34765625 C-26.34540161 15.8069751 -26.34540161 15.8069751 -25.42651367 15.25537109 C-24.09006688 14.45386391 -22.75297948 13.65342399 -21.4152832 12.85400391 C-17.83933512 10.7148767 -14.27619514 8.55852296 -10.734375 6.36328125 C-10.05576416 5.94618896 -9.37715332 5.52909668 -8.67797852 5.09936523 C-7.36460163 4.29149266 -6.05507871 3.47731641 -4.74975586 2.65649414 C-3.20242173 1.70963056 -1.60473622 0.84594042 0 0 Z " fill="#6C9FC0" transform="translate(667,592)"/>
<path d="M0 0 C0.33 0.99 0.66 1.98 1 3 C2.98 3 4.96 3 7 3 C4.86197902 5.32509781 2.81401863 6.82167236 0 8.25 C-1.0209375 8.78367187 -1.0209375 8.78367187 -2.0625 9.328125 C-4 10 -4 10 -7 9 C-6.02180976 7.68677212 -5.0424189 6.37443848 -4.0625 5.0625 C-3.51722656 4.33160156 -2.97195313 3.60070312 -2.41015625 2.84765625 C-1 1 -1 1 0 0 Z " fill="#183D5D" transform="translate(584,574)"/>
<path d="M0 0 C0.99 0.33 1.98 0.66 3 1 C3 1.66 3 2.32 3 3 C1.02 3 -0.96 3 -3 3 C-3.33 3.99 -3.66 4.98 -4 6 C-6.69074264 7.68171415 -9.42215738 8.48655296 -12.5 9.1875 C-13.62921875 9.45626953 -13.62921875 9.45626953 -14.78125 9.73046875 C-17.14833379 10.01801942 -18.74544015 9.72248395 -21 9 C-17.63203461 6.7867656 -14.98405803 5.56915115 -11 5 C-9.741875 4.814375 -8.48375 4.62875 -7.1875 4.4375 C-5.6096875 4.2209375 -5.6096875 4.2209375 -4 4 C-4 3.34 -4 2.68 -4 2 C-2.68 2 -1.36 2 0 2 C0 1.34 0 0.68 0 0 Z " fill="#1A3F61" transform="translate(595,595)"/>
<path d="M0 0 C4.38889325 0.66498383 7.9811485 2.18757677 12 4 C12 6.97 12 9.94 12 13 C8.73587642 9.82654652 5.81870766 6.57036304 3 3 C2.01769502 1.9826127 1.02530403 0.97403883 0 0 Z " fill="#1E2A41" transform="translate(574,291)"/>
<path d="M0 0 C1.65 0 3.3 0 5 0 C8.25968109 9.41002278 8.25968109 9.41002278 9 14 C7.68 13.67 6.36 13.34 5 13 C4.87625 11.865625 4.7525 10.73125 4.625 9.5625 C4.41875 8.386875 4.2125 7.21125 4 6 C3.34 5.67 2.68 5.34 2 5 C2 3.68 2 2.36 2 1 C1.34 0.67 0.68 0.34 0 0 Z " fill="#739DB8" transform="translate(604,431)"/>
<path d="M0 0 C1 3 1 3 -0.3125 6.625 C-2 10 -2 10 -4 11 C-3.39301257 6.87248551 -1.96189209 3.6678852 0 0 Z M-5 11 C-4.28515625 12.671875 -4.28515625 12.671875 -4 15 C-5.43359375 17.578125 -5.43359375 17.578125 -7.4375 20.25 C-8.09621094 21.14203125 -8.75492188 22.0340625 -9.43359375 22.953125 C-9.95050781 23.62859375 -10.46742188 24.3040625 -11 25 C-11.33 24.34 -11.66 23.68 -12 23 C-10.56640625 20.1796875 -10.56640625 20.1796875 -8.5625 16.875 C-7.57443359 15.23144531 -7.57443359 15.23144531 -6.56640625 13.5546875 C-6.04949219 12.71164062 -5.53257812 11.86859375 -5 11 Z " fill="#345875" transform="translate(603,512)"/>
<path d="M0 0 C0.66 0.33 1.32 0.66 2 1 C-7.22551253 7.51936219 -7.22551253 7.51936219 -13 9 C-13 9.66 -13 10.32 -13 11 C-16.465 12.485 -16.465 12.485 -20 14 C-18.59500668 10.54130736 -17.18385917 9.1827369 -13.9375 7.38671875 C-13.14085937 6.94392578 -12.34421875 6.50113281 -11.5234375 6.04492188 C-10.69070313 5.59697266 -9.85796875 5.14902344 -9 4.6875 C-8.16726563 4.22021484 -7.33453125 3.75292969 -6.4765625 3.27148438 C-1.88102047 0.75434687 -1.88102047 0.75434687 0 0 Z " fill="#DAE2EA" transform="translate(423,212)"/>
<path d="M0 0 C0.33 0 0.66 0 1 0 C1.33 7.26 1.66 14.52 2 22 C2.66 22.33 3.32 22.66 4 23 C2.25 28.75 2.25 28.75 0 31 C0 20.77 0 10.54 0 0 Z " fill="#A9CAD7" transform="translate(523,583)"/>
<path d="M0 0 C3.24203974 4.86305961 4.1670416 8.32013565 4.00390625 14.0625 C3.99905839 16.46703765 4.41812992 18.67251969 5 21 C2.59927045 18.11912454 0.52708963 15.43595166 -1 12 C-0.34 12 0.32 12 1 12 C0.67 8.04 0.34 4.08 0 0 Z " fill="#497FA8" transform="translate(452,546)"/>
<path d="M0 0 C0 0.66 0 1.32 0 2 C-0.66 2 -1.32 2 -2 2 C-2.33 2.99 -2.66 3.98 -3 5 C-4.75 5.7734375 -4.75 5.7734375 -7 6.375 C-12.09877887 7.90545209 -16.44727771 10.27697698 -21 13 C-19.3125 9.140625 -19.3125 9.140625 -16.5 7.875 C-15.675 7.58625 -14.85 7.2975 -14 7 C-13.34 6.34 -12.68 5.68 -12 5 C-9.67328135 3.98470459 -7.3396553 2.98511802 -5 2 C-2 0 -2 0 0 0 Z " fill="#5F88AD" transform="translate(583,692)"/>
<path d="M0 0 C2.32472205 2.85306797 3.7508258 5.54074837 5 9 C4.525625 9.433125 4.05125 9.86625 3.5625 10.3125 C1.76313043 12.02309613 1.76313043 12.02309613 1 15 C-0.79849929 13.20150071 -0.42218132 10.49922152 -0.625 8.0625 C-0.72039062 6.98097656 -0.81578125 5.89945313 -0.9140625 4.78515625 C-1 2 -1 2 0 0 Z " fill="#44749B" transform="translate(451,530)"/>
<path d="M0 0 C6.14563107 8.19417476 6.14563107 8.19417476 5.6875 13.875 C5.460625 14.90625 5.23375 15.9375 5 17 C4.67 16.34 4.34 15.68 4 15 C3.34 15 2.68 15 2 15 C1.34 10.05 0.68 5.1 0 0 Z " fill="#6788AB" transform="translate(445,519)"/>
<path d="M0 0 C0.66 0.33 1.32 0.66 2 1 C-0.56678683 3.99458464 -3.50503518 5.25251759 -7 7 C-8.79839599 8.33128015 -10.55623725 9.69382761 -12.2890625 11.109375 C-14.55573892 12.28928875 -15.61676407 11.69954152 -18 11 C-15.04968544 9.13283045 -12.08856877 7.28354701 -9.125 5.4375 C-8.28324219 4.90447266 -7.44148437 4.37144531 -6.57421875 3.82226562 C-5.76855469 3.32275391 -4.96289062 2.82324219 -4.1328125 2.30859375 C-3.01737061 1.60947876 -3.01737061 1.60947876 -1.87939453 0.89624023 C-1.25919434 0.60048096 -0.63899414 0.30472168 0 0 Z " fill="#6B9DBD" transform="translate(635,611)"/>
<path d="M0 0 C0.66 0.33 1.32 0.66 2 1 C-1.75992729 4.35993502 -5.5680985 7.52527411 -9.6875 10.4375 C-10.41324219 10.95183594 -11.13898437 11.46617187 -11.88671875 11.99609375 C-14 13 -14 13 -16.26953125 12.66015625 C-16.84058594 12.44230469 -17.41164063 12.22445312 -18 12 C-17.11957031 11.46890625 -16.23914063 10.9378125 -15.33203125 10.390625 C-14.15874318 9.67726585 -12.98557231 8.9637139 -11.8125 8.25 C-11.23435547 7.90195312 -10.65621094 7.55390625 -10.06054688 7.1953125 C-6.49266943 5.01830253 -3.20570486 2.68047638 0 0 Z " fill="#426F90" transform="translate(611,563)"/>
<path d="M0 0 C-1.7354456 6.17047326 -6.57877075 10.57877075 -11 15 C-10.35494404 11.51669784 -9.01782732 8.90567134 -7 6 C-6.34 6 -5.68 6 -5 6 C-4.814375 4.7934375 -4.814375 4.7934375 -4.625 3.5625 C-4.41875 2.716875 -4.2125 1.87125 -4 1 C-2 0 -2 0 0 0 Z " fill="#1B3D59" transform="translate(603,548)"/>
<path d="M0 0 C1 3 1 3 -0.1875 6.5 C-1.96715936 9.9365836 -2.73683065 11.14108695 -6 13 C-8.578125 13.07421875 -8.578125 13.07421875 -11.25 12.6875 C-12.58804688 12.50767578 -12.58804688 12.50767578 -13.953125 12.32421875 C-14.62859375 12.21722656 -15.3040625 12.11023438 -16 12 C-16 11.34 -16 10.68 -16 10 C-12.37 10 -8.74 10 -5 10 C-3.35 6.7 -1.7 3.4 0 0 Z " fill="#73ABC6" transform="translate(660,503)"/>
<path d="M0 0 C0.33 0.66 0.66 1.32 1 2 C-0.41077694 3.7755291 -1.82886536 5.54525031 -3.25 7.3125 C-4.03890625 8.29863281 -4.8278125 9.28476562 -5.640625 10.30078125 C-7.65198298 12.6018547 -9.4793158 14.30605396 -12 16 C-12 13 -12 13 -10.390625 11.1328125 C-9.33101562 10.13894531 -9.33101562 10.13894531 -8.25 9.125 C-5.24214368 6.23447141 -2.50969733 3.34626311 0 0 Z " fill="#0D2E4B" transform="translate(658,547)"/>
<path d="M0 0 C0.66 1.32 1.32 2.64 2 4 C2.556875 4.99 2.556875 4.99 3.125 6 C4 8 4 8 4 12 C3.34 12 2.68 12 2 12 C1.34 13.32 0.68 14.64 0 16 C0 10.72 0 5.44 0 0 Z " fill="#608AA5" transform="translate(614,447)"/>
<path d="M0 0 C0.66 0 1.32 0 2 0 C2.95261487 4.76307437 3.08333357 9.1666528 3 14 C1.0625 13.1875 1.0625 13.1875 -1 12 C-1.33 11.01 -1.66 10.02 -2 9 C-1.34 8.34 -0.68 7.68 0 7 C0.16677282 3.41656024 0.16677282 3.41656024 0 0 Z " fill="#6B94B6" transform="translate(450,544)"/>
<path d="M0 0 C0.66 0.33 1.32 0.66 2 1 C-1.20072058 3.65202562 -4.40465877 5.91848666 -8 8 C-8.99 8.66 -9.98 9.32 -11 10 C-13.1875 9.625 -13.1875 9.625 -15 9 C-12.54732365 7.46931512 -10.08866106 5.95031377 -7.625 4.4375 C-6.92632813 3.99986328 -6.22765625 3.56222656 -5.5078125 3.11132812 C-3.70814097 2.01249022 -1.85677657 0.99932133 0 0 Z " fill="#6DA4C2" transform="translate(704,570)"/>
<path d="M0 0 C0 3.5934292 -0.58617491 4.41970421 -3 7 C-5.4375 8.125 -5.4375 8.125 -8 9 C-9.34050052 9.65213539 -10.67661368 10.31379969 -12 11 C-9.87377628 6.34888562 -7.01821396 4.49039489 -2.7421875 2.015625 C-1.03403189 1.11895288 -1.03403189 1.11895288 0 0 Z " fill="#2C5373" transform="translate(642,564)"/>
<path d="M0 0 C0.66 0 1.32 0 2 0 C1.51149865 5.90058204 0.66776668 10.66446664 -2 16 C-3.1875 14.4375 -3.1875 14.4375 -4 12 C-2.6875 8.5625 -2.6875 8.5625 -1 5 C-0.30859478 2.22111387 -0.30859478 2.22111387 0 0 Z " fill="#95ACC8" transform="translate(441,523)"/>
<path d="M0 0 C2.02225194 3.0333779 2.99347524 5.61344489 4.125 9.0625 C4.47820312 10.12597656 4.83140625 11.18945312 5.1953125 12.28515625 C6 15 6 15 6 17 C5.34 17 4.68 17 4 17 C1.90429574 11.30601106 0.54981916 6.04801071 0 0 Z " fill="#839AB6" transform="translate(437,497)"/>
<path d="M0 0 C1 3 1 3 0.0625 5.1875 C-0.288125 5.785625 -0.63875 6.38375 -1 7 C-1.66 7 -2.32 7 -3 7 C-3 7.66 -3 8.32 -3 9 C-3.66 9 -4.32 9 -5 9 C-5 9.66 -5 10.32 -5 11 C-6.32 11.33 -7.64 11.66 -9 12 C-9.33 11.34 -9.66 10.68 -10 10 C-9.0925 9.46375 -8.185 8.9275 -7.25 8.375 C-3.79561944 6.09936542 -2.08948315 3.53604841 0 0 Z " fill="#6FA7C4" transform="translate(719,557)"/>
<path d="M0 0 C0.66 0 1.32 0 2 0 C1.88602456 2.43847451 1.75929026 4.87513174 1.625 7.3125 C1.5940625 8.00279297 1.563125 8.69308594 1.53125 9.40429688 C1.31875081 13.06990789 1.08066139 14.87900792 -1 18 C-1.38133299 16.0085944 -1.71325582 14.00720923 -2 12 C-1.67 11.67 -1.34 11.34 -1 11 C-0.76636119 9.15108054 -0.58696365 7.29511969 -0.4375 5.4375 C-0.35371094 4.42558594 -0.26992188 3.41367187 -0.18359375 2.37109375 C-0.12300781 1.58863281 -0.06242188 0.80617188 0 0 Z " fill="#8CB3CC" transform="translate(627,459)"/>
<path d="M0 0 C1.485 0.99 1.485 0.99 3 2 C3.1875 4.625 3.1875 4.625 3 7 C3.66 7 4.32 7 5 7 C5.33 9.31 5.66 11.62 6 14 C1.86217076 9.72424312 0.94055703 5.68046944 0 0 Z " fill="#7FADC7" transform="translate(614,445)"/>
<path d="M0 0 C2.64 0 5.28 0 8 0 C4.25 6.875 4.25 6.875 2 8 C2 6.68 2 5.36 2 4 C2.66 4 3.32 4 4 4 C4 3.34 4 2.68 4 2 C2.68 1.34 1.36 0.68 0 0 Z " fill="#DBE5EE" transform="translate(450,432)"/>
<path d="M0 0 C1.98 0.495 1.98 0.495 4 1 C4 2.32 4 3.64 4 5 C2.68 5.33 1.36 5.66 0 6 C-1.125 2.25 -1.125 2.25 0 0 Z " fill="#E2EDF2" transform="translate(520,238)"/>
<path d="M0 0 C1.32 0.66 2.64 1.32 4 2 C3.67 3.32 3.34 4.64 3 6 C1.68 5.67 0.36 5.34 -1 5 C-1 1 -1 1 0 0 Z " fill="#D9DDE4" transform="translate(251,436)"/>
<path d="M0 0 C0 1.32 0 2.64 0 4 C-3.3 3.67 -6.6 3.34 -10 3 C-6.88378718 -0.11621282 -4.21175599 -0.11383124 0 0 Z " fill="#BFD3DF" transform="translate(505,393)"/>
<path d="M0 0 C0.66 0.33 1.32 0.66 2 1 C1.01 1.33 0.02 1.66 -1 2 C-1 2.66 -1 3.32 -1 4 C-3.2727675 5.49524178 -5.5679943 6.78399715 -8 8 C-8.66 7.34 -9.32 6.68 -10 6 C-8.3811004 4.96951963 -6.75467511 3.95085322 -5.125 2.9375 C-4.22007812 2.36902344 -3.31515625 1.80054688 -2.3828125 1.21484375 C-1.20332031 0.61349609 -1.20332031 0.61349609 0 0 Z " fill="#6F98BD" transform="translate(593,636)"/>
<path d="M0 0 C0.8971875 0.309375 0.8971875 0.309375 1.8125 0.625 C0.19079621 1.63033667 -1.43497237 2.62911907 -3.0625 3.625 C-4.41988281 4.4603125 -4.41988281 4.4603125 -5.8046875 5.3125 C-8.1875 6.625 -8.1875 6.625 -10.1875 6.625 C-10.1875 5.965 -10.1875 5.305 -10.1875 4.625 C-8.55685236 3.56728261 -6.88469127 2.57226954 -5.1875 1.625 C-2.1875 -0.375 -2.1875 -0.375 0 0 Z " fill="#69A0C2" transform="translate(738.1875,600.375)"/>
<path d="M0 0 C0.33 0.99 0.66 1.98 1 3 C-1.21689281 6.85903564 -3.74480375 9.97731777 -7 13 C-7 9.41648654 -6.24028157 8.67894268 -4.0625 5.9375 C-1.81660545 3.10515084 -1.81660545 3.10515084 0 0 Z " fill="#0B2949" transform="translate(765,579)"/>
<path d="M0 0 C1.32 0.66 2.64 1.32 4 2 C3.34 3.32 2.68 4.64 2 6 C0.68 5.34 -0.64 4.68 -2 4 C-1.34 2.68 -0.68 1.36 0 0 Z " fill="#E2ECF2" transform="translate(791,516)"/>
<path d="M0 0 C1.32 0.99 2.64 1.98 4 3 C3.01 4.485 3.01 4.485 2 6 C2 6.99 2 7.98 2 9 C1.01 9.99 0.02 10.98 -1 12 C-0.67 8.04 -0.34 4.08 0 0 Z " fill="#315571" transform="translate(608,490)"/>
<path d="M0 0 C2.125 0.375 2.125 0.375 4 1 C2.37829621 2.00533667 0.75252763 3.00411907 -0.875 4 C-2.23238281 4.8353125 -2.23238281 4.8353125 -3.6171875 5.6875 C-6 7 -6 7 -8 7 C-7.67 6.01 -7.34 5.02 -7 4 C-5.35448038 3.28272222 -3.68577711 2.61674772 -2 2 C-1.34 1.34 -0.68 0.68 0 0 Z " fill="#6492B8" transform="translate(620,668)"/>
<path d="M0 0 C0.66 0.33 1.32 0.66 2 1 C0.02 2.98 -1.96 4.96 -4 7 C-5.32 6.34 -6.64 5.68 -8 5 C-6.71475739 4.13619741 -5.42157581 3.28419631 -4.125 2.4375 C-3.04605469 1.72400391 -3.04605469 1.72400391 -1.9453125 0.99609375 C-1.30335938 0.66738281 -0.66140625 0.33867188 0 0 Z " fill="#6B98B7" transform="translate(577,645)"/>
<path d="M0 0 C0.33 0.66 0.66 1.32 1 2 C1.99 2.33 2.98 2.66 4 3 C3.01 3.66 2.02 4.32 1 5 C-0.2188121 8.55672179 -0.2188121 8.55672179 -1 12 C-1.66 12 -2.32 12 -3 12 C-2.01 8.04 -1.02 4.08 0 0 Z " fill="#82B9D0" transform="translate(668,480)"/>
<path d="M0 0 C0.66 0 1.32 0 2 0 C2.33 1.65 2.66 3.3 3 5 C0.525 6.485 0.525 6.485 -2 8 C-1.34 5.36 -0.68 2.72 0 0 Z " fill="#293240" transform="translate(590,826)"/>
<path d="M0 0 C2.32472205 2.85306797 3.7508258 5.54074837 5 9 C3.35 8.67 1.7 8.34 0 8 C0 5.36 0 2.72 0 0 Z " fill="#4F83B0" transform="translate(472,597)"/>
<path d="M0 0 C0.68359375 1.765625 0.68359375 1.765625 1 4 C-0.21484375 5.921875 -0.21484375 5.921875 -1.9375 7.75 C-2.50339844 8.36359375 -3.06929687 8.9771875 -3.65234375 9.609375 C-4.31943359 10.29773438 -4.31943359 10.29773438 -5 11 C-5.66 10.67 -6.32 10.34 -7 10 C-6.57847656 9.44570313 -6.15695312 8.89140625 -5.72265625 8.3203125 C-5.17480469 7.59585938 -4.62695312 6.87140625 -4.0625 6.125 C-3.51722656 5.40570312 -2.97195313 4.68640625 -2.41015625 3.9453125 C-0.96035376 2.05642921 -0.96035376 2.05642921 0 0 Z " fill="#669CB9" transform="translate(645,528)"/>
<path d="M0 0 C-1.32 0.33 -2.64 0.66 -4 1 C-4 1.66 -4 2.32 -4 3 C-7.465 4.485 -7.465 4.485 -11 6 C-9.90648447 2.82880497 -8.9873012 1.99216457 -6.0625 0.1875 C-3 -1 -3 -1 0 0 Z " fill="#E3EAF1" transform="translate(414,220)"/>
<path d="M0 0 C0 0.99 0 1.98 0 3 C-1.3303125 3.433125 -1.3303125 3.433125 -2.6875 3.875 C-5.50382424 4.83148748 -8.25083156 5.86798946 -11 7 C-4.36842105 0 -4.36842105 0 0 0 Z " fill="#30597B" transform="translate(614,586)"/>
<path d="M0 0 C1.61949011 2.57213134 2.04408751 3.67669159 1.625 6.75 C1.41875 7.4925 1.2125 8.235 1 9 C-1 8 -1 8 -1.75 6.1875 C-2.05694702 3.50171361 -1.38111722 2.2747813 0 0 Z " fill="#A8BCD4" transform="translate(437,526)"/>
<path d="M0 0 C0.99 0.33 1.98 0.66 3 1 C1.515 4.465 1.515 4.465 0 8 C-0.66 7.01 -1.32 6.02 -2 5 C-1.125 2.3125 -1.125 2.3125 0 0 Z " fill="#CDE2EB" transform="translate(578,512)"/>
<path d="M0 0 C1.32 0 2.64 0 4 0 C4.33 0.99 4.66 1.98 5 3 C3.02 3.99 3.02 3.99 1 5 C0.34 4.01 -0.32 3.02 -1 2 C-0.67 1.34 -0.34 0.68 0 0 Z " fill="#EDF2F6" transform="translate(246,490)"/>
<path d="M0 0 C0 0.99 0 1.98 0 3 C-2.25 4.75 -2.25 4.75 -5 6 C-6.32 5.67 -7.64 5.34 -9 5 C-6.03 3.35 -3.06 1.7 0 0 Z " fill="#0F2C4B" transform="translate(701,623)"/>
<path d="M0 0 C0.99 1.32 1.98 2.64 3 4 C-0.3 3.67 -3.6 3.34 -7 3 C-3 1 -3 1 0 0 Z " fill="#1B4268" transform="translate(499,608)"/>
<path d="M0 0 C0.33 0.99 0.66 1.98 1 3 C-3.39453125 7.00390625 -3.39453125 7.00390625 -5 8 C-5.99 7.67 -6.98 7.34 -8 7 C-5.36 4.69 -2.72 2.38 0 0 Z " fill="#4D799A" transform="translate(621,555)"/>
<path d="M0 0 C0.65234375 1.765625 0.65234375 1.765625 1 4 C0.00390625 5.921875 0.00390625 5.921875 -1.4375 7.75 C-2.14712891 8.67039062 -2.14712891 8.67039062 -2.87109375 9.609375 C-3.24363281 10.06828125 -3.61617187 10.5271875 -4 11 C-4.33 10.34 -4.66 9.68 -5 9 C-4.00390625 6.8359375 -4.00390625 6.8359375 -2.5625 4.375 C-2.08941406 3.55773437 -1.61632812 2.74046875 -1.12890625 1.8984375 C-0.75636719 1.27195312 -0.38382813 0.64546875 0 0 Z " fill="#294E6B" transform="translate(596,526)"/>
<path d="M0 0 C0.33 0.66 0.66 1.32 1 2 C1.66 2 2.32 2 3 2 C3.33 3.65 3.66 5.3 4 7 C2.68 6.67 1.36 6.34 0 6 C0 4.02 0 2.04 0 0 Z " fill="#668EA9" transform="translate(609,438)"/>
<path d="M0 0 C0.66 0.33 1.32 0.66 2 1 C0.68 2.65 -0.64 4.3 -2 6 C-3.32 5.67 -4.64 5.34 -6 5 C-4.06745228 2.9754262 -2.36841312 1.57894208 0 0 Z " fill="#0B2748" transform="translate(629,665)"/>
<path d="M0 0 C-0.33 0.99 -0.66 1.98 -1 3 C-4.3 3 -7.6 3 -11 3 C-10.67 2.34 -10.34 1.68 -10 1 C-6.56187949 0.23597322 -3.53471921 0 0 0 Z " fill="#153A5B" transform="translate(564,608)"/>
<path d="M0 0 C0 0.99 0 1.98 0 3 C-1.75 4.75 -1.75 4.75 -4 6 C-5.32 5.67 -6.64 5.34 -8 5 C-4.04 2.525 -4.04 2.525 0 0 Z " fill="#356385" transform="translate(601,570)"/>
<path d="M0 0 C0.99 1.32 1.98 2.64 3 4 C2.01 6.31 1.02 8.62 0 11 C-1.37432457 7.18243176 -0.67975039 3.92744671 0 0 Z " fill="#94C7DB" transform="translate(673,454)"/>
<path d="M0 0 C0 0.66 0 1.32 0 2 C-0.66 2 -1.32 2 -2 2 C-2.33 2.99 -2.66 3.98 -3 5 C-4.32 4.67 -5.64 4.34 -7 4 C-2.25 0 -2.25 0 0 0 Z " fill="#335475" transform="translate(583,692)"/>
<path d="M0 0 C0.66 0 1.32 0 2 0 C4.01782732 2.90567134 5.35494404 5.51669784 6 9 C2.91910327 6.22719294 1.31224548 3.93673644 0 0 Z " fill="#36658F" transform="translate(459,570)"/>
<path d="M0 0 C0.99 0 1.98 0 3 0 C3 0.66 3 1.32 3 2 C4.65 1.67 6.3 1.34 8 1 C6.68 2.32 5.36 3.64 4 5 C2.68 3.35 1.36 1.7 0 0 Z " fill="#7495AD" transform="translate(577,423)"/>
</svg>
